{
.appVersion = "3134";
.formatVersion = 3;
DisplayStrings = (
autdb
);
customParameters = (
{
name = vendorID;
value = ITFO;
},
{
name = panose;
value = (
0,
0,
4,
0,
0,
0,
0,
0,
0,
0
);
},
{
name = unicodeRanges;
value = (
0,
1,
2,
15
);
},
{
name = codePageRanges;
value = (
"1252",
"1250",
"1254",
"1257",
"bit 29"
);
},
{
name = fsType;
value = (
);
},
{
name = glyphOrder;
value = (
.notdef,
.null,
CR,
space,
dvR,
dvKx,
dvGx,
dvJx,
uni20A8,
uni20B9,
uni200C,
uni200D,
uni25CC,
dvEyelash,
dvRashtrasign,
dvKx_RA,
dvGx_RA,
dvJx_RA,
dvKx_R,
dvGx_R,
dvJx_R,
dvKx_KxA,
dvKx_TA,
dvKx_PHA,
dvKx_PHxA,
dvKx_BA,
dvKx_MA,
dvJx_JxA,
dvJx_YA,
dvEyelash_YA,
dvEyelash_HA,
dvmII.aLong,
dvmII_Anusvara,
dvmII_Reph,
dvmII_Reph_Anusvara,
dvmII_Anusvara.aLong,
dvmII_Reph.aLong,
dvmII_Reph_Anusvara.aLong,
dvmE_Anusvara,
dvmE_Reph,
dvmE_Reph_Anusvara,
dvmAI_Anusvara,
dvmAI_Reph,
dvmAI_Reph_Anusvara,
dvmO_Anusvara,
dvmO_Reph,
dvmO_Reph_Anusvara,
dvmAU_Anusvara,
dvmAU_Reph,
dvmAU_Reph_Anusvara,
dvmEcandra_Anusvara,
dvmOcandra_Anusvara,
dvRA_mU,
dvRA_mUU,
dvmI.a01,
dvmI.a02,
dvmI.a03,
dvmI.a04,
dvmI.a05,
dvmI.a06,
dvmI.a07,
dvmI.a08,
dvmI.a09,
dvmI.a10,
dvmI.a11,
dvmI.a12,
dvmI.a13,
dvmI.a14,
dvmI.a15,
dvmI.a16,
dvmI.a17,
dvmI.a18,
dvmI.a19,
dvmI.a20,
dvmI.a21,
dvmI.a22,
dvmI.a23,
dvmI.a24,
exclam,
quotedbl,
numbersign,
dollar,
percent,
ampersand,
quotesingle,
parenleft,
parenright,
asterisk,
plus,
comma,
hyphen,
period,
slash,
zero,
one,
two,
three,
four,
five,
six,
seven,
eight,
nine,
colon,
semicolon,
less,
equal,
greater,
question,
at,
A,
B,
C,
D,
E,
F,
G,
H,
I,
J,
K,
L,
M,
N,
O,
P,
Q,
R,
S,
T,
U,
V,
W,
X,
Y,
Z,
bracketleft,
backslash,
bracketright,
asciicircum,
underscore,
grave,
a,
b,
c,
d,
e,
f,
g,
h,
i,
j,
k,
l,
m,
n,
o,
p,
q,
r,
s,
t,
u,
v,
w,
x,
y,
z,
braceleft,
bar,
braceright,
asciitilde,
uni00A0,
exclamdown,
cent,
sterling,
currency,
yen,
brokenbar,
section,
dieresis,
copyright,
ordfeminine,
guillemotleft,
logicalnot,
uni00AD,
registered,
macron,
degree,
plusminus,
uni00B2,

glyphs = (
{
glyphname = .notdef;
layers = (
{
layerId = m01;
shapes = (
{
closed = 1;
nodes = (
(0,0,l),
(500,0,l),
(500,700,l),
(0,700,l)
);
},
{
closed = 1;
nodes = (
(250,395,l),
(80,650,l),
(420,650,l)
);
},
{
closed = 1;
nodes = (
(280,350,l),
(450,605,l),
(450,95,l)
);
},
{
closed = 1;
nodes = (
(80,50,l),
(250,305,l),
(420,50,l)
);
},
{
closed = 1;
nodes = (
(50,605,l),
(220,350,l),
(50,95,l)
);
}
);
width = 500;
}
);
note = ".notdef";
},
{
glyphname = dvR;
layers = (
{
layerId = m01;
shapes = (
{
closed = 1;
nodes = (
(362,-289,l),
(429,-289,l),
(307,-96,l),
(243,-96,l)
);
},
{
closed = 1;
nodes = (
(-29,686,l),
(373,686,l),
(373,579,ls),
(373,491,o),
(282,402,o),
(195,402,qs),
(88,402,l),
(88,206,ls),
(88,109,o),
(187,-9,o),
(280,-9,qs),
(368,-9,o),
(469,100,o),
(469,192,qs),
(469,208,l),
(407,208,l),
(407,191,ls),
(407,125,o),
(338,46,o),
(279,46,qs),
(215,46,o),
(151,132,o),
(151,203,qs),
(151,349,l),
(214,349,ls),
(324,349,o),
(437,467,o),
(437,579,qs),
(437,686,l),
(565,686,l),
(565,740,l),
(-29,740,l)
);
}
);
width = 536;
}
);
note = dvR;
},
{
glyphname = dvKx;
layers = (
{
layerId = m01;
shapes = (
{
closed = 1;
nodes = (
(476,0,l),
(537,0,l),
(537,330,ls),
(537,375,o),
(572,458,o),
(646,511,o),
(701,511,qs),
(746,511,o),
(821,469,o),
(864,391,o),
(864,339,q),
(928,339,l),
(928,406,o),
(873,509,o),
(778,566,o),
(718,566,qs),
(650,566,o),
(559,502,o),
(537,450,q),
(537,686,l),
(928,686,l),
(928,740,l),
(-29,740,l),
(-29,686,l),
(476,686,l),
(476,453,l),
(453,504,o),
(361,566,o),
(291,566,qs),
(229,566,o),
(130,510,o),
(74,407,o),
(74,339,qs),
(74,268,o),
(129,163,o),
(227,106,o),
(289,106,qs),
(358,106,o),
(454,170,o),
(476,221,q)
);
},
{
closed = 1;
nodes = (
(234,161,o),
(139,256,o),
(139,338,qs),
(139,390,o),
(184,469,o),
(261,511,o),
(307,511,qs),
(364,511,o),
(440,460,o),
(476,380,o),
(476,336,qs),
(476,335,ls),
(476,294,o),
(439,213,o),
(363,161,o),
(307,161,qs)
);
},
{
closed = 1;
nodes = (
(298,-72,o),
(325,-46,o),
(325,-27,qs),
(325,-7,o),
(298,20,o),
(278,20,qs),
(258,20,o),
(231,-7,o),
(231,-27,qs),
(231,-46,o),
(258,-72,o),
(278,-72,qs)
);
}
);
width = 748;
}
);
note = dvKx;
},
{
glyphname = dvGx;
layers = (
{
layerId = m01;
shapes = (
{
closed = 1;
nodes = (
(-29,686,l),
(296,686,l),
(296,402,ls),
(296,356,o),
(254,294,o),
(205,294,qs),
(157,294,o),
(114,355,o),
(114,399,qs),
(114,430,l),
(52,430,l),
(51,420,o),
(51,400,qs),
(51,328,o),
(130,238,o),
(206,238,qs),
(285,238,o),
(360,331,o),
(360,404,qs),
(360,686,l),
(491,686,l),
(491,740,l),
(-29,740,l)
);
},
{
closed = 1;
nodes = (
(232,55,o),
(259,81,o),
(259,100,qs),
(259,120,o),
(232,147,o),
(212,147,qs),
(192,147,o),
(165,120,o),
(165,100,qs),
(165,81,o),
(192,55,o),
(212,55,qs)
);
}
);
width = 462;
}
);
note = dvGx;
},
{
glyphname = dvJx;
layers = (
{
layerId = m01;
shapes = (
{
closed = 1;
nodes = (
(350,139,o),
(450,247,o),
(450,335,qs),
(450,447,l),
(691,447,l),
(691,502,l),
(388,502,l),
(388,335,ls),
(388,273,o),
(321,196,o),
(265,196,qs),
(209,196,o),
(145,273,o),
(145,335,qs),
(145,502,l),
(81,502,l),
(81,335,ls),
(81,247,o),
(178,139,o),
(264,139,qs)
);
},
{
closed = 1;
nodes = (
(-29,686,l),
(691,686,l),
(691,740,l),
(-29,740,l)
);
},
{
closed = 1;
nodes = (
(289,-39,o),
(316,-13,o),
(316,6,qs),
(316,26,o),
(289,53,o),
(269,53,qs),
(249,53,o),
(222,26,o),
(222,6,qs),
(222,-13,o),
(249,-39,o),
(269,-39,qs)
);
}
);
width = 544;
}
);
note = dvJx;
},
{
glyphname = uni20A8;
layers = (
{
layerId = m01;
shapes = (
{
closed = 1;
nodes = (
(455,428,o),
(376,351,o),
(291,351,qs),
(150,351,l),
(150,643,l),
(291,643,ls),
(455,643,o),
(455,496,qs)
);
},
{
closed = 1;
nodes = (
(80,699,l),
(80,0,l),
(150,0,l),
(150,294,l),
(258,294,l),
(450,0,l),
(536,0,l),
(337,297,l),
(432,308,o),
(527,415,o),
(527,496,qs),
(527,587,o),
(408,699,o),
(291,699,qs)
);
},
{
closed = 1;
nodes = (
(600,351,o),
(650,293,o),
(722,265,o),
(780,252,qs),
(830,241,o),
(889,220,o),
(929,179,o),
(929,145,qs),
(929,102,o),
(866,48,o),
(811,48,qs),
(748,48,o),
(674,112,o),
(669,163,q),
(597,163,l),
(604,83,o),
(719,-8,o),
(810,-8,qs),
(865,-8,o),
(950,30,o),
(998,100,o),
(998,144,qs),
(998,197,o),
(947,257,o),
(874,284,o),
(814,298,qs),
(763,310,o),
(707,330,o),
(669,369,o),
(669,402,qs),
(669,444,o),
(733,498,o),
(789,498,qs),
(849,498,o),
(916,434,o),
(921,383,q),
(992,383,l),
(986,462,o),
(879,554,o),
(793,554,qs),
(735,554,o),
(647,514,o),
(600,444,o),
(600,400,qs)
);
}
);
width = 1074;
}
);
note = uni20A8;
unicode = 8360;
},
{
glyphname = uni20B9;
layers = (
{
layerId = m01;
shapes = (
{
closed = 1;
nodes = (
(55,647,l),
(393,647,l),
(393,544,l),
(393,523,l),
(55,523,l),
(55,471,l),
(390,471,l),
(384,412,o),
(333,358,o),
(220,340,o),
(103,340,q),
(103,196,ls),
(103,99,o),
(203,-10,o),
(300,-10,qs),
(393,-10,o),
(493,91,o),
(494,189,q),
(429,189,l),
(429,120,o),
(365,46,o),
(301,46,qs),
(169,46,o),
(169,196,qs),
(169,290,l),
(270,290,o),
(388,323,o),
(447,400,o),
(455,471,q),
(599,471,l),
(599,523,l),
(459,523,l),
(459,543,l),
(459,647,l),
(599,647,l),
(599,700,l),
(55,700,l)
);
}
);
width = 646;
}
);
note = uni20B9;
unicode = 8377;
},
{
glyphname = uni200C;
layers = (
{
layerId = m01;
shapes = (
{
closed = 1;
nodes = (
(24,-230,l),
(24,811,l),
(-23,811,l),
(-23,-230,l)
);
}
);
width = 0;
}
);
note = uni200C;
unicode = 8204;
},
{
glyphname = uni200D;
layers = (
{
layerId = m01;
shapes = (
{
closed = 1;
nodes = (
(128,593,l),
(32,688,l),
(128,784,l),
(96,816,l),
(0,721,l),
(-95,816,l),
(-128,783,l),
(-33,688,l),
(-126,595,l),
(-93,562,l),
(-24,635,l),
(-24,-230,l),
(23,-230,l),
(23,635,l),
(95,560,l)
);
}
);
width = 0;
}
);
note = uni200D;
unicode = 8205;
},
{
glyphname = uni25CC;
layers = (
{
layerId = m01;
shapes = (
{
closed = 1;
nodes = (
(557,428,o),
(533,451,o),
(514,451,qs),
(495,451,o),
(471,428,o),
(471,409,qs),
(471,390,o),
(495,367,o),
(514,367,qs),
(533,367,o),
(557,390,o),
(557,409,qs)
);
},
{
closed = 1;
nodes = (
(181,142,o),
(157,165,o),
(138,165,qs),
(119,165,o),
(95,142,o),
(95,123,qs),
(95,104,o),
(119,81,o),
(138,81,qs),
(157,81,o),
(181,104,o),
(181,123,qs)
);
},
{
closed = 1;
nodes = (
(279,66,o),
(255,89,o),
(236,89,qs),
(217,89,o),
(193,66,o),
(193,47,qs),
(193,28,o),
(217,5,o),
(236,5,qs),
(255,5,o),
(279,28,o),
(279,47,qs)
);
},
{
closed = 1;
nodes = (
(136,255,o),
(112,278,o),
(93,278,qs),
(74,278,o),
(50,255,o),
(50,236,qs),
(50,217,o),
(74,194,o),
(93,194,qs),
(112,194,o),
(136,217,o),
(136,236,qs)
);
},
{
closed = 1;
nodes = (
(403,52,o),
(379,75,o),
(360,75,qs),
(341,75,o),
(317,52,o),
(317,33,qs),
(317,14,o),
(341,-9,o),
(360,-9,qs),
(379,-9,o),
(403,14,o),
(403,33,qs)
);
},
{
closed = 1;
nodes = (
(151,376,o),
(127,399,o),
(108,399,qs),
(89,399,o),
(65,376,o),
(65,357,qs),
(65,338,o),
(89,315,o),
(108,315,qs),
(127,315,o),
(151,338,o),
(151,357,qs)
);
},
{
closed = 1;
nodes = (
(518,98,o),
(494,121,o),
(475,121,qs),
(456,121,o),
(432,98,o),
(432,79,qs),
(432,60,o),
(456,37,o),
(475,37,qs),
(494,37,o),
(518,60,o),
(518,79,qs)
);
},
{
closed = 1;
nodes = (
(227,475,o),
(203,498,o),
(184,498,qs),
(165,498,o),
(141,475,o),
(141,456,qs),
(141,437,o),
(165,414,o),
(184,414,qs),
(203,414,o),
(227,437,o),
(227,456,qs)
);
},
{
closed = 1;
nodes = (
(591,194,o),
(567,217,o),
(548,217,qs),
(529,217,o),
(505,194,o),
(505,175,qs),
(505,156,o),
(529,133,o),
(548,133,qs),
(567,133,o),
(591,156,o),
(591,175,qs)
);
},
{
closed = 1;
nodes = (
(344,517,o),
(320,540,o),
(301,540,qs),
(282,540,o),
(258,517,o),
(258,498,qs),
(258,479,o),
(282,456,o),
(301,456,qs),
(320,456,o),
(344,479,o),
(344,498,qs)
);
},
{
closed = 1;
nodes = (
(601,314,o),
(577,337,o),
(558,337,qs),
(539,337,o),
(515,314,o),
(515,295,qs),
(515,276,o),
(539,253,o),
(558,253,qs),
(577,253,o),
(601,276,o),
(601,295,qs)
);
},
{
closed = 1;
nodes = (
(465,502,o),
(441,525,o),
(422,525,qs),
(403,525,o),
(379,502,o),
(379,483,qs),
(379,464,o),
(403,441,o),
(422,441,qs),
(441,441,o),
(465,464,o),
(465,483,qs)
);
}
);
width = 651;
}
);
note = uni25CC;
unicode = 9676;
},
{
glyphname = dvEyelash;
layers = (
{
layerId = m01;
shapes = (
{
closed = 1;
nodes = (
(345,438,l),
(344,438,l),
(304,427,o),
(270,427,qs),
(197,427,o),
(92,496,o),
(91,570,q),
(30,570,l),
(31,471,o),
(168,379,o),
(262,379,qs),
(293,379,o),
(350,390,o),
(366,398,q)
);
},
{
closed = 1;
nodes = (
(-29,686,l),
(345,686,l),
(345,740,l),
(-29,740,l)
);
}
);
width = 278;
}
);
note = dvEyelash;
},
{
glyphname = dvRashtrasign;
layers = (
{
layerId = m01;
shapes = (
{
closed = 1;
nodes = (
(-435,-97,l),
(-367,-97,l),
(-221,57,l),
(-75,-97,l),
(-6,-97,l),
(-178,82,l),
(-264,82,l)
);
}
);
width = 0;
}
);
note = dvRashtrasign;
},
{
glyphname = dvKx_RA;
layers = (
{
layerId = m01;
shapes = (
{
closed = 1;
nodes = (
(515,0,l),
(577,0,l),
(577,330,ls),
(577,375,o),
(611,458,o),
(685,511,o),
(740,511,qs),
(785,511,o),
(860,469,o),
(903,391,o),
(903,339,qs),
(903,257,o),
(813,163,o),
(744,163,qs),
(715,163,o),
(697,168,q),
(697,116,l),
(727,109,o),
(758,109,qs),
(818,109,o),
(913,164,o),
(967,269,o),
(967,340,qs),
(967,407,o),
(912,509,o),
(817,566,o),
(757,566,qs),
(690,566,o),
(599,504,o),
(577,453,q),
(577,686,l),
(1071,686,l),
(1071,740,l),
(-29,740,l),
(-29,686,l),
(515,686,l),
(515,455,l),
(492,505,o),
(399,566,o),
(330,566,qs),
(268,566,o),
(170,510,o),
(114,407,o),
(114,339,qs),
(114,270,o),
(170,167,o),
(267,111,o),
(328,111,qs),
(342,111,o),
(348,112,q),
(181,-46,l),
(252,-46,l),
(466,157,l),
(498,184,o),
(515,223,q)
);
},
{
closed = 1;
nodes = (
(273,161,o),
(178,256,o),
(178,338,qs),
(178,391,o),
(223,469,o),
(299,511,o),
(346,511,qs),
(403,511,o),
(479,460,o),
(515,380,o),
(515,336,qs),
(515,335,ls),
(515,290,o),
(473,205,o),
(432,182,q),
(426,185,l),
(413,173,l),
(385,161,o),
(346,161,qs)
);
},
{
closed = 1;
nodes = (
(107,19,o),
(132,43,o),
(132,62,qs),
(132,82,o),
(107,107,o),
(87,107,qs),
(68,107,o),
(42,82,o),
(42,62,qs),
(42,43,o),
(67,19,o),
(87,19,qs)
);
}
);
width = 1042;
}
);
note = dvKx_RA;
},
{
glyphname = dvGx_RA;
layers = (
{
layerId = m01;
shapes = (
{
closed = 1;
nodes = (
(553,0,l),
(615,0,l),
(615,686,l),
(756,686,l),
(756,740,l),
(-29,740,l),
(-29,686,l),
(296,686,l),
(296,451,ls),
(296,405,o),
(254,343,o),
(205,343,qs),
(157,343,o),
(114,405,o),
(114,449,qs),
(114,480,l),
(52,480,l),
(51,470,o),
(51,449,qs),
(51,378,o),
(130,288,o),
(206,288,qs),
(284,288,o),
(360,380,o),
(360,453,qs),
(360,686,l),
(552,686,l),
(552,335,l),
(191,-20,l),
(266,-20,l),
(553,268,l)
);
},
{
closed = 1;
nodes = (
(115,70,o),
(140,94,o),
(140,113,qs),
(140,133,o),
(115,158,o),
(95,158,qs),
(76,158,o),
(50,133,o),
(50,113,qs),
(50,94,o),
(75,70,o),
(95,70,qs)
);
}
);
width = 727;
}
);
note = dvGx_RA;
},
{
glyphname = dvJx_RA;
layers = (
{
layerId = m01;
shapes = (
{
closed = 1;
nodes = (
(-29,686,l),
(663,686,l),
(663,504,l),
(388,504,l),
(388,405,ls),
(388,342,o),
(322,266,o),
(265,266,qs),
(209,266,o),
(145,342,o),
(145,405,qs),
(145,504,l),
(81,504,l),
(81,405,ls),
(81,317,o),
(178,209,o),
(264,209,qs),
(350,209,o),
(448,317,o),
(448,405,qs),
(448,451,l),
(663,451,l),
(663,328,l),
(310,-30,l),
(382,-30,l),
(664,262,l),
(664,0,l),
(724,0,l),
(724,686,l),
(864,686,l),
(864,740,l),
(-29,740,l)
);
},
{
closed = 1;
nodes = (
(162,4,o),
(187,28,o),
(187,47,qs),
(187,67,o),
(162,92,o),
(142,92,qs),
(123,92,o),
(97,67,o),
(97,47,qs),
(97,28,o),
(122,4,o),
(142,4,qs)
);
}
);
width = 835;
}
);
note = dvJx_RA;
},
{
glyphname = dvKx_R;
layers = (
{
layerId = m01;
shapes = (
{
closed = 1;
nodes = (
(515,0,l),
(577,0,l),
(577,330,ls),
(577,375,o),
(611,458,o),
(685,511,o),
(740,511,qs),
(785,511,o),
(860,469,o),
(903,391,o),
(903,339,q),
(967,339,l),
(967,406,o),
(912,509,o),
(817,566,o),
(757,566,qs),
(690,566,o),
(599,504,o),
(577,453,q),
(577,686,l),
(967,686,l),
(967,740,l),
(-29,740,l),
(-29,686,l),
(515,686,l),
(515,455,l),
(492,505,o),
(399,566,o),
(330,566,qs),
(268,566,o),
(170,510,o),
(114,407,o),
(114,339,qs),
(114,270,o),
(170,167,o),
(267,111,o),
(328,111,qs),
(342,111,o),
(348,112,q),
(181,-46,l),
(252,-46,l),
(466,157,l),
(498,184,o),
(515,223,q)
);
},
{
closed = 1;
nodes = (
(273,161,o),
(178,256,o),
(178,338,qs),
(178,391,o),
(223,469,o),
(299,511,o),
(346,511,qs),
(403,511,o),
(479,460,o),
(515,380,o),
(515,336,qs),
(515,335,ls),
(515,290,o),
(473,205,o),
(432,182,q),
(426,185,l),
(413,173,l),
(385,161,o),
(346,161,qs)
);
},
{
closed = 1;
nodes = (
(107,19,o),
(132,43,o),
(132,62,qs),
(132,82,o),
(107,107,o),
(87,107,qs),
(68,107,o),
(42,82,o),
(42,62,qs),
(42,43,o),
(67,19,o),
(87,19,qs)
);
}
);
width = 787;
}
);
note = dvKx_R;
},
{
glyphname = dvGx_R;
layers = (
{
layerId = m01;
shapes = (
{
closed = 1;
nodes = (
(564,279,l),
(564,347,l),
(191,-20,l),
(266,-20,l)
);
},
{
closed = 1;
nodes = (
(-29,686,l),
(296,686,l),
(296,451,ls),
(296,405,o),
(254,343,o),
(205,343,qs),
(157,343,o),
(114,405,o),
(114,449,qs),
(114,480,l),
(52,480,l),
(51,470,o),
(51,449,qs),
(51,378,o),
(130,288,o),
(206,288,qs),
(284,288,o),
(360,380,o),
(360,453,qs),
(360,686,l),
(564,686,l),
(564,740,l),
(-29,740,l)
);
},
{
closed = 1;
nodes = (
(115,70,o),
(140,94,o),
(140,113,qs),
(140,133,o),
(115,158,o),
(95,158,qs),
(76,158,o),
(50,133,o),
(50,113,qs),
(50,94,o),
(75,70,o),
(95,70,qs)
);
}
);
width = 462;
}
);
note = dvGx_R;
},
{
glyphname = dvJx_R;
layers = (
{
layerId = m01;
shapes = (
{
closed = 1;
nodes = (
(310,-30,l),
(382,-30,l),
(691,291,l),
(691,358,l)
);
},
{
closed = 1;
nodes = (
(-29,686,l),
(691,686,l),
(691,740,l),
(-29,740,l)
);
},
{
closed = 1;
nodes = (
(350,209,o),
(448,317,o),
(448,405,qs),
(448,448,l),
(691,448,l),
(691,504,l),
(388,504,l),
(388,405,ls),
(388,342,o),
(322,266,o),
(265,266,qs),
(209,266,o),
(145,342,o),
(145,405,qs),
(145,504,l),
(81,504,l),
(81,405,ls),
(81,317,o),
(178,209,o),
(264,209,qs)
);
},
{
closed = 1;
nodes = (
(162,4,o),
(187,28,o),
(187,47,qs),
(187,67,o),
(162,92,o),
(142,92,qs),
(123,92,o),
(97,67,o),
(97,47,qs),
(97,28,o),
(122,4,o),
(142,4,qs)
);
}
);
width = 544;
}
);
note = dvJx_R;
},
{
glyphname = dvKx_KxA;
layers = (
{
layerId = m01;
shapes = (
{
closed = 1;
nodes = (
(234,161,o),
(139,256,o),
(139,338,qs),
(139,390,o),
(184,469,o),
(261,511,o),
(307,511,qs),
(364,511,o),
(440,460,o),
(476,380,o),
(476,336,qs),
(476,335,ls),
(476,294,o),
(439,213,o),
(363,161,o),
(307,161,qs)
);
},
{
closed = 1;
nodes = (
(298,-72,o),
(325,-46,o),
(325,-27,qs),
(325,-7,o),
(298,20,o),
(278,20,qs),
(258,20,o),
(231,-7,o),
(231,-27,qs),
(231,-46,o),
(258,-72,o),
(278,-72,qs)
);
},
{
closed = 1;
nodes = (
(1072,-72,o),
(1099,-46,o),
(1099,-27,qs),
(1099,-7,o),
(1072,20,o),
(1052,20,qs),
(1032,20,o),
(1005,-7,o),
(1005,-27,qs),
(1005,-46,o),
(1032,-72,o),
(1052,-72,qs)
);
},
{
closed = 1;
nodes = (
(537,686,l),
(1250,686,l),
(1250,453,l),
(1227,504,o),
(1135,566,o),
(1065,566,qs),
(1004,566,o),
(907,512,o),
(878,463,q),
(854,512,o),
(767,566,o),
(710,566,qs),
(643,566,o),
(557,505,o),
(537,454,q)
);
},
{
closed = 1;
nodes = (
(1250,0,l),
(1311,0,l),
(1311,330,ls),
(1311,375,o),
(1346,458,o),
(1420,511,o),
(1475,511,qs),
(1520,511,o),
(1595,469,o),
(1638,391,o),
(1638,339,qs),
(1638,257,o),
(1548,163,o),
(1478,163,qs),
(1450,163,o),
(1432,168,q),
(1432,116,l),
(1462,109,o),
(1493,109,qs),
(1553,109,o),
(1648,164,o),
(1702,269,o),
(1702,340,qs),
(1702,407,o),
(1647,509,o),
(1552,566,o),
(1492,566,qs),
(1424,566,o),
(1333,502,o),
(1311,450,q),
(1311,686,l),
(1805,686,l),
(1805,740,l),
(-29,740,l),
(-29,686,l),
(476,686,l),
(476,453,l),
(453,504,o),
(361,566,o),
(291,566,qs),
(229,566,o),
(130,510,o),
(74,407,o),
(74,339,qs),
(74,268,o),
(129,163,o),
(227,106,o),
(289,106,qs),
(358,106,o),
(454,170,o),
(476,221,q),
(476,0,l),
(537,0,l),
(537,330,ls),
(537,404,o),
(613,511,o),
(694,511,qs),
(762,511,o),
(848,417,o),
(848,339,qs),
(848,268,o),
(903,163,o),
(1001,106,o),
(1063,106,qs),
(1132,106,o),
(1228,170,o),
(1250,221,q)
);
},
{
closed = 1;
nodes = (
(1008,161,o),
(913,256,o),
(913,338,qs),
(913,390,o),
(958,469,o),
(1035,511,o),
(1081,511,qs),
(1138,511,o),
(1214,460,o),
(1250,380,o),
(1250,336,qs),
(1250,335,ls),
(1250,294,o),
(1213,213,o),
(1137,161,o),
(1081,161,qs)
);
}
);
width = 1776;
}
);
note = dvKx_KxA;
},
{
glyphname = dvKx_TA;
layers = (
{
layerId = m01;
shapes = (
{
closed = 1;
nodes = (
(638,560,o),
(556,501,o),
(537,453,q),
(537,686,l),
(1261,686,l),
(1261,499,l),
(1106,499,ls),
(950,499,o),
(876,416,q),
(862,487,o),
(767,560,o),
(701,560,qs)
);
},
{
closed = 1;
nodes = (
(234,161,o),
(139,256,o),
(139,338,qs),
(139,390,o),
(184,469,o),
(261,511,o),
(307,511,qs),
(364,511,o),
(440,460,o),
(476,380,o),
(476,336,qs),
(476,335,ls),
(476,294,o),
(439,213,o),
(363,161,o),
(307,161,qs)
);
},
{
closed = 1;
nodes = (
(298,-72,o),
(325,-46,o),
(325,-27,qs),
(325,-7,o),
(298,20,o),
(278,20,qs),
(258,20,o),
(231,-7,o),
(231,-27,qs),
(231,-46,o),
(258,-72,o),
(278,-72,qs)
);
},
{
closed = 1;
nodes = (
(537,330,ls),
(537,402,o),
(609,507,o),
(686,507,qs),
(752,507,o),
(832,407,o),
(825,309,q),
(820,279,o),
(820,250,qs),
(820,130,o),
(960,2,o),
(1080,2,qs),
(1111,2,l),
(1111,54,l),
(1088,54,ls),
(990,54,o),
(885,156,o),
(885,249,qs),
(885,346,o),
(1004,444,o),
(1108,444,qs),
(1261,444,l),
(1261,0,l),
(1324,0,l),
(1324,686,l),
(1465,686,l),
(1465,740,l),
(-29,740,l),
(-29,686,l),
(476,686,l),
(476,453,l),
(453,504,o),
(361,566,o),
(291,566,qs),
(229,566,o),
(130,510,o),
(74,407,o),
(74,339,qs),
(74,268,o),
(129,163,o),
(227,106,o),
(289,106,qs),
(358,106,o),
(454,170,o),
(476,221,q),
(476,0,l),
(537,0,l)
);
}
);
width = 1436;
}
);
note = dvKx_TA;
},
{
glyphname = dvKx_PHA;
layers = (
{
layerId = m01;
shapes = (
{
closed = 1;
nodes = (
(537,686,l),
(837,686,l),
(837,520,l),
(785,564,o),
(710,564,qs),
(643,564,o),
(557,504,o),
(537,453,q)
);
},
{
closed = 1;
nodes = (
(234,161,o),
(139,256,o),
(139,338,qs),
(139,390,o),
(184,469,o),
(261,511,o),
(307,511,qs),
(364,511,o),
(440,460,o),
(476,380,o),
(476,336,qs),
(476,335,ls),
(476,294,o),
(439,213,o),
(363,161,o),
(307,161,qs)
);
},
{
closed = 1;
nodes = (
(977,262,o),
(901,360,o),
(901,449,qs),
(901,686,l),
(1203,686,l),
(1203,424,ls),
(1203,355,o),
(1123,262,o),
(1054,262,qs)
);
},
{
closed = 1;
nodes = (
(537,330,ls),
(537,404,o),
(613,511,o),
(694,511,qs),
(747,511,o),
(824,453,o),
(839,402,q),
(850,310,o),
(952,207,o),
(1040,207,qs),
(1097,207,o),
(1180,256,o),
(1203,300,q),
(1203,0,l),
(1266,0,l),
(1266,324,ls),
(1266,372,o),
(1301,457,o),
(1377,511,o),
(1433,511,qs),
(1478,511,o),
(1552,469,o),
(1595,391,o),
(1595,339,qs),
(1595,257,o),
(1506,162,o),
(1436,162,qs),
(1409,162,o),
(1388,168,q),
(1388,117,l),
(1414,109,o),
(1450,109,qs),
(1510,109,o),
(1606,164,o),
(1660,269,o),
(1660,341,qs),
(1660,408,o),
(1605,510,o),
(1509,566,o),
(1450,566,qs),
(1381,566,o),
(1288,502,o),
(1266,450,q),
(1266,686,l),
(1763,686,l),
(1763,740,l),
(-29,740,l),
(-29,686,l),
(476,686,l),
(476,453,l),
(453,504,o),
(361,566,o),
(291,566,qs),
(229,566,o),
(130,510,o),
(74,407,o),
(74,339,qs),
(74,268,o),
(129,163,o),
(227,106,o),
(289,106,qs),
(358,106,o),
(454,170,o),
(476,221,q),
(476,0,l),
(537,0,l)
);
},
{
closed = 1;
nodes = (
(298,-72,o),
(325,-46,o),
(325,-27,qs),
(325,-7,o),
(298,20,o),
(278,20,qs),
(258,20,o),
(231,-7,o),
(231,-27,qs),
(231,-46,o),
(258,-72,o),
(278,-72,qs)
);
}
);
width = 1734;
}
);
note = dvKx_PHA;
},
{
glyphname = dvKx_PHxA;
layers = (
{
layerId = m01;
shapes = (
{
closed = 1;
nodes = (
(537,686,l),
(838,686,l),
(838,519,l),
(785,564,o),
(710,564,qs),
(643,564,o),
(557,504,o),
(537,453,q)
);
},
{
closed = 1;
nodes = (
(234,161,o),
(139,256,o),
(139,338,qs),
(139,390,o),
(184,469,o),
(261,511,o),
(307,511,qs),
(364,511,o),
(440,460,o),
(476,380,o),
(476,336,qs),
(476,335,ls),
(476,294,o),
(439,213,o),
(363,161,o),
(307,161,qs)
);
},
{
closed = 1;
nodes = (
(298,-72,o),
(325,-46,o),
(325,-27,qs),
(325,-7,o),
(298,20,o),
(278,20,qs),
(258,20,o),
(231,-7,o),
(231,-27,qs),
(231,-46,o),
(258,-72,o),
(278,-72,qs)
);
},
{
closed = 1;
nodes = (
(1037,31,o),
(1064,57,o),
(1064,76,qs),
(1064,96,o),
(1037,123,o),
(1017,123,qs),
(997,123,o),
(970,96,o),
(970,76,qs),
(970,57,o),
(997,31,o),
(1017,31,qs)
);
},
{
closed = 1;
nodes = (
(978,262,o),
(902,360,o),
(902,449,qs),
(902,686,l),
(1204,686,l),
(1204,424,ls),
(1204,355,o),
(1124,262,o),
(1055,262,qs)
);
},
{
closed = 1;
nodes = (
(537,330,ls),
(537,404,o),
(613,511,o),
(694,511,qs),
(748,511,o),
(827,450,o),
(841,396,q),
(853,307,o),
(954,207,o),
(1041,207,qs),
(1098,207,o),
(1181,256,o),
(1204,300,q),
(1204,0,l),
(1267,0,l),
(1267,324,ls),
(1267,372,o),
(1302,457,o),
(1378,511,o),
(1434,511,qs),
(1479,511,o),
(1553,469,o),
(1596,391,o),
(1596,339,qs),
(1596,257,o),
(1507,162,o),
(1437,162,qs),
(1410,162,o),
(1389,168,q),
(1389,117,l),
(1415,109,o),
(1451,109,qs),
(1511,109,o),
(1607,164,o),
(1661,269,o),
(1661,341,qs),
(1661,408,o),
(1606,510,o),
(1510,566,o),
(1451,566,qs),
(1382,566,o),
(1289,502,o),
(1267,450,q),
(1267,686,l),
(1764,686,l),
(1764,740,l),
(-29,740,l),
(-29,686,l),
(476,686,l),
(476,453,l),
(453,504,o),
(361,566,o),
(291,566,qs),
(229,566,o),
(130,510,o),
(74,407,o),
(74,339,qs),
(74,268,o),
(129,163,o),
(227,106,o),
(289,106,qs),
(358,106,o),
(454,170,o),
(476,221,q),
(476,0,l),
(537,0,l)
);
}
);
width = 1735;
}
);
note = dvKx_PHxA;
},
{
glyphname = dvKx_BA;
layers = (
{
layerId = m01;
shapes = (
{
closed = 1;
nodes = (
(537,686,l),
(1290,686,l),
(1290,458,l),
(1264,510,o),
(1161,576,o),
(1088,576,qs),
(1020,576,o),
(910,516,o),
(879,461,q),
(855,511,o),
(767,566,o),
(710,566,qs),
(643,566,o),
(557,505,o),
(537,454,q)
);
},
{
closed = 1;
nodes = (
(234,161,o),
(139,256,o),
(139,338,qs),
(139,390,o),
(184,469,o),
(261,511,o),
(307,511,qs),
(364,511,o),
(440,460,o),
(476,380,o),
(476,336,qs),
(476,335,ls),
(476,294,o),
(439,213,o),
(363,161,o),
(307,161,qs)
);
},
{
closed = 1;
nodes = (
(1290,0,l),
(1352,0,l),
(1352,686,l),
(1492,686,l),
(1492,740,l),
(-29,740,l),
(-29,686,l),
(476,686,l),
(476,453,l),
(453,504,o),
(361,566,o),
(291,566,qs),
(229,566,o),
(130,510,o),
(74,407,o),
(74,339,qs),
(74,268,o),
(129,163,o),
(227,106,o),
(289,106,qs),
(358,106,o),
(454,170,o),
(476,221,q),
(476,0,l),
(537,0,l),
(537,330,ls),
(537,404,o),
(613,511,o),
(694,511,qs),
(762,511,o),
(848,417,o),
(848,339,qs),
(848,337,ls),
(848,266,o),
(913,158,o),
(1024,100,o),
(1091,100,qs),
(1163,100,o),
(1265,164,o),
(1290,215,q)
);
},
{
closed = 1;
nodes = (
(298,-72,o),
(325,-46,o),
(325,-27,qs),
(325,-7,o),
(298,20,o),
(278,20,qs),
(258,20,o),
(231,-7,o),
(231,-27,qs),
(231,-46,o),
(258,-72,o),
(278,-72,qs)
);
},
{
closed = 1;
nodes = (
(1162,531,o),
(1249,475,o),
(1293,387,o),
(1293,339,qs),
(1293,309,o),
(1274,247,o),
(1255,222,q),
(966,483,l),
(1020,531,o),
(1100,531,qs)
);
},
{
closed = 1;
nodes = (
(1048,148,o),
(958,193,o),
(905,279,o),
(905,337,qs),
(905,407,o),
(944,459,q),
(1235,198,l),
(1183,148,o),
(1102,148,qs)
);
}
);
width = 1463;
}
);
note = dvKx_BA;
},
{
glyphname = dvKx_MA;
layers = (
{
layerId = m01;
shapes = (
{
closed = 1;
nodes = (
(643,564,o),
(557,503,o),
(537,453,q),
(537,686,l),
(1124,686,l),
(1124,451,l),
(1021,451,ls),
(947,451,o),
(899,415,q),
(881,485,o),
(782,564,o),
(710,564,qs)
);
},
{
closed = 1;
nodes = (
(234,161,o),
(139,256,o),
(139,338,qs),
(139,390,o),
(184,469,o),
(261,511,o),
(307,511,qs),
(364,511,o),
(440,460,o),
(476,380,o),
(476,336,qs),
(476,335,ls),
(476,294,o),
(439,213,o),
(363,161,o),
(307,161,qs)
);
},
{
closed = 1;
nodes = (
(298,-72,o),
(325,-46,o),
(325,-27,qs),
(325,-7,o),
(298,20,o),
(278,20,qs),
(258,20,o),
(231,-7,o),
(231,-27,qs),
(231,-46,o),
(258,-72,o),
(278,-72,qs)
);
},
{
closed = 1;
nodes = (
(961,166,o),
(896,229,o),
(896,281,qs),
(896,335,o),
(966,398,o),
(1022,398,qs),
(1124,398,l),
(1124,310,ls),
(1124,242,o),
(1064,166,o),
(1011,166,qs)
);
},
{
closed = 1;
nodes = (
(1381,451,l),
(1184,451,l),
(1184,686,l),
(1381,686,l)
);
},
{
closed = 1;
nodes = (
(537,330,ls),
(537,404,o),
(613,511,o),
(694,511,qs),
(759,511,o),
(845,423,o),
(848,348,q),
(836,318,o),
(836,281,qs),
(836,205,o),
(932,111,o),
(1011,111,qs),
(1094,111,o),
(1184,215,o),
(1184,313,qs),
(1184,398,l),
(1381,398,l),
(1381,0,l),
(1445,0,l),
(1445,686,l),
(1586,686,l),
(1586,740,l),
(-29,740,l),
(-29,686,l),
(476,686,l),
(476,453,l),
(453,504,o),
(361,566,o),
(291,566,qs),
(229,566,o),
(130,510,o),
(74,407,o),
(74,339,qs),
(74,268,o),
(129,163,o),
(227,106,o),
(289,106,qs),
(358,106,o),
(454,170,o),
(476,221,q),
(476,0,l),
(537,0,l)
);
}
);
width = 1553;
}
);
note = dvKx_MA;
},
{
glyphname = dvJx_JxA;
layers = (
{
layerId = m01;
shapes = (
{
closed = 1;
nodes = (
(289,-39,o),
(316,-13,o),
(316,6,qs),
(316,26,o),
(289,53,o),
(269,53,qs),
(249,53,o),
(222,26,o),
(222,6,qs),
(222,-13,o),
(249,-39,o),
(269,-39,qs)
);
},
{
closed = 1;
nodes = (
(858,-39,o),
(885,-13,o),
(885,6,qs),
(885,26,o),
(858,53,o),
(838,53,qs),
(818,53,o),
(791,26,o),
(791,6,qs),
(791,-13,o),
(818,-39,o),
(838,-39,qs)
);
},
{
closed = 1;
nodes = (
(1293,0,l),
(1293,686,l),
(1433,686,l),
(1433,740,l),
(-29,740,l),
(-29,686,l),
(1229,686,l),
(1229,502,l),
(957,502,l),
(957,335,ls),
(957,273,o),
(890,196,o),
(834,196,qs),
(778,196,o),
(714,273,o),
(714,335,qs),
(714,502,l),
(388,502,l),
(388,335,ls),
(388,273,o),
(321,196,o),
(265,196,qs),
(209,196,o),
(145,273,o),
(145,335,qs),
(145,502,l),
(81,502,l),
(81,335,ls),
(81,247,o),
(178,139,o),
(264,139,qs),
(350,139,o),
(450,247,o),
(450,335,qs),
(450,447,l),
(650,447,l),
(650,335,ls),
(650,247,o),
(747,139,o),
(833,139,qs),
(919,139,o),
(1019,247,o),
(1019,335,qs),
(1019,447,l),
(1229,447,l),
(1229,0,l)
);
}
);
width = 1405;
}
);
note = dvJx_JxA;
},
{
glyphname = dvJx_YA;
layers = (
{
layerId = m01;
shapes = (
{
closed = 1;
nodes = (
(807,174,o),
(695,301,o),
(695,413,qs),
(695,421,l),
(793,424,o),
(901,512,o),
(901,601,qs),
(901,686,l),
(1116,686,l),
(1116,370,ls),
(1116,312,o),
(1060,223,o),
(965,174,o),
(907,174,qs)
);
},
{
closed = 1;
nodes = (
(1116,0,l),
(1181,0,l),
(1181,686,l),
(1321,686,l),
(1321,740,l),
(-29,740,l),
(-29,686,l),
(838,686,l),
(838,611,ls),
(838,532,o),
(741,468,o),
(650,468,qs),
(388,468,l),
(388,335,ls),
(388,273,o),
(321,196,o),
(265,196,qs),
(209,196,o),
(145,273,o),
(145,335,qs),
(145,468,l),
(81,468,l),
(81,335,ls),
(81,247,o),
(178,139,o),
(264,139,qs),
(350,139,o),
(450,247,o),
(450,335,qs),
(450,414,l),
(606,414,l),
(632,414,l),
(634,278,o),
(772,119,o),
(895,119,qs),
(975,119,o),
(1088,184,o),
(1116,236,q)
);
},
{
closed = 1;
nodes = (
(289,-39,o),
(316,-13,o),
(316,6,qs),
(316,26,o),
(289,53,o),
(269,53,qs),
(249,53,o),
(222,26,o),
(222,6,qs),
(222,-13,o),
(249,-39,o),
(269,-39,qs)
);
}
);
width = 1292;
}
);
note = dvJx_YA;
},
{
glyphname = dvEyelash_YA;
layers = (
{
layerId = m01;
shapes = (
{
closed = 1;
nodes = (
(427,174,o),
(315,293,o),
(315,396,qs),
(315,407,l),
(415,409,o),
(521,502,o),
(521,601,qs),
(521,686,l),
(737,686,l),
(737,370,ls),
(737,312,o),
(681,223,o),
(585,174,o),
(527,174,qs)
);
},
{
closed = 1;
nodes = (
(737,0,l),
(801,0,l),
(801,686,l),
(941,686,l),
(941,740,l),
(-29,740,l),
(-29,686,l),
(458,686,l),
(458,611,ls),
(458,520,o),
(362,445,o),
(271,445,qs),
(199,446,o),
(94,514,o),
(94,586,q),
(34,586,l),
(35,492,o),
(161,399,o),
(252,395,q),
(254,267,o),
(392,119,o),
(515,119,qs),
(596,119,o),
(709,185,o),
(737,237,q)
);
}
);
width = 912;
}
);
note = dvEyelash_YA;
},
{
glyphname = dvEyelash_HA;
layers = (
{
layerId = m01;
shapes = (
{
closed = 1;
nodes = (
(627,58,l),
(615,16,o),
(534,-48,o),
(471,-48,qs),
(393,-48,o),
(306,45,o),
(306,116,qs),
(306,186,o),
(393,280,o),
(471,280,qs),
(536,280,o),
(617,216,o),
(627,173,q),
(689,173,l),
(676,239,o),
(567,332,o),
(472,332,qs),
(440,332,o),
(413,326,q),
(375,337,o),
(330,385,o),
(330,420,qs),
(330,466,o),
(397,509,o),
(449,509,qs),
(635,509,l),
(635,686,l),
(779,686,l),
(779,740,l),
(-29,740,l),
(-29,686,l),
(573,686,l),
(573,556,l),
(430,556,ls),
(357,556,o),
(267,493,o),
(267,430,qs),
(267,383,o),
(297,348,q),
(275,342,o),
(246,342,qs),
(183,342,o),
(94,408,o),
(94,479,q),
(34,479,l),
(34,415,o),
(93,330,o),
(185,290,o),
(236,290,qs),
(295,290,o),
(343,313,q),
(356,307,l),
(302,281,o),
(243,181,o),
(243,117,qs),
(243,55,o),
(295,-44,o),
(398,-102,o),
(471,-102,qs),
(533,-102,o),
(625,-57,o),
(681,16,o),
(689,58,q)
);
}
);
width = 750;
}
);
note = dvEyelash_HA;
},
{
glyphname = dvmII.aLong;
layers = (
{
layerId = m01;
shapes = (
{
closed = 1;
nodes = (
(-526,724,l),
(-465,724,l),
(-465,749,ls),
(-465,839,o),
(-340,948,o),
(-174,948,qs),
(-9,948,o),
(113,839,o),
(113,749,qs),
(113,740,l),
(-29,740,l),
(-29,686,l),
(112,686,l),
(112,0,l),
(175,0,l),
(175,686,l),
(316,686,l),
(316,740,l),
(175,740,l),
(175,753,ls),
(175,868,o),
(18,1002,o),
(-174,1002,qs),
(-526,1002,o),
(-526,753,qs)
);
}
);
width = 287;
}
);
note = dvmII.aLong;
},
{
glyphname = dvmII_Anusvara;
layers = (
{
layerId = m01;
shapes = (
{
closed = 1;
nodes = (
(-175,724,l),
(-113,724,l),
(-113,783,ls),
(-113,848,o),
(-60,933,o),
(1,933,qs),
(62,933,o),
(113,848,o),
(113,783,qs),
(113,740,l),
(-29,740,l),
(-29,686,l),
(112,686,l),
(112,0,l),
(175,0,l),
(175,686,l),
(316,686,l),
(316,740,l),
(175,740,l),
(175,781,ls),
(175,875,o),
(93,987,o),
(1,987,qs),
(-90,987,o),
(-175,874,o),
(-175,781,qs)
);
},
{
closed = 1;
nodes = (
(311,837,o),
(338,864,o),
(338,884,qs),
(338,904,o),
(311,930,o),
(291,930,qs),
(271,930,o),
(244,904,o),
(244,884,qs),
(244,864,o),
(271,837,o),
(291,837,qs)
);
}
);
width = 287;
}
);
note = dvmII_Anusvara;
},
{
glyphname = dvmII_Reph;
layers = (
{
layerId = m01;
shapes = (
{
closed = 1;
nodes = (
(-175,724,l),
(-113,724,l),
(-113,783,ls),
(-113,848,o),
(-60,933,o),
(1,933,qs),
(62,933,o),
(113,848,o),
(113,783,qs),
(113,740,l),
(-29,740,l),
(-29,686,l),
(112,686,l),
(112,0,l),
(175,0,l),
(175,686,l),
(316,686,l),
(316,740,l),
(175,740,l),
(175,821,ls),
(175,867,o),
(216,921,o),
(254,921,qs),
(290,921,o),
(330,874,o),
(328,832,q),
(385,832,l),
(389,899,o),
(324,973,o),
(267,973,qs),
(223,973,o),
(167,930,o),
(155,894,q),
(117,987,o),
(1,987,qs),
(-90,987,o),
(-175,874,o),
(-175,781,qs)
);
}
);
width = 287;
}
);
note = dvmII_Reph;
},
{
glyphname = dvmII_Reph_Anusvara;
layers = (
{
layerId = m01;
shapes = (
{
closed = 1;
nodes = (
(-175,724,l),
(-113,724,l),
(-113,783,ls),
(-113,848,o),
(-60,933,o),
(1,933,qs),
(62,933,o),
(113,848,o),
(113,783,qs),
(113,740,l),
(-29,740,l),
(-29,686,l),
(112,686,l),
(112,0,l),
(175,0,l),
(175,686,l),
(316,686,l),
(316,740,l),
(175,740,l),
(175,818,ls),
(175,869,o),
(223,927,o),
(264,927,qs),
(303,927,o),
(348,880,o),
(347,840,q),
(399,840,l),
(403,902,o),
(335,979,o),
(275,979,qs),
(229,979,o),
(167,934,o),
(155,895,q),
(116,987,o),
(1,987,qs),
(-90,987,o),
(-175,874,o),
(-175,781,qs)
);
},
{
closed = 1;
nodes = (
(280,792,o),
(304,815,o),
(304,832,qs),
(304,849,o),
(280,872,o),
(263,872,qs),
(246,872,o),
(223,849,o),
(223,832,qs),
(223,815,o),
(246,792,o),
(263,792,qs)
);
}
);
width = 287;
}
);
note = dvmII_Reph_Anusvara;
},
{
glyphname = dvmII_Anusvara.aLong;
layers = (
{
layerId = m01;
shapes = (
{
closed = 1;
nodes = (
(-526,724,l),
(-465,724,l),
(-465,749,ls),
(-465,839,o),
(-340,948,o),
(-174,948,qs),
(-9,948,o),
(113,839,o),
(113,749,qs),
(113,740,l),
(-29,740,l),
(-29,686,l),
(112,686,l),
(112,0,l),
(175,0,l),
(175,686,l),
(316,686,l),
(316,740,l),
(175,740,l),
(175,753,ls),
(175,868,o),
(18,1002,o),
(-174,1002,qs),
(-526,1002,o),
(-526,753,qs)
);
},
{
closed = 1;
nodes = (
(311,837,o),
(338,864,o),
(338,884,qs),
(338,904,o),
(311,930,o),
(291,930,qs),
(271,930,o),
(244,904,o),
(244,884,qs),
(244,864,o),
(271,837,o),
(291,837,qs)
);
}
);
width = 287;
}
);
note = dvmII_Anusvara.aLong;
},
{
glyphname = dvmII_Reph.aLong;
layers = (
{
layerId = m01;
shapes = (
{
closed = 1;
nodes = (
(-526,724,l),
(-465,724,l),
(-465,749,ls),
(-465,839,o),
(-340,948,o),
(-174,948,qs),
(-9,948,o),
(113,839,o),
(113,749,qs),
(113,740,l),
(-29,740,l),
(-29,686,l),
(112,686,l),
(112,0,l),
(175,0,l),
(175,686,l),
(316,686,l),
(316,740,l),
(175,740,l),
(175,821,ls),
(175,867,o),
(216,921,o),
(254,921,qs),
(290,921,o),
(330,874,o),
(328,832,q),
(385,832,l),
(389,899,o),
(324,973,o),
(267,973,qs),
(216,973,o),
(157,916,o),
(150,870,q),
(83,1002,o),
(-174,1002,qs),
(-526,1002,o),
(-526,753,qs)
);
}
);
width = 287;
}
);
note = dvmII_Reph.aLong;
},
{
glyphname = dvmII_Reph_Anusvara.aLong;
layers = (
{
layerId = m01;
shapes = (
{
closed = 1;
nodes = (
(-526,724,l),
(-465,724,l),
(-465,749,ls),
(-465,839,o),
(-340,948,o),
(-174,948,qs),
(-9,948,o),
(113,839,o),
(113,749,qs),
(113,740,l),
(-29,740,l),
(-29,686,l),
(112,686,l),
(112,0,l),
(175,0,l),
(175,686,l),
(316,686,l),
(316,740,l),
(175,740,l),
(175,818,ls),
(175,869,o),
(223,927,o),
(264,927,qs),
(303,927,o),
(348,880,o),
(347,840,q),
(399,840,l),
(403,902,o),
(335,979,o),
(275,979,qs),
(222,979,o),
(157,920,o),
(150,871,q),
(81,1002,o),
(-174,1002,qs),
(-526,1002,o),
(-526,753,qs)
);
},
{
closed = 1;
nodes = (
(280,792,o),
(304,815,o),
(304,832,qs),
(304,849,o),
(280,872,o),
(263,872,qs),
(246,872,o),
(223,849,o),
(223,832,qs),
(223,815,o),
(246,792,o),
(263,792,qs)
);
}
);
width = 287;
}
);
note = dvmII_Reph_Anusvara.aLong;
},
{
glyphname = dvmE_Anusvara;
layers = (
{
layerId = m01;
shapes = (
{
closed = 1;
nodes = (
(-112,736,l),
(-178,848,o),
(-268,948,o),
(-350,976,o),
(-421,976,qs),
(-458,976,l),
(-458,923,l),
(-420,923,ls),
(-364,923,o),
(-299,901,o),
(-228,824,o),
(-173,736,q)
);
},
{
closed = 1;
nodes = (
(-24,838,o),
(3,865,o),
(3,885,qs),
(3,905,o),
(-24,931,o),
(-44,931,qs),
(-64,931,o),
(-91,905,o),
(-91,885,qs),
(-91,865,o),
(-64,838,o),
(-44,838,qs)
);
}
);
width = 0;
}
);
note = dvmE_Anusvara;
},
{
glyphname = dvmE_Reph;
layers = (
{
layerId = m01;
shapes = (
{
closed = 1;
nodes = (
(-112,736,l),
(-133,776,o),
(-133,817,qs),
(-133,869,o),
(-84,924,o),
(-42,924,qs),
(-5,924,o),
(40,876,o),
(38,838,q),
(93,838,l),
(97,899,o),
(29,975,o),
(-30,975,qs),
(-96,975,o),
(-162,892,o),
(-162,833,qs),
(-162,821,o),
(-161,815,q),
(-209,888,o),
(-285,957,o),
(-359,976,o),
(-421,976,qs),
(-458,976,l),
(-458,923,l),
(-420,923,ls),
(-364,923,o),
(-299,901,o),
(-228,824,o),
(-173,736,q)
);
}
);
width = 0;
}
);
note = dvmE_Reph;
},
{
glyphname = dvmE_Reph_Anusvara;
layers = (
{
layerId = m01;
shapes = (
{
closed = 1;
nodes = (
(-112,736,l),
(-134,777,o),
(-134,821,qs),
(-134,875,o),
(-76,935,o),
(-27,935,qs),
(17,935,o),
(69,882,o),
(71,840,q),
(117,840,l),
(117,903,o),
(43,978,o),
(-20,978,qs),
(-91,978,o),
(-165,894,o),
(-165,833,qs),
(-165,820,l),
(-212,891,o),
(-286,957,o),
(-360,976,o),
(-421,976,qs),
(-458,976,l),
(-458,923,l),
(-420,923,ls),
(-364,923,o),
(-299,901,o),
(-228,824,o),
(-173,736,q)
);
},
{
closed = 1;
nodes = (
(-15,794,o),
(9,817,o),
(9,834,qs),
(9,851,o),
(-15,874,o),
(-32,874,qs),
(-49,874,o),
(-72,851,o),
(-72,834,qs),
(-72,817,o),
(-49,794,o),
(-32,794,qs)
);
}
);
width = 0;
}
);
note = dvmE_Reph_Anusvara;
},
{
glyphname = dvmAI_Anusvara;
layers = (
{
layerId = m01;
shapes = (
{
closed = 1;
nodes = (
(-112,737,l),
(-184,879,o),
(-274,1001,o),
(-352,1033,o),
(-423,1033,qs),
(-463,1033,l),
(-463,989,l),
(-422,989,ls),
(-369,989,o),
(-306,968,o),
(-235,886,o),
(-185,795,q),
(-235,838,o),
(-304,875,o),
(-367,885,o),
(-424,885,qs),
(-463,885,l),
(-463,842,l),
(-423,842,ls),
(-364,842,o),
(-300,830,o),
(-228,788,o),
(-167,737,q)
);
},
{
closed = 1;
nodes = (
(-18,837,o),
(9,864,o),
(9,884,qs),
(9,904,o),
(-18,930,o),
(-38,930,qs),
(-58,930,o),
(-85,904,o),
(-85,884,qs),
(-85,864,o),
(-58,837,o),
(-38,837,qs)
);
}
);
width = 0;
}
);
note = dvmAI_Anusvara;
},
{
glyphname = dvmAI_Reph;
layers = (
{
layerId = m01;
shapes = (
{
closed = 1;
nodes = (
(-112,737,l),
(-119,750,l),
(-133,783,o),
(-133,817,qs),
(-133,869,o),
(-84,924,o),
(-42,924,qs),
(-5,924,o),
(40,876,o),
(38,838,q),
(89,838,l),
(92,899,o),
(25,975,o),
(-31,975,qs),
(-96,975,o),
(-161,892,o),
(-161,833,qs),
(-161,830,l),
(-214,925,o),
(-289,1010,o),
(-360,1033,o),
(-423,1033,qs),
(-463,1033,l),
(-463,989,l),
(-422,989,ls),
(-369,989,o),
(-306,968,o),
(-235,886,o),
(-185,795,q),
(-235,838,o),
(-304,875,o),
(-367,885,o),
(-424,885,qs),
(-463,885,l),
(-463,842,l),
(-423,842,ls),
(-364,842,o),
(-300,830,o),
(-228,788,o),
(-167,737,q)
);
}
);
width = 0;
}
);
note = dvmAI_Reph;
},
{
glyphname = dvmAI_Reph_Anusvara;
layers = (
{
layerId = m01;
shapes = (
{
closed = 1;
nodes = (
(-112,737,l),
(-116,744,ls),
(-134,783,o),
(-134,819,qs),
(-134,874,o),
(-76,935,o),
(-27,935,qs),
(17,935,o),
(69,882,o),
(71,840,q),
(117,840,l),
(117,902,o),
(43,978,o),
(-20,978,qs),
(-90,978,o),
(-163,895,o),
(-163,835,qs),
(-163,833,l),
(-215,927,o),
(-290,1011,o),
(-361,1033,o),
(-423,1033,qs),
(-463,1033,l),
(-463,989,l),
(-422,989,ls),
(-369,989,o),
(-306,968,o),
(-235,886,o),
(-185,795,q),
(-235,838,o),
(-304,875,o),
(-367,885,o),
(-424,885,qs),
(-463,885,l),
(-463,842,l),
(-423,842,ls),
(-364,842,o),
(-300,830,o),
(-228,788,o),
(-167,737,q)
);
},
{
closed = 1;
nodes = (
(-17,794,o),
(7,817,o),
(7,834,qs),
(7,851,o),
(-17,874,o),
(-34,874,qs),
(-51,874,o),
(-74,851,o),
(-74,834,qs),
(-74,817,o),
(-51,794,o),
(-34,794,qs)
);
}
);
width = 0;
}
);
note = dvmAI_Reph_Anusvara;
},
{
glyphname = dvmO_Anusvara;
layers = (
{
layerId = m01;
shapes = (
{
closed = 1;
nodes = (
(175,0,l),
(175,686,l),
(316,686,l),
(316,740,l),
(173,740,l),
(108,850,o),
(19,948,o),
(-63,976,o),
(-134,976,qs),
(-171,976,l),
(-171,923,l),
(-133,923,ls),
(-77,923,o),
(-13,901,o),
(57,826,o),
(111,740,q),
(-29,740,l),
(-29,686,l),
(112,686,l),
(112,0,l)
);
},
{
closed = 1;
nodes = (
(263,838,o),
(290,865,o),
(290,885,qs),
(290,905,o),
(263,931,o),
(243,931,qs),
(223,931,o),
(196,905,o),
(196,885,qs),
(196,865,o),
(223,838,o),
(243,838,qs)
);
}
);
width = 287;
}
);
note = dvmO_Anusvara;
},
{
glyphname = dvmO_Reph;
layers = (
{
layerId = m01;
shapes = (
{
closed = 1;
nodes = (
(175,0,l),
(175,686,l),
(316,686,l),
(316,740,l),
(173,740,l),
(154,776,o),
(154,817,qs),
(154,869,o),
(203,924,o),
(245,924,qs),
(282,924,o),
(327,876,o),
(325,838,q),
(380,838,l),
(384,899,o),
(316,975,o),
(257,975,qs),
(191,975,o),
(125,892,o),
(125,833,qs),
(125,821,o),
(126,815,q),
(78,888,o),
(2,957,o),
(-72,976,o),
(-134,976,qs),
(-171,976,l),
(-171,923,l),
(-133,923,ls),
(-77,923,o),
(-13,901,o),
(57,826,o),
(111,740,q),
(-29,740,l),
(-29,686,l),
(112,686,l),
(112,0,l)
);
}
);
width = 287;
}
);
note = dvmO_Reph;
},
{
glyphname = dvmO_Reph_Anusvara;
layers = (
{
layerId = m01;
shapes = (
{
closed = 1;
nodes = (
(175,0,l),
(175,686,l),
(316,686,l),
(316,740,l),
(173,740,l),
(153,777,o),
(153,821,qs),
(153,875,o),
(211,935,o),
(260,935,qs),
(304,935,o),
(356,882,o),
(358,840,q),
(404,840,l),
(404,903,o),
(330,978,o),
(267,978,qs),
(196,978,o),
(122,894,o),
(122,833,qs),
(122,820,l),
(75,891,o),
(1,957,o),
(-73,976,o),
(-134,976,qs),
(-171,976,l),
(-171,923,l),
(-133,923,ls),
(-77,923,o),
(-13,901,o),
(57,826,o),
(111,740,q),
(-29,740,l),
(-29,686,l),
(112,686,l),
(112,0,l)
);
},
{
closed = 1;
nodes = (
(272,794,o),
(296,817,o),
(296,834,qs),
(296,851,o),
(272,874,o),
(255,874,qs),
(238,874,o),
(215,851,o),
(215,834,qs),
(215,817,o),
(238,794,o),
(255,794,qs)
);
}
);
width = 287;
}
);
note = dvmO_Reph_Anusvara;
},
{
glyphname = dvmAU_Anusvara;
layers = (
{
layerId = m01;
shapes = (
{
closed = 1;
nodes = (
(175,0,l),
(175,686,l),
(316,686,l),
(316,740,l),
(171,740,l),
(100,880,o),
(11,1001,o),
(-67,1033,o),
(-138,1033,qs),
(-178,1033,l),
(-178,989,l),
(-137,989,ls),
(-84,989,o),
(-21,968,o),
(50,886,o),
(100,795,q),
(50,838,o),
(-19,875,o),
(-82,885,o),
(-139,885,qs),
(-178,885,l),
(-178,842,l),
(-138,842,ls),
(-79,842,o),
(-16,831,o),
(55,789,o),
(114,740,q),
(-29,740,l),
(-29,686,l),
(112,686,l),
(112,0,l)
);
},
{
closed = 1;
nodes = (
(267,837,o),
(294,864,o),
(294,884,qs),
(294,904,o),
(267,930,o),
(247,930,qs),
(227,930,o),
(200,904,o),
(200,884,qs),
(200,864,o),
(227,837,o),
(247,837,qs)
);
}
);
width = 287;
}
);
note = dvmAU_Anusvara;
},
{
glyphname = dvmAU_Reph;
layers = (
{
layerId = m01;
shapes = (
{
closed = 1;
nodes = (
(175,0,l),
(175,686,l),
(316,686,l),
(316,740,l),
(171,740,l),
(166,750,ls),
(152,783,o),
(152,817,qs),
(152,869,o),
(201,924,o),
(243,924,qs),
(280,924,o),
(325,876,o),
(323,838,q),
(374,838,l),
(377,899,o),
(310,975,o),
(254,975,qs),
(189,975,o),
(124,892,o),
(124,833,qs),
(124,830,l),
(71,925,o),
(-4,1010,o),
(-75,1033,o),
(-138,1033,qs),
(-178,1033,l),
(-178,989,l),
(-137,989,ls),
(-84,989,o),
(-21,968,o),
(50,886,o),
(100,795,q),
(50,838,o),
(-19,875,o),
(-82,885,o),
(-139,885,qs),
(-178,885,l),
(-178,842,l),
(-138,842,ls),
(-79,842,o),
(-16,831,o),
(55,789,o),
(114,740,q),
(-29,740,l),
(-29,686,l),
(112,686,l),
(112,0,l)
);
}
);
width = 287;
}
);
note = dvmAU_Reph;
},
{
glyphname = dvmAU_Reph_Anusvara;
layers = (
{
layerId = m01;
shapes = (
{
closed = 1;
nodes = (
(175,0,l),
(175,686,l),
(316,686,l),
(316,740,l),
(171,740,l),
(169,744,ls),
(151,783,o),
(151,819,qs),
(151,874,o),
(209,935,o),
(258,935,qs),
(302,935,o),
(354,882,o),
(356,840,q),
(402,840,l),
(402,902,o),
(328,978,o),
(265,978,qs),
(195,978,o),
(122,895,o),
(122,835,qs),
(122,833,l),
(70,927,o),
(-5,1011,o),
(-76,1033,o),
(-138,1033,qs),
(-178,1033,l),
(-178,989,l),
(-137,989,ls),
(-84,989,o),
(-21,968,o),
(50,886,o),
(100,795,q),
(50,838,o),
(-19,875,o),
(-82,885,o),
(-139,885,qs),
(-178,885,l),
(-178,842,l),
(-138,842,ls),
(-79,842,o),
(-16,831,o),
(55,789,o),
(114,740,q),
(-29,740,l),
(-29,686,l),
(112,686,l),
(112,0,l)
);
},
{
closed = 1;
nodes = (
(268,794,o),
(292,817,o),
(292,834,qs),
(292,851,o),
(268,874,o),
(251,874,qs),
(234,874,o),
(211,851,o),
(211,834,qs),
(211,817,o),
(234,794,o),
(251,794,qs)
);
}
);
width = 287;
}
);
note = dvmAU_Reph_Anusvara;
},
{
glyphname = dvmEcandra_Anusvara;
layers = (
{
layerId = m01;
shapes = (
{
closed = 1;
nodes = (
(-80,820,o),
(8,866,o),
(51,942,o),
(51,987,q),
(-1,987,l),
(-1,957,o),
(-33,902,o),
(-97,868,o),
(-143,868,qs),
(-189,868,o),
(-253,902,o),
(-284,957,o),
(-284,987,q),
(-337,987,l),
(-337,942,o),
(-293,866,o),
(-206,820,o),
(-143,820,qs)
);
},
{
closed = 1;
nodes = (
(-126,981,o),
(-106,1002,o),
(-106,1017,qs),
(-106,1032,o),
(-126,1053,o),
(-142,1053,qs),
(-158,1053,o),
(-179,1032,o),
(-179,1017,qs),
(-179,1002,o),
(-158,981,o),
(-142,981,qs)
);
}
);
width = 0;
}
);
note = dvmEcandra_Anusvara;
},
{
glyphname = dvmOcandra_Anusvara;
layers = (
{
layerId = m01;
shapes = (
{
closed = 1;
nodes = (
(112,0,l),
(175,0,l),
(175,686,l),
(316,686,l),
(316,740,l),
(-29,740,l),
(-29,686,l),
(112,686,l)
);
},
{
closed = 1;
nodes = (
(207,820,o),
(295,866,o),
(338,942,o),
(338,987,q),
(286,987,l),
(286,957,o),
(254,902,o),
(190,868,o),
(144,868,qs),
(98,868,o),
(34,902,o),
(3,957,o),
(3,987,q),
(-50,987,l),
(-50,942,o),
(-6,866,o),
(81,820,o),
(144,820,qs)
);
},
{
closed = 1;
nodes = (
(161,981,o),
(181,1002,o),
(181,1017,qs),
(181,1032,o),
(161,1053,o),
(145,1053,qs),
(129,1053,o),
(108,1032,o),
(108,1017,qs),
(108,1002,o),
(129,981,o),
(145,981,qs)
);
}
);
width = 287;
}
);
note = dvmOcandra_Anusvara;
},
{
glyphname = dvRA_mU;
layers = (
{
layerId = m01;
shapes = (
{
closed = 1;
nodes = (
(-29,686,l),
(373,686,l),
(373,587,ls),
(373,498,o),
(282,410,o),
(195,410,qs),
(88,410,l),
(88,206,ls),
(88,109,o),
(187,-9,o),
(280,-9,qs),
(368,-9,o),
(469,100,o),
(469,192,qs),
(469,204,l),
(407,204,l),
(407,190,ls),
(407,125,o),
(338,46,o),
(279,46,qs),
(215,46,o),
(151,132,o),
(151,203,qs),
(151,362,l),
(179,362,l),
(170,357,l),
(586,357,ls),
(648,357,o),
(720,294,o),
(720,238,qs),
(720,184,o),
(654,125,o),
(599,125,qs),
(574,125,o),
(544,132,q),
(544,80,l),
(576,73,o),
(603,73,qs),
(684,73,o),
(778,160,o),
(778,236,qs),
(778,319,o),
(676,410,o),
(582,410,qs),
(367,410,l),
(437,469,o),
(437,587,qs),
(437,686,l),
(883,686,l),
(883,740,l),
(-29,740,l)
);
}
);
width = 831;
}
);
note = dvRA_mU;
},
{
glyphname = dvRA_mUU;
layers = (
{
layerId = m01;
shapes = (
{
closed = 1;
nodes = (
(-29,686,l),
(373,686,l),
(373,587,ls),
(373,498,o),
(282,410,o),
(195,410,qs),
(88,410,l),
(88,206,ls),
(88,109,o),
(187,-9,o),
(280,-9,qs),
(368,-9,o),
(469,100,o),
(469,192,qs),
(469,204,l),
(407,204,l),
(407,190,ls),
(407,125,o),
(338,46,o),
(279,46,qs),
(215,46,o),
(151,132,o),
(151,203,qs),
(151,362,l),
(179,362,l),
(170,357,l),
(471,357,ls),
(544,357,o),
(624,285,o),
(624,218,qs),
(624,119,l),
(684,119,l),
(684,219,ls),
(684,310,o),
(577,410,o),
(476,410,qs),
(367,410,l),
(437,469,o),
(437,587,qs),
(437,686,l),
(778,686,l),
(778,740,l),
(-29,740,l)
);
}
);
width = 749;
}
);
note = dvRA_mUU;
},
{
glyphname = dvmI.a01;
layers = (
{
layerId = m01;
shapes = (
{
closed = 1;
nodes = (
(175,686,l),
(316,686,l),
(316,740,l),
(175,740,l),
(175,849,o),
(319,934,o),
(419,934,qs),
(478,934,o),
(588,897,o),
(662,810,o),
(662,740,qs),
(662,724,l),
(724,724,l),
(724,741,ls),
(724,825,o),
(639,935,o),
(500,987,o),
(419,987,qs),
(288,987,o),
(113,871,o),
(112,740,q),
(-29,740,l),
(-29,686,l),
(112,686,l),
(112,0,l),
(175,0,l)
);
}
);
width = 287;
}
);
note = dvmI.a01;
},
{
glyphname = dvmI.a02;
layers = (
{
layerId = m01;
shapes = (
{
closed = 1;
nodes = (
(175,686,l),
(316,686,l),
(316,740,l),
(175,740,l),
(175,935,o),
(444,935,qs),
(558,935,o),
(715,842,o),
(715,739,qs),
(715,723,l),
(777,723,l),
(777,741,ls),
(777,865,o),
(590,988,o),
(444,988,qs),
(295,988,o),
(113,872,o),
(112,740,q),
(-29,740,l),
(-29,686,l),
(112,686,l),
(112,0,l),
(175,0,l)
);
}
);
width = 287;
}
);
note = dvmI.a02;
},
{
glyphname = dvmI.a03;
layers = (
{
layerId = m01;
shapes = (
{
closed = 1;
nodes = (
(175,686,l),
(316,686,l),
(316,740,l),
(175,740,l),
(175,850,o),
(333,936,o),
(470,936,qs),
(603,936,o),
(768,842,o),
(768,738,qs),
(768,723,l),
(831,723,l),
(831,739,ls),
(831,865,o),
(635,989,o),
(470,989,qs),
(303,989,o),
(113,873,o),
(112,740,q),
(-29,740,l),
(-29,686,l),
(112,686,l),
(112,0,l),
(175,0,l)
);
}
);
width = 287;
}
);
note = dvmI.a03;
},
{
glyphname = dvmI.a04;
layers = (
{
layerId = m01;
shapes = (
{
closed = 1;
nodes = (
(175,686,l),
(316,686,l),
(316,740,l),
(175,740,l),
(175,851,o),
(339,937,o),
(494,937,qs),
(646,937,o),
(821,842,o),
(821,737,qs),
(821,722,l),
(884,722,l),
(884,739,ls),
(884,865,o),
(678,990,o),
(495,990,qs),
(310,990,o),
(113,873,o),
(112,740,q),
(-29,740,l),
(-29,686,l),
(112,686,l),
(112,0,l),
(175,0,l)
);
}
);
width = 287;
}
);
note = dvmI.a04;
},
{
glyphname = dvmI.a05;
layers = (
{
layerId = m01;
shapes = (
{
closed = 1;
nodes = (
(175,686,l),
(316,686,l),
(316,740,l),
(175,740,l),
(175,850,o),
(346,937,o),
(519,937,qs),
(689,937,o),
(874,842,o),
(874,737,qs),
(874,722,l),
(937,722,l),
(937,738,ls),
(937,865,o),
(722,990,o),
(520,990,qs),
(317,990,o),
(113,874,o),
(112,740,q),
(-29,740,l),
(-29,686,l),
(112,686,l),
(112,0,l),
(175,0,l)
);
}
);
width = 287;
}
);
note = dvmI.a05;
},
{
glyphname = dvmI.a06;
layers = (
{
layerId = m01;
shapes = (
{
closed = 1;
nodes = (
(175,686,l),
(316,686,l),
(316,740,l),
(175,740,l),
(175,815,o),
(257,902,o),
(418,938,o),
(545,938,qs),
(733,938,o),
(927,842,o),
(927,736,qs),
(927,721,l),
(989,721,l),
(989,737,ls),
(989,991,o),
(546,991,qs),
(398,991,o),
(209,941,o),
(113,831,o),
(112,740,q),
(-29,740,l),
(-29,686,l),
(112,686,l),
(112,0,l),
(175,0,l)
);
}
);
width = 287;
}
);
note = dvmI.a06;
},
{
glyphname = dvmI.a07;
layers = (
{
layerId = m01;
shapes = (
{
closed = 1;
nodes = (
(175,686,l),
(316,686,l),
(316,740,l),
(175,740,l),
(175,815,o),
(259,902,o),
(431,939,o),
(570,939,qs),
(778,939,o),
(980,842,o),
(980,735,qs),
(980,722,l),
(1043,721,l),
(1043,736,ls),
(1043,865,o),
(810,992,o),
(572,992,qs),
(412,992,o),
(211,941,o),
(113,830,o),
(112,740,q),
(-29,740,l),
(-29,686,l),
(112,686,l),
(112,0,l),
(175,0,l)
);
}
);
width = 287;
}
);
note = dvmI.a07;
},
{
glyphname = dvmI.a08;
layers = (
{
layerId = m01;
shapes = (
{
closed = 1;
nodes = (
(175,686,l),
(316,686,l),
(316,740,l),
(175,740,l),
(175,815,o),
(261,902,o),
(443,940,o),
(595,940,qs),
(821,940,o),
(1033,842,o),
(1033,735,qs),
(1033,722,l),
(1095,721,l),
(1095,736,ls),
(1095,865,o),
(855,993,o),
(597,993,qs),
(424,993,o),
(213,941,o),
(113,831,o),
(112,740,q),
(-29,740,l),
(-29,686,l),
(112,686,l),
(112,0,l),
(175,0,l)
);
}
);
width = 287;
}
);
note = dvmI.a08;
},
{
glyphname = dvmI.a09;
layers = (
{
layerId = m01;
shapes = (
{
closed = 1;
nodes = (
(175,686,l),
(316,686,l),
(316,740,l),
(175,740,l),
(175,815,o),
(263,902,o),
(456,941,o),
(620,941,qs),
(864,941,o),
(1086,841,o),
(1086,733,qs),
(1086,721,l),
(1149,720,l),
(1149,735,ls),
(1149,865,o),
(897,994,o),
(621,994,qs),
(436,994,o),
(215,942,o),
(114,831,o),
(112,740,q),
(-29,740,l),
(-29,686,l),
(112,686,l),
(112,0,l),
(175,0,l)
);
}
);
width = 287;
}
);
note = dvmI.a09;
},
{
glyphname = dvmI.a10;
layers = (
{
layerId = m01;
shapes = (
{
closed = 1;
nodes = (
(175,686,l),
(316,686,l),
(316,740,l),
(175,740,l),
(175,815,o),
(264,902,o),
(468,942,o),
(645,942,qs),
(822,942,o),
(1039,897,o),
(1139,805,o),
(1139,733,qs),
(1139,721,l),
(1202,720,l),
(1202,734,ls),
(1202,865,o),
(941,995,o),
(646,995,qs),
(449,995,o),
(217,942,o),
(114,831,o),
(112,740,q),
(-29,740,l),
(-29,686,l),
(112,686,l),
(112,0,l),
(175,0,l)
);
}
);
width = 287;
}
);
note = dvmI.a10;
},
{
glyphname = dvmI.a11;
layers = (
{
layerId = m01;
shapes = (
{
closed = 1;
nodes = (
(175,686,l),
(316,686,l),
(316,740,l),
(175,740,l),
(177,815,o),
(269,903,o),
(482,943,o),
(670,943,qs),
(860,943,o),
(1090,896,o),
(1193,804,o),
(1193,732,qs),
(1193,720,l),
(1256,719,l),
(1256,734,ls),
(1256,820,o),
(1142,936,o),
(884,996,o),
(672,996,qs),
(462,996,o),
(219,942,o),
(114,831,o),
(112,740,q),
(-29,740,l),
(-29,686,l),
(112,686,l),
(112,0,l),
(175,0,l)
);
}
);
width = 287;
}
);
note = dvmI.a11;
},
{
glyphname = dvmI.a12;
layers = (
{
layerId = m01;
shapes = (
{
closed = 1;
nodes = (
(175,686,l),
(316,686,l),
(316,740,l),
(175,740,l),
(177,815,o),
(271,902,o),
(496,944,o),
(695,944,qs),
(898,944,o),
(1140,896,o),
(1246,803,o),
(1246,731,qs),
(1246,720,l),
(1309,719,l),
(1309,732,ls),
(1309,819,o),
(1192,935,o),
(922,997,o),
(698,997,qs),
(475,997,o),
(221,943,o),
(114,831,o),
(112,740,q),
(-29,740,l),
(-29,686,l),
(112,686,l),
(112,0,l),
(175,0,l)
);
}
);
width = 287;
}
);
note = dvmI.a12;
},
{
glyphname = dvmI.a13;
layers = (
{
layerId = m01;
shapes = (
{
closed = 1;
nodes = (
(175,686,l),
(316,686,l),
(316,740,l),
(175,740,l),
(177,815,o),
(273,902,o),
(508,944,o),
(720,944,qs),
(935,944,o),
(1189,896,o),
(1298,803,o),
(1298,731,qs),
(1298,719,l),
(1362,719,l),
(1362,732,ls),
(1362,819,o),
(1242,935,o),
(960,997,o),
(723,997,qs),
(488,997,o),
(224,942,o),
(114,831,o),
(112,740,q),
(-29,740,l),
(-29,686,l),
(112,686,l),
(112,0,l),
(175,0,l)
);
}
);
width = 287;
}
);
note = dvmI.a13;
},
{
glyphname = dvmI.a14;
layers = (
{
layerId = m01;
shapes = (
{
closed = 1;
nodes = (
(175,686,l),
(316,686,l),
(316,740,l),
(175,740,l),
(177,814,o),
(276,902,o),
(522,945,o),
(745,945,qs),
(973,945,o),
(1239,896,o),
(1351,801,o),
(1351,729,qs),
(1351,719,l),
(1415,718,l),
(1415,730,ls),
(1415,818,o),
(1292,935,o),
(999,998,o),
(749,998,qs),
(501,998,o),
(225,943,o),
(114,831,o),
(112,740,q),
(-29,740,l),
(-29,686,l),
(112,686,l),
(112,0,l),
(175,0,l)
);
}
);
width = 287;
}
);
note = dvmI.a14;
},
{
glyphname = dvmI.a15;
layers = (
{
layerId = m01;
shapes = (
{
closed = 1;
nodes = (
(175,686,l),
(316,686,l),
(316,740,l),
(175,740,l),
(177,814,o),
(278,902,o),
(535,946,o),
(772,946,qs),
(1012,946,o),
(1291,895,o),
(1406,801,o),
(1406,729,qs),
(1406,719,l),
(1468,718,l),
(1468,730,ls),
(1468,817,o),
(1343,935,o),
(1037,999,o),
(774,999,qs),
(514,999,o),
(227,943,o),
(114,832,o),
(112,740,q),
(-29,740,l),
(-29,686,l),
(112,686,l),
(112,0,l),
(175,0,l)
);
}
);
width = 287;
}
);
note = dvmI.a15;
},
{
glyphname = dvmI.a16;
layers = (
{
layerId = m01;
shapes = (
{
closed = 1;
nodes = (
(175,686,l),
(316,686,l),
(316,740,l),
(175,740,l),
(177,814,o),
(281,902,o),
(549,947,o),
(796,947,qs),
(1050,947,o),
(1340,896,o),
(1458,801,o),
(1458,729,qs),
(1458,718,l),
(1521,718,l),
(1521,730,ls),
(1521,817,o),
(1393,935,o),
(1075,1000,o),
(799,1000,qs),
(528,1000,o),
(230,943,o),
(114,831,o),
(112,740,q),
(-29,740,l),
(-29,686,l),
(112,686,l),
(112,0,l),
(175,0,l)
);
}
);
width = 287;
}
);
note = dvmI.a16;
},
{
glyphname = dvmI.a17;
layers = (
{
layerId = m01;
shapes = (
{
closed = 1;
nodes = (
(175,686,l),
(316,686,l),
(316,740,l),
(175,740,l),
(177,813,o),
(282,902,o),
(561,948,o),
(821,948,qs),
(1087,948,o),
(1390,895,o),
(1511,799,o),
(1511,727,qs),
(1511,718,l),
(1574,717,l),
(1574,728,ls),
(1574,816,o),
(1443,935,o),
(1113,1001,o),
(824,1001,qs),
(540,1001,o),
(232,943,o),
(114,832,o),
(112,740,q),
(-29,740,l),
(-29,686,l),
(112,686,l),
(112,0,l),
(175,0,l)
);
}
);
width = 287;
}
);
note = dvmI.a17;
},
{
glyphname = dvmI.a18;
layers = (
{
layerId = m01;
shapes = (
{
closed = 1;
nodes = (
(175,686,l),
(316,686,l),
(316,740,l),
(175,740,l),
(177,814,o),
(285,903,o),
(575,949,o),
(846,949,qs),
(1125,949,o),
(1440,895,o),
(1564,798,o),
(1564,726,qs),
(1564,718,l),
(1627,717,l),
(1627,728,ls),
(1627,816,o),
(1493,935,o),
(1151,1002,o),
(849,1002,qs),
(553,1002,o),
(234,944,o),
(114,832,o),
(112,740,q),
(-29,740,l),
(-29,686,l),
(112,686,l),
(112,0,l),
(175,0,l)
);
}
);
width = 287;
}
);
note = dvmI.a18;
},
{
glyphname = dvmI.a19;
layers = (
{
layerId = m01;
shapes = (
{
closed = 1;
nodes = (
(175,686,l),
(316,686,l),
(316,740,l),
(175,740,l),
(177,813,o),
(287,902,o),
(589,950,o),
(872,950,qs),
(1163,950,o),
(1491,895,o),
(1618,798,o),
(1618,726,qs),
(1618,717,l),
(1681,716,l),
(1681,728,ls),
(1681,815,o),
(1544,935,o),
(1189,1003,o),
(875,1003,qs),
(567,1003,o),
(237,943,o),
(114,831,o),
(112,740,q),
(-29,740,l),
(-29,686,l),
(112,686,l),
(112,0,l),
(175,0,l)
);
}
);
width = 287;
}
);
note = dvmI.a19;
},
{
glyphname = dvmI.a20;
layers = (
{
layerId = m01;
shapes = (
{
closed = 1;
nodes = (
(175,686,l),
(316,686,l),
(316,740,l),
(175,740,l),
(178,813,o),
(290,902,o),
(602,951,o),
(896,951,qs),
(1201,951,o),
(1541,895,o),
(1670,797,o),
(1670,724,qs),
(1670,717,l),
(1734,716,l),
(1734,726,ls),
(1734,814,o),
(1594,935,o),
(1227,1004,o),
(900,1004,qs),
(581,1004,o),
(239,944,o),
(114,831,o),
(112,740,q),
(-29,740,l),
(-29,686,l),
(112,686,l),
(112,0,l),
(175,0,l)
);
}
);
width = 287;
}
);
note = dvmI.a20;
},
{
glyphname = dvmI.a21;
layers = (
{
layerId = m01;
shapes = (
{
closed = 1;
nodes = (
(175,686,l),
(316,686,l),
(316,740,l),
(175,740,l),
(178,813,o),
(292,902,o),
(615,951,o),
(922,951,qs),
(1238,951,o),
(1591,894,o),
(1724,796,o),
(1724,724,qs),
(1724,717,l),
(1787,715,l),
(1787,725,ls),
(1787,813,o),
(1644,934,o),
(1266,1004,o),
(926,1004,qs),
(593,1004,o),
(240,944,o),
(114,832,o),
(112,740,q),
(-29,740,l),
(-29,686,l),
(112,686,l),
(112,0,l),
(175,0,l)
);
}
);
width = 287;
}
);
note = dvmI.a21;
},
{
glyphname = dvmI.a22;
layers = (
{
layerId = m01;
shapes = (
{
closed = 1;
nodes = (
(175,686,l),
(316,686,l),
(316,740,l),
(175,740,l),
(178,812,o),
(294,902,o),
(628,952,o),
(947,952,qs),
(1276,952,o),
(1641,894,o),
(1777,794,o),
(1777,723,qs),
(1777,716,l),
(1839,715,l),
(1839,725,ls),
(1839,812,o),
(1694,934,o),
(1303,1005,o),
(951,1005,qs),
(606,1005,o),
(243,944,o),
(114,831,o),
(112,740,q),
(-29,740,l),
(-29,686,l),
(112,686,l),
(112,0,l),
(175,0,l)
);
}
);
width = 287;
}
);
note = dvmI.a22;
},
{
glyphname = dvmI.a23;
layers = (
{
layerId = m01;
shapes = (
{
closed = 1;
nodes = (
(175,686,l),
(316,686,l),
(316,740,l),
(175,740,l),
(178,812,o),
(297,902,o),
(642,953,o),
(972,953,qs),
(1314,953,o),
(1691,894,o),
(1830,794,o),
(1830,722,qs),
(1830,716,l),
(1894,714,l),
(1894,723,ls),
(1894,811,o),
(1745,934,o),
(1342,1006,o),
(977,1006,qs),
(621,1006,o),
(247,944,o),
(115,831,o),
(112,740,q),
(-29,740,l),
(-29,686,l),
(112,686,l),
(112,0,l),
(175,0,l)
);
}
);
width = 287;
}
);
note = dvmI.a23;
},
{
glyphname = dvmI.a24;
layers = (
{
layerId = m01;
shapes = (
{
closed = 1;
nodes = (
(175,686,l),
(316,686,l),
(316,740,l),
(175,740,l),
(178,812,o),
(299,903,o),
(656,954,o),
(997,954,qs),
(1351,954,o),
(1741,894,o),
(1883,793,o),
(1883,722,qs),
(1883,715,l),
(1946,714,l),
(1946,723,ls),
(1946,811,o),
(1795,934,o),
(1380,1007,o),
(1002,1007,qs),
(634,1007,o),
(248,944,o),
(115,831,o),
(112,740,q),
(-29,740,l),
(-29,686,l),
(112,686,l),
(112,0,l),
(175,0,l)
);
}
);
width = 287;
}
);
note = dvmI.a24;
},
{
glyphname = exclam;
layers = (
{
layerId = m01;
shapes = (
{
closed = 1;
nodes = (
(106,185,l),
(165,185,l),
(174,699,l),
(98,699,l)
);
},
{
closed = 1;
nodes = (
(189,69,o),
(160,98,o),
(139,98,qs),
(117,98,o),
(88,69,o),
(88,47,qs),
(88,25,o),
(117,-5,o),
(139,-5,qs),
(160,-5,o),
(189,25,o),
(189,47,qs)
);
}
);
width = 277;
}
);
note = exclam;
unicode = 33;
},
{
glyphname = quotedbl;
layers = (
{
layerId = m01;
shapes = (
{
closed = 1;
nodes = (
(47,602,l),
(96,602,l),
(106,795,l),
(37,795,l)
);
},
{
closed = 1;
nodes = (
(168,602,l),
(217,602,l),
(226,795,l),
(157,795,l)
);
}
);
width = 264;
}
);
note = quotedbl;
unicode = 34;
},
{
glyphname = numbersign;
layers = (
{
layerId = m01;
shapes = (
{
closed = 1;
nodes = (
(496,276,l),
(274,276,l),
(313,461,l),
(535,461,l)
);
},
{
closed = 1;
nodes = (
(437,0,l),
(504,0,l),
(550,214,l),
(706,214,l),
(706,276,l),
(563,276,l),
(602,461,l),
(761,461,l),
(761,523,l),
(616,523,l),
(662,740,l),
(595,740,l),
(549,523,l),
(327,523,l),
(373,740,l),
(306,740,l),
(260,523,l),
(90,523,l),
(90,461,l),
(246,461,l),
(207,276,l),
(35,276,l),
(35,214,l),
(194,214,l),
(148,0,l),
(215,0,l),
(261,214,l),
(483,214,l)
);
}
);
width = 812;
}
);
note = numbersign;
unicode = 35;
},
{
glyphname = dollar;
layers = (
{
layerId = m01;
shapes = (
{
closed = 1;
nodes = (
(264,-87,l),
(308,-87,l),
(308,-7,l),
(374,-4,o),
(466,52,o),
(512,137,o),
(512,184,qs),
(512,249,o),
(456,325,o),
(373,362,o),
(308,379,q),
(308,646,l),
(359,638,o),
(420,574,o),
(426,537,q),
(500,537,l),
(491,606,o),
(391,698,o),
(308,706,q),
(308,791,l),
(264,791,l),
(264,707,l),
(170,703,o),
(60,600,o),
(60,521,qs),
(60,458,o),
(116,383,o),
(197,347,o),
(264,329,q),
(264,52,l),
(205,60,o),
(140,133,o),
(136,178,q),
(61,178,l),
(65,103,o),
(175,2,o),
(264,-6,q)
);
},
{
closed = 1;
nodes = (
(442,127,o),
(372,54,o),
(308,50,q),
(308,316,l),
(373,296,o),
(442,238,o),
(442,181,qs)
);
},
{
closed = 1;
nodes = (
(131,582,o),
(204,646,o),
(264,649,q),
(264,392,l),
(200,411,o),
(131,468,o),
(131,524,qs)
);
}
);
width = 597;
}
);
note = dollar;
unicode = 36;
},
{
glyphname = percent;
layers = (
{
layerId = m01;
shapes = (
{
closed = 1;
nodes = (
(43,502,o),
(122,423,o),
(183,423,qs),
(245,423,o),
(324,502,o),
(324,567,qs),
(324,631,o),
(245,710,o),
(183,710,qs),
(122,710,o),
(43,631,o),
(43,567,qs)
);
},
{
closed = 1;
nodes = (
(221,665,o),
(267,613,o),
(267,567,qs),
(267,520,o),
(221,468,o),
(183,468,qs),
(145,468,o),
(100,520,o),
(100,567,qs),
(100,614,o),
(145,665,o),
(183,665,qs)
);
},
{
closed = 1;
nodes = (
(122,0,l),
(193,0,l),
(603,700,l),
(533,700,l)
);
},
{
closed = 1;
nodes = (
(403,68,o),
(482,-11,o),
(543,-11,qs),
(604,-11,o),
(683,68,o),
(683,133,qs),
(683,198,o),
(604,277,o),
(543,277,qs),
(482,277,o),
(403,198,o),
(403,133,qs)
);
},
{
closed = 1;
nodes = (
(581,231,o),
(626,180,o),
(626,133,qs),
(626,86,o),
(581,35,o),
(543,35,qs),
(505,35,o),
(459,87,o),
(459,133,qs),
(459,179,o),
(505,231,o),
(543,231,qs)
);
}
);
width = 726;
}
);
note = percent;
unicode = 37;
},
{
glyphname = ampersand;
layers = (
{
layerId = m01;
shapes = (
{
closed = 1;
nodes = (
(479,555,l),
(482,624,o),
(388,710,o),
(313,710,qs),
(233,710,o),
(137,627,o),
(137,560,qs),
(137,521,o),
(169,454,o),
(204,415,q),
(123,384,o),
(39,274,o),
(39,200,qs),
(39,137,o),
(99,41,o),
(207,-12,o),
(277,-12,qs),
(350,-12,o),
(466,41,o),
(517,97,q),
(612,0,l),
(703,0,l),
(557,147,l),
(584,185,o),
(611,231,qs),
(687,362,l),
(612,362,l),
(548,255,ls),
(524,214,o),
(510,195,q),
(280,428,ls),
(242,469,o),
(207,529,o),
(207,561,qs),
(207,601,o),
(264,652,o),
(310,652,qs),
(353,652,o),
(410,600,o),
(409,555,q)
);
},
{
closed = 1;
nodes = (
(228,49,o),
(152,89,o),
(109,158,o),
(109,202,qs),
(109,319,o),
(248,370,q),
(471,144,l),
(429,95,o),
(336,49,o),
(277,49,qs)
);
}
);
width = 719;
}
);
note = ampersand;
unicode = 38;
},
{
glyphname = quotesingle;
layers = (
{
layerId = m01;
shapes = (
{
closed = 1;
nodes = (
(49,602,l),
(98,602,l),
(110,795,l),
(37,795,l)
);
}
);
width = 147;
}
);
note = quotesingle;
unicode = 39;
},
{
glyphname = parenleft;
layers = (
{
layerId = m01;
shapes = (
{
closed = 1;
nodes = (
(370,-186,l),
(370,-179,l),
(268,-74,o),
(162,210,o),
(162,369,qs),
(162,530,o),
(273,822,o),
(380,927,q),
(380,934,l),
(307,934,l),
(206,838,o),
(94,542,o),
(94,369,qs),
(94,198,o),
(202,-93,o),
(296,-186,q)
);
}
);
width = 420;
}
);
note = parenleft;
unicode = 40;
},
{
glyphname = parenright;
layers = (
{
layerId = m01;
shapes = (
{
closed = 1;
nodes = (
(50,-186,l),
(50,-179,l),
(152,-74,o),
(258,210,o),
(258,369,qs),
(258,530,o),
(147,822,o),
(40,927,q),
(40,934,l),
(113,934,l),
(214,838,o),
(326,542,o),
(326,369,qs),
(326,198,o),
(218,-93,o),
(124,-186,q)
);
}
);
width = 420;
}
);
note = parenright;
unicode = 41;
},
{
glyphname = asterisk;
layers = (
{
layerId = m01;
shapes = (
{
closed = 1;
nodes = (
(266,732,l),
(207,732,l),
(219,575,l),
(89,662,l),
(60,610,l),
(201,547,l),
(59,483,l),
(89,430,l),
(218,517,l),
(207,360,l),
(265,360,l),
(253,517,l),
(382,431,l),
(411,483,l),
(269,547,l),
(410,611,l),
(382,662,l),
(253,575,l)
);
}
);
width = 469;
}
);
note = asterisk;
unicode = 42;
},
{
glyphname = plus;
layers = (
{
layerId = m01;
shapes = (
{
closed = 1;
nodes = (
(295,625,l),
(295,400,l),
(73,400,l),
(73,340,l),
(295,340,l),
(295,115,l),
(360,115,l),
(360,340,l),
(583,340,l),
(583,400,l),
(360,400,l),
(360,625,l)
);
}
);
width = 655;
}
);
note = plus;
unicode = 43;
},
{
glyphname = comma;
layers = (
{
layerId = m01;
shapes = (
{
closed = 1;
nodes = (
(-8,-146,l),
(41,-146,l),
(144,116,l),
(66,116,l)
);
}
);
width = 173;
}
);
note = comma;
unicode = 44;
},
{
glyphname = hyphen;
layers = (
{
layerId = m01;
shapes = (
{
closed = 1;
nodes = (
(30,341,l),
(419,341,l),
(419,400,l),
(30,400,l)
);
}
);
width = 519;
}
);
note = hyphen;
unicode = 45;
},
{
glyphname = period;
layers = (
{
layerId = m01;
shapes = (
{
closed = 1;
nodes = (
(142,69,o),
(113,98,o),
(92,98,qs),
(70,98,o),
(41,69,o),
(41,47,qs),
(41,25,o),
(70,-5,o),
(92,-5,qs),
(113,-5,o),
(142,25,o),
(142,47,qs)
);
}
);
width = 182;
}
);
note = period;
unicode = 46;
},
{
glyphname = slash;
layers = (
{
layerId = m01;
shapes = (
{
closed = 1;
nodes = (
(46,-166,l),
(115,-166,l),
(391,940,l),
(320,940,l)
);
}
);
width = 441;
}
);
note = slash;
unicode = 47;
},
{
glyphname = zero;
layers = (
{
layerId = m01;
shapes = (
{
closed = 1;
nodes = (
(65,190,o),
(170,-2,o),
(308,-2,qs),
(445,-2,o),
(551,190,o),
(551,365,qs),
(551,537,o),
(445,727,o),
(308,727,qs),
(171,727,o),
(65,537,o),
(65,365,qs)
);
},
{
closed = 1;
nodes = (
(482,269,o),
(456,140,o),
(380,62,o),
(308,62,qs),
(236,62,o),
(160,140,o),
(134,269,o),
(134,365,qs),
(134,458,o),
(160,586,o),
(236,664,o),
(308,664,qs),
(380,664,o),
(456,586,o),
(482,458,o),
(482,365,qs)
);
}
);
width = 616;
}
);
note = zero;
unicode = 48;
},
{
glyphname = one;
layers = (
{
layerId = m01;
shapes = (
{
closed = 1;
nodes = (
(130,0,l),
(201,0,l),
(201,717,l),
(31,717,l),
(31,654,l),
(130,654,l)
);
}
);
width = 292;
}
);
note = one;
unicode = 49;
},
{
glyphname = two;
layers = (
{
layerId = m01;
shapes = (
{
closed = 1;
nodes = (
(51,5,l),
(528,5,l),
(528,64,l),
(158,64,l),
(305,172,o),
(506,399,o),
(506,520,qs),
(506,620,o),
(386,729,o),
(289,729,qs),
(188,729,o),
(63,606,o),
(57,495,q),
(125,495,l),
(130,574,o),
(213,669,o),
(289,669,qs),
(367,669,o),
(436,586,o),
(436,517,qs),
(436,412,o),
(235,193,o),
(51,55,q)
);
}
);
width = 572;
}
);
note = two;
unicode = 50;
},
{
glyphname = three;
layers = (
{
layerId = m01;
shapes = (
{
closed = 1;
nodes = (
(130,534,l),
(138,598,o),
(227,669,o),
(295,669,qs),
(365,669,o),
(441,598,o),
(441,540,qs),
(441,407,o),
(237,407,qs),
(214,407,l),
(214,348,l),
(236,348,ls),
(455,348,o),
(455,196,qs),
(455,134,o),
(374,54,o),
(298,54,qs),
(221,54,o),
(127,137,o),
(118,204,q),
(50,204,l),
(60,104,o),
(194,-5,o),
(298,-5,qs),
(407,-5,o),
(522,104,o),
(522,190,qs),
(522,267,o),
(438,362,o),
(367,376,q),
(367,381,l),
(435,392,o),
(509,484,o),
(509,547,qs),
(509,599,o),
(460,682,o),
(364,730,o),
(297,730,qs),
(196,730,o),
(69,625,o),
(62,534,q)
);
}
);
width = 585;
}
);
note = three;
unicode = 51;
},
{
glyphname = four;
layers = (
{
layerId = m01;
shapes = (
{
closed = 1;
nodes = (
(412,0,l),
(481,0,l),
(481,170,l),
(588,170,l),
(588,231,l),
(481,231,l),
(481,713,l),
(398,713,l),
(34,223,l),
(34,170,l),
(412,170,l)
);
},
{
closed = 1;
nodes = (
(115,231,l),
(415,636,l),
(415,231,l)
);
}
);
width = 613;
}
);
note = four;
unicode = 52;
},
{
glyphname = five;
layers = (
{
layerId = m01;
shapes = (
{
closed = 1;
nodes = (
(86,718,l),
(86,321,l),
(152,321,l),
(173,367,o),
(261,421,o),
(319,421,qs),
(403,421,o),
(493,328,o),
(493,245,qs),
(493,160,o),
(404,57,o),
(317,57,qs),
(248,57,o),
(154,129,o),
(141,195,q),
(72,195,l),
(86,104,o),
(214,-3,o),
(317,-3,qs),
(398,-3,o),
(507,63,o),
(560,176,o),
(560,246,qs),
(560,307,o),
(514,414,o),
(410,481,o),
(328,481,qs),
(272,481,o),
(176,436,o),
(151,401,q),
(151,657,l),
(517,657,l),
(517,718,l)
);
}
);
width = 617;
}
);
note = five;
unicode = 53;
},
{
glyphname = six;
layers = (
{
layerId = m01;
shapes = (
{
closed = 1;
nodes = (
(542,542,l),
(532,626,o),
(422,731,o),
(326,731,qs),
(72,731,o),
(72,361,qs),
(72,187,o),
(185,-3,o),
(334,-3,qs),
(412,-3,o),
(517,61,o),
(568,168,o),
(568,234,qs),
(568,347,o),
(445,476,o),
(340,476,qs),
(267,476,o),
(154,407,o),
(134,347,q),
(130,520,o),
(228,672,o),
(326,672,qs),
(455,672,o),
(477,542,q)
);
},
{
closed = 1;
nodes = (
(410,416,o),
(500,318,o),
(500,231,qs),
(500,150,o),
(408,56,o),
(331,56,qs),
(239,56,o),
(143,164,o),
(143,245,qs),
(143,301,o),
(196,378,o),
(280,416,o),
(327,416,qs)
);
}
);
width = 629;
}
);
note = six;
unicode = 54;
},
{
glyphname = seven;
layers = (
{
layerId = m01;
shapes = (
{
closed = 1;
nodes = (
(26,716,l),
(26,656,l),
(426,656,l),
(144,0,l),
(215,0,l),
(494,662,l),
(494,716,l)
);
}
);
width = 533;
}
);
note = seven;
unicode = 55;
},
{
glyphname = eight;
layers = (
{
layerId = m01;
shapes = (
{
closed = 1;
nodes = (
(136,355,o),
(58,259,o),
(58,190,qs),
(58,126,o),
(121,31,o),
(236,-21,o),
(312,-21,qs),
(388,-21,o),
(503,31,o),
(566,126,o),
(566,190,qs),
(566,259,o),
(488,355,o),
(420,372,q),
(482,391,o),
(547,479,o),
(547,539,qs),
(547,593,o),
(492,678,o),
(386,727,o),
(312,727,qs),
(238,727,o),
(132,678,o),
(77,593,o),
(77,539,qs),
(77,478,o),
(142,392,o),
(204,372,q)
);
},
{
closed = 1;
nodes = (
(237,395,o),
(145,469,o),
(145,531,qs),
(145,598,o),
(235,669,o),
(312,669,qs),
(389,669,o),
(479,597,o),
(479,531,qs),
(479,469,o),
(387,395,o),
(312,395,qs)
);
},
{
closed = 1;
nodes = (
(394,341,o),
(497,266,o),
(497,192,qs),
(497,121,o),
(397,38,o),
(312,38,qs),
(226,38,o),
(126,120,o),
(126,192,qs),
(126,267,o),
(230,341,o),
(312,341,qs)
);
}
);
width = 624;
}
);
note = eight;
unicode = 56;
},
{
glyphname = nine;
layers = (
{
layerId = m01;
shapes = (
{
closed = 1;
nodes = (
(93,191,l),
(103,104,o),
(213,-3,o),
(312,-3,qs),
(447,-3,o),
(558,185,o),
(558,372,qs),
(558,545,o),
(446,730,o),
(304,730,qs),
(227,730,o),
(121,668,o),
(69,560,o),
(69,493,qs),
(69,381,o),
(196,255,o),
(301,255,qs),
(370,255,o),
(477,318,o),
(496,373,q),
(500,203,o),
(409,56,o),
(315,56,qs),
(247,56,o),
(169,126,o),
(158,191,q)
);
},
{
closed = 1;
nodes = (
(228,315,o),
(136,411,o),
(136,495,qs),
(136,575,o),
(229,671,o),
(306,671,qs),
(393,671,o),
(486,565,o),
(486,483,qs),
(486,430,o),
(438,354,o),
(359,315,o),
(312,315,qs)
);
}
);
width = 625;
}
);
note = nine;
unicode = 57;
},
{
glyphname = colon;
layers = (
{
layerId = m01;
shapes = (
{
closed = 1;
nodes = (
(142,69,o),
(113,98,o),
(92,98,qs),
(70,98,o),
(41,69,o),
(41,47,qs),
(41,25,o),
(70,-5,o),
(92,-5,qs),
(113,-5,o),
(142,25,o),
(142,47,qs)
);
},
{
closed = 1;
nodes = (
(142,504,o),
(113,533,o),
(92,533,qs),
(70,533,o),
(41,504,o),
(41,482,qs),
(41,460,o),
(70,430,o),
(92,430,qs),
(113,430,o),
(142,460,o),
(142,482,qs)
);
}
);
width = 185;
}
);
note = colon;
unicode = 58;
},
{
glyphname = semicolon;
layers = (
{
layerId = m01;
shapes = (
{
closed = 1;
nodes = (
(167,505,o),
(138,534,o),
(117,534,qs),
(95,534,o),
(66,505,o),
(66,483,qs),
(66,461,o),
(95,431,o),
(117,431,qs),
(138,431,o),
(167,461,o),
(167,483,qs)
);
},
{
closed = 1;
nodes = (
(16,-146,l),
(65,-146,l),
(168,116,l),
(90,116,l)
);
}
);
width = 227;
}
);
note = semicolon;
unicode = 59;
},
{
glyphname = less;
layers = (
{
layerId = m01;
shapes = (
{
closed = 1;
nodes = (
(159,370,l),
(411,602,l),
(322,602,l),
(71,370,l),
(322,138,l),
(411,138,l)
);
}
);
width = 504;
}
);
note = less;
unicode = 60;
},
{
glyphname = equal;
layers = (
{
layerId = m01;
shapes = (
{
closed = 1;
nodes = (
(83,239,l),
(593,239,l),
(593,298,l),
(83,298,l)
);
},
{
closed = 1;
nodes = (
(83,442,l),
(593,442,l),
(593,502,l),
(83,502,l)
);
}
);
width = 676;
}
);
note = equal;
unicode = 61;
},
{
glyphname = greater;
layers = (
{
layerId = m01;
shapes = (
{
closed = 1;
nodes = (
(78,138,l),
(167,138,l),
(418,370,l),
(167,602,l),
(78,602,l),
(330,370,l)
);
}
);
width = 492;
}
);
note = greater;
unicode = 62;
},
{
glyphname = question;
layers = (
{
layerId = m01;
shapes = (
{
closed = 1;
nodes = (
(101,510,l),
(101,574,o),
(181,648,o),
(249,648,qs),
(317,648,o),
(400,570,o),
(400,504,qs),
(400,410,o),
(281,345,o),
(178,345,qs),
(152,345,l),
(156,185,l),
(216,185,l),
(219,295,l),
(334,295,o),
(467,396,o),
(467,504,qs),
(467,565,o),
(412,658,o),
(313,708,o),
(249,708,qs),
(186,708,o),
(89,659,o),
(34,570,o),
(34,510,q)
);
},
{
closed = 1;
nodes = (
(236,69,o),
(207,98,o),
(186,98,qs),
(164,98,o),
(135,69,o),
(135,47,qs),
(135,25,o),
(164,-5,o),
(186,-5,qs),
(207,-5,o),
(236,25,o),
(236,47,qs)
);
}
);
width = 512;
}
);
note = question;
unicode = 63;
},
{
glyphname = at;
layers = (
{
layerId = m01;
shapes = (
{
closed = 1;
nodes = (
(783,-6,o),
(877,83,o),
(927,225,o),
(927,303,qs),
(927,401,o),
(839,552,o),
(675,636,o),
(567,636,qs),
(427,636,o),
(202,504,o),
(75,275,o),
(75,136,qs),
(75,36,o),
(163,-114,o),
(323,-195,o),
(428,-195,qs),
(531,-195,o),
(619,-159,q),
(608,-110,l),
(534,-144,o),
(443,-144,qs),
(299,-144,o),
(133,7,o),
(134,143,qs),
(134,265,o),
(244,467,o),
(438,585,o),
(558,585,qs),
(654,585,o),
(794,516,o),
(869,387,o),
(869,299,qs),
(869,240,o),
(836,121,o),
(773,43,o),
(730,43,qs),
(693,43,o),
(667,96,o),
(675,143,qs),
(726,434,l),
(665,434,l),
(652,360,l),
(637,402,o),
(568,446,o),
(518,446,qs),
(448,446,o),
(338,368,o),
(276,239,o),
(276,165,qs),
(276,86,o),
(361,-6,o),
(437,-6,qs),
(491,-6,o),
(587,47,o),
(618,93,q),
(620,47,o),
(671,-6,o),
(720,-6,qs)
);
},
{
closed = 1;
nodes = (
(627,183,o),
(578,97,o),
(502,49,o),
(457,49,qs),
(401,49,o),
(341,117,o),
(341,175,qs),
(341,230,o),
(385,329,o),
(465,391,o),
(518,391,qs),
(581,391,o),
(641,304,o),
(633,238,qs)
);
}
);
width = 1002;
}
);
note = at;
unicode = 64;
},
{
glyphname = A;
layers = (
{
layerId = m01;
shapes = (
{
closed = 1;
nodes = (
(539,20,ls),
(547,0,o),
(567,0,qs),
(608,0,ls),
(613,0,o),
(618,7,o),
(616,12,qs),
(369,682,ls),
(366,690,o),
(357,690,qs),
(295,690,ls),
(287,690,o),
(284,682,qs),
(36,12,ls),
(34,7,o),
(39,0,o),
(44,0,qs),
(85,0,ls),
(105,0,o),
(113,20,qs),
(164,158,ls),
(167,166,o),
(175,166,qs),
(477,166,ls),
(485,166,o),
(488,158,qs)
);
},
{
closed = 1;
nodes = (
(460,235,l),
(463,224,o),
(452,224,qs),
(200,224,ls),
(189,224,o),
(192,235,q),
(319,584,ls),
(321,590,o),
(331,590,o),
(333,584,qs)
);
}
);
width = 652;
}
);
note = A;
unicode = 65;
},
{
glyphname = B;
layers = (
{
layerId = m01;
shapes = (
{
closed = 1;
nodes = (
(478,131,o),
(393,59,o),
(317,59,qs),
(150,59,l),
(150,317,ls),
(150,324,o),
(158,332,o),
(165,332,qs),
(314,332,ls),
(389,332,o),
(478,257,o),
(478,194,qs)
);
},
{
closed = 1;
nodes = (
(461,457,o),
(384,390,o),
(313,390,qs),
(150,390,l),
(150,625,ls),
(150,632,o),
(158,640,o),
(165,640,qs),
(310,640,ls),
(384,640,o),
(461,574,o),
(461,516,qs)
);
},
{
closed = 1;
nodes = (
(548,250,o),
(472,346,o),
(415,359,qs),
(408,361,o),
(415,364,q),
(467,380,o),
(532,461,o),
(532,523,qs),
(532,601,o),
(421,699,o),
(315,699,qs),
(85,699,ls),
(80,699,o),
(80,694,qs),
(80,5,ls),
(80,0,o),
(85,0,qs),
(322,0,ls),
(393,0,o),
(495,49,o),
(548,134,o),
(548,187,qs)
);
}
);
width = 597;
}
);
note = B;
unicode = 66;
},
{
glyphname = C;
layers = (
{
layerId = m01;
shapes = (
{
closed = 1;
nodes = (
(48,247,o),
(138,85,o),
(294,-6,o),
(390,-6,qs),
(503,-6,o),
(668,98,o),
(707,192,qs),
(709,197,o),
(705,204,o),
(700,204,qs),
(651,204,ls),
(631,204,o),
(621,185,qs),
(589,123,o),
(471,55,o),
(390,55,qs),
(313,55,o),
(190,127,o),
(120,261,o),
(120,350,qs),
(120,439,o),
(190,574,o),
(313,646,o),
(390,646,qs),
(472,646,o),
(590,577,o),
(621,514,qs),
(631,495,o),
(651,495,qs),
(700,495,ls),
(705,495,o),
(709,502,o),
(707,507,qs),
(668,602,o),
(503,707,o),
(390,707,qs),
(294,707,o),
(138,616,o),
(48,453,o),
(48,350,qs)
);
}
);
width = 771;
}
);
note = C;
unicode = 67;
},
{
glyphname = D;
layers = (
{
layerId = m01;
shapes = (
{
closed = 1;
nodes = (
(105,699,ls),
(80,699,o),
(80,674,qs),
(80,5,ls),
(80,0,o),
(85,0,qs),
(287,0,ls),
(403,0,o),
(569,83,o),
(657,240,o),
(657,348,qs),
(657,457,o),
(569,615,o),
(403,699,o),
(287,699,qs)
);
},
{
closed = 1;
nodes = (
(150,58,l),
(150,616,ls),
(150,641,o),
(175,641,qs),
(287,641,ls),
(433,641,o),
(586,486,o),
(586,348,qs),
(586,211,o),
(433,58,o),
(287,58,qs)
);
}
);
width = 706;
}
);
note = D;
unicode = 68;
},
{
glyphname = E;
layers = (
{
layerId = m01;
shapes = (
{
closed = 1;
nodes = (
(445,695,ls),
(445,700,o),
(440,700,qs),
(85,700,ls),
(80,700,o),
(80,695,qs),
(80,5,ls),
(80,0,o),
(85,0,qs),
(440,0,ls),
(445,0,o),
(445,5,qs),
(445,33,ls),
(445,58,o),
(420,58,qs),
(155,58,ls),
(150,58,o),
(150,63,qs),
(150,318,ls),
(150,323,o),
(155,323,qs),
(410,323,ls),
(415,323,o),
(415,328,qs),
(415,376,ls),
(415,381,o),
(410,381,qs),
(155,381,ls),
(150,381,o),
(150,386,qs),
(150,637,ls),
(150,642,o),
(155,642,qs),
(420,642,ls),
(445,642,o),
(445,667,qs)
);
}
);
width = 503;
}
);
note = E;
unicode = 69;
},
{
glyphname = F;
layers = (
{
layerId = m01;
shapes = (
{
closed = 1;
nodes = (
(80,5,ls),
(80,0,o),
(85,0,qs),
(145,0,ls),
(150,0,o),
(150,5,qs),
(150,317,ls),
(150,322,o),
(155,322,qs),
(405,322,ls),
(410,322,o),
(410,327,qs),
(410,375,ls),
(410,380,o),
(405,380,qs),
(155,380,ls),
(150,380,o),
(150,385,qs),
(150,616,ls),
(150,641,o),
(175,641,qs),
(433,641,ls),
(458,641,o),
(458,666,qs),
(458,694,ls),
(458,699,o),
(453,699,qs),
(105,699,ls),
(80,699,o),
(80,674,qs)
);
}
);
width = 493;
}
);
note = F;
unicode = 70;
},
{
glyphname = G;
layers = (
{
layerId = m01;
shapes = (
{
closed = 1;
nodes = (
(297,707,o),
(139,616,o),
(48,453,o),
(48,350,qs),
(48,247,o),
(139,84,o),
(297,-7,o),
(394,-7,qs),
(488,-7,o),
(639,79,o),
(729,228,o),
(734,320,qs),
(734,366,ls),
(734,371,o),
(729,371,qs),
(391,371,ls),
(366,371,o),
(366,346,qs),
(366,319,ls),
(366,314,o),
(371,314,qs),
(655,314,ls),
(660,314,o),
(660,309,qs),
(654,232,o),
(582,118,o),
(466,56,o),
(394,56,qs),
(316,56,o),
(192,128,o),
(120,262,o),
(120,350,qs),
(120,438,o),
(192,571,o),
(316,643,o),
(394,643,qs),
(475,643,o),
(598,566,o),
(628,499,q),
(629,495,o),
(634,495,qs),
(706,495,ls),
(712,495,o),
(710,501,qs),
(672,598,o),
(505,707,o),
(394,707,qs)
);
}
);
width = 782;
}
);
note = G;
unicode = 71;
},
{
glyphname = H;
layers = (
{
layerId = m01;
shapes = (
{
closed = 1;
nodes = (
(529,25,ls),
(529,0,o),
(554,0,qs),
(594,0,ls),
(599,0,o),
(599,5,qs),
(599,694,ls),
(599,699,o),
(594,699,qs),
(534,699,ls),
(529,699,o),
(529,694,qs),
(529,410,ls),
(529,385,o),
(504,385,qs),
(155,385,ls),
(150,385,o),
(150,390,qs),
(150,674,ls),
(150,699,o),
(125,699,qs),
(85,699,ls),
(80,699,o),
(80,694,qs),
(80,5,ls),
(80,0,o),
(85,0,qs),
(145,0,ls),
(150,0,o),
(150,5,qs),
(150,302,ls),
(150,327,o),
(175,327,qs),
(524,327,ls),
(529,327,o),
(529,322,qs)
);
}
);
width = 679;
}
);
note = H;
unicode = 72;
},
{
glyphname = I;
layers = (
{
layerId = m01;
shapes = (
{
closed = 1;
nodes = (
(80,5,ls),
(80,0,o),
(85,0,qs),
(145,0,ls),
(150,0,o),
(150,5,qs),
(150,694,ls),
(150,699,o),
(145,699,qs),
(85,699,ls),
(80,699,o),
(80,694,qs)
);
}
);
width = 229;
}
);
note = I;
unicode = 73;
},
{
glyphname = J;
layers = (
{
layerId = m01;
shapes = (
{
closed = 1;
nodes = (
(333,170,ls),
(333,121,o),
(279,55,o),
(223,55,qs),
(171,55,o),
(116,112,o),
(110,160,qs),
(107,184,o),
(84,184,qs),
(42,184,ls),
(37,184,o),
(37,179,qs),
(38,93,o),
(139,-7,o),
(223,-7,qs),
(305,-7,o),
(403,90,o),
(403,170,qs),
(403,694,ls),
(403,699,o),
(398,699,qs),
(358,699,ls),
(333,699,o),
(333,674,qs)
);
}
);
width = 499;
}
);
note = J;
unicode = 74;
},
{
glyphname = K;
layers = (
{
layerId = m01;
shapes = (
{
closed = 1;
nodes = (
(450,3,l),
(452,0,o),
(457,0,qs),
(537,0,ls),
(544,0,o),
(539,6,qs),
(232,332,ls),
(224,340,o),
(224,360,o),
(232,368,qs),
(536,693,ls),
(541,699,o),
(534,699,qs),
(457,699,ls),
(453,699,o),
(451,696,q),
(181,405,ls),
(170,393,o),
(150,401,o),
(150,417,qs),
(150,674,ls),
(150,699,o),
(125,699,qs),
(85,699,ls),
(80,699,o),
(80,694,qs),
(80,25,ls),
(80,0,o),
(105,0,qs),
(145,0,ls),
(150,0,o),
(150,5,qs),
(150,278,ls),
(150,294,o),
(170,302,o),
(181,290,qs)
);
}
);
width = 568;
}
);
note = K;
unicode = 75;
},
{
glyphname = L;
layers = (
{
layerId = m01;
shapes = (
{
closed = 1;
nodes = (
(85,699,ls),
(80,699,o),
(80,694,qs),
(80,5,ls),
(80,0,o),
(85,0,qs),
(396,0,ls),
(401,0,o),
(401,5,qs),
(401,32,ls),
(401,57,o),
(376,57,qs),
(175,57,ls),
(150,57,o),
(150,82,qs),
(150,674,ls),
(150,699,o),
(125,699,qs)
);
}
);
width = 421;
}
);
note = L;
unicode = 76;
},
{
glyphname = M;
layers = (
{
layerId = m01;
shapes = (
{
closed = 1;
nodes = (
(80,5,ls),
(80,0,o),
(85,0,qs),
(125,0,ls),
(150,0,o),
(150,25,qs),
(150,535,ls),
(150,539,o),
(154,539,o),
(156,536,q),
(388,19,ls),
(397,0,o),
(417,0,qs),
(426,0,ls),
(446,0,o),
(455,19,qs),
(687,538,l),
(689,541,o),
(693,541,o),
(693,537,qs),
(693,25,ls),
(693,0,o),
(718,0,qs),
(758,0,ls),
(763,0,o),
(763,5,qs),
(763,685,ls),
(763,690,o),
(758,690,qs),
(709,690,ls),
(689,690,o),
(680,671,qs),
(438,130,ls),
(431,115,o),
(411,115,o),
(404,130,qs),
(162,671,ls),
(153,690,o),
(133,690,qs),
(85,690,ls),
(80,690,o),
(80,685,qs)
);
}
);
width = 842;
}
);
note = M;
unicode = 77;
},
{
glyphname = N;
layers = (
{
layerId = m01;
shapes = (
{
closed = 1;
nodes = (
(562,699,ls),
(537,699,o),
(537,674,qs),
(537,123,ls),
(537,120,o),
(532,118,o),
(531,121,q),
(161,683,ls),
(151,699,o),
(131,699,qs),
(85,699,ls),
(80,699,o),
(80,694,qs),
(80,5,ls),
(80,0,o),
(85,0,qs),
(125,0,ls),
(150,0,o),
(150,25,qs),
(150,577,ls),
(150,580,o),
(155,582,o),
(156,579,q),
(526,16,ls),
(536,0,o),
(556,0,qs),
(602,0,ls),
(607,0,o),
(607,5,qs),
(607,694,ls),
(607,699,o),
(602,699,qs)
);
}
);
width = 686;
}
);
note = N;
unicode = 78;
},
{
glyphname = O;
layers = (
{
layerId = m01;
shapes = (
{
closed = 1;
nodes = (
(728,450,o),
(640,608,o),
(487,695,o),
(393,695,qs),
(299,695,o),
(146,608,o),
(58,450,o),
(58,349,qs),
(58,248,o),
(146,90,o),
(299,3,o),
(393,3,qs),
(487,3,o),
(640,90,o),
(728,248,o),
(728,349,qs)
);
},
{
closed = 1;
nodes = (
(121,435,o),
(191,566,o),
(315,636,o),
(393,636,qs),
(471,636,o),
(595,566,o),
(665,435,o),
(665,349,qs),
(665,263,o),
(595,133,o),
(471,62,o),
(393,62,qs),
(315,62,o),
(191,133,o),
(121,263,o),
(121,349,qs)
);
}
);
width = 788;
}
);
note = O;
unicode = 79;
},
{
glyphname = P;
layers = (
{
layerId = m01;
shapes = (
{
closed = 1;
nodes = (
(150,358,l),
(150,615,ls),
(150,640,o),
(175,640,qs),
(291,640,ls),
(377,640,o),
(455,568,o),
(455,498,qs),
(455,358,o),
(291,358,qs)
);
},
{
closed = 1;
nodes = (
(527,589,o),
(408,699,o),
(291,699,qs),
(105,699,ls),
(80,699,o),
(80,674,qs),
(80,5,ls),
(80,0,o),
(85,0,qs),
(125,0,ls),
(150,0,o),
(150,25,qs),
(150,298,l),
(291,298,ls),
(409,298,o),
(527,408,o),
(527,498,qs)
);
}
);
width = 564;
}
);
note = P;
unicode = 80;
},
{
glyphname = Q;
layers = (
{
layerId = m01;
shapes = (
{
closed = 1;
nodes = (
(120,439,o),
(192,573,o),
(316,645,o),
(394,645,qs),
(472,645,o),
(596,573,o),
(668,439,o),
(668,350,qs),
(668,261,o),
(596,126,o),
(472,54,o),
(394,54,qs),
(316,54,o),
(192,126,o),
(120,261,o),
(120,350,qs)
);
},
{
closed = 1;
nodes = (
(740,453,o),
(650,616,o),
(492,707,o),
(394,707,qs),
(297,707,o),
(139,616,o),
(48,453,o),
(48,350,qs),
(48,247,o),
(139,84,o),
(297,-7,o),
(394,-7,qs),
(446,-7,o),
(497,7,qs),
(501,8,o),
(504,5,qs),
(654,-135,l),
(658,-136,o),
(661,-137,q),
(742,-137,ls),
(745,-137,o),
(746,-133,o),
(744,-131,qs),
(568,31,ls),
(564,35,o),
(569,38,qs),
(649,83,o),
(740,246,o),
(740,350,qs)
);
}
);
width = 789;
}
);
note = Q;
unicode = 81;
},
{
glyphname = R;
layers = (
{
layerId = m01;
shapes = (
{
closed = 1;
nodes = (
(456,429,o),
(373,349,o),
(291,349,qs),
(150,349,l),
(150,615,ls),
(150,640,o),
(175,640,qs),
(290,640,ls),
(376,640,o),
(456,565,o),
(456,496,qs)
);
},
{
closed = 1;
nodes = (
(105,699,ls),
(80,699,o),
(80,674,qs),
(80,5,ls),
(80,0,o),
(85,0,qs),
(145,0,ls),
(150,0,o),
(150,5,qs),
(150,292,l),
(279,292,l),
(442,17,ls),
(453,0,o),
(472,0,qs),
(529,0,ls),
(535,0,o),
(532,6,qs),
(356,297,l),
(441,313,o),
(528,420,o),
(528,496,qs),
(528,587,o),
(407,699,o),
(290,699,qs)
);
}
);
width = 587;
}
);
note = R;
unicode = 82;
},
{
glyphname = S;
layers = (
{
layerId = m01;
shapes = (
{
closed = 1;
nodes = (
(517,248,o),
(459,324,o),
(375,361,o),
(307,380,qs),
(248,396,o),
(179,424,o),
(133,478,o),
(133,522,qs),
(133,581,o),
(219,648,o),
(283,647,qs),
(341,646,o),
(416,595,o),
(429,558,qs),
(434,547,o),
(446,537,o),
(457,537,qs),
(506,537,ls),
(512,537,o),
(510,542,q),
(499,615,o),
(381,707,o),
(286,707,qs),
(220,707,o),
(118,659,o),
(62,574,o),
(62,520,qs),
(62,455,o),
(120,379,o),
(202,343,o),
(272,324,qs),
(332,308,o),
(400,281,o),
(446,226,o),
(446,181,qs),
(446,125,o),
(363,52,o),
(292,52,qs),
(224,52,o),
(146,113,o),
(134,158,qs),
(128,180,o),
(107,180,qs),
(61,180,ls),
(56,180,o),
(56,175,qs),
(59,123,o),
(120,40,o),
(224,-7,o),
(292,-7,qs),
(363,-7,o),
(465,47,o),
(517,135,o),
(517,184,qs)
);
}
);
width = 572;
}
);
note = S;
unicode = 83;
},
{
glyphname = T;
layers = (
{
layerId = m01;
shapes = (
{
closed = 1;
nodes = (
(30,646,ls),
(30,641,o),
(35,641,qs),
(200,641,ls),
(225,641,o),
(225,616,qs),
(225,5,ls),
(225,0,o),
(230,0,qs),
(290,0,ls),
(295,0,o),
(295,5,qs),
(295,616,ls),
(295,641,o),
(320,641,qs),
(484,641,ls),
(489,641,o),
(489,646,qs),
(489,694,ls),
(489,699,o),
(484,699,qs),
(35,699,ls),
(30,699,o),
(30,694,qs)
);
}
);
width = 520;
}
);
note = T;
unicode = 84;
},
{
glyphname = U;
layers = (
{
layerId = m01;
shapes = (
{
closed = 1;
nodes = (
(77,260,ls),
(77,127,o),
(218,-7,o),
(331,-7,qs),
(444,-7,o),
(585,127,o),
(585,260,qs),
(585,694,ls),
(585,699,o),
(580,699,qs),
(540,699,ls),
(515,699,o),
(515,674,qs),
(515,259,ls),
(515,154,o),
(418,55,o),
(332,55,qs),
(246,55,o),
(147,155,o),
(147,259,qs),
(147,674,ls),
(147,699,o),
(122,699,qs),
(82,699,ls),
(77,699,o),
(77,694,qs)
);
}
);
width = 661;
}
);
note = U;
unicode = 85;
},
{
glyphname = V;
layers = (
{
layerId = m01;
shapes = (
{
closed = 1;
nodes = (
(345,120,ls),
(339,104,o),
(319,104,o),
(313,120,qs),
(107,679,ls),
(99,699,o),
(79,699,qs),
(30,699,ls),
(25,699,o),
(26,693,q),
(281,20,ls),
(289,0,o),
(310,0,qs),
(348,0,ls),
(369,0,o),
(377,20,qs),
(632,693,ls),
(634,699,o),
(628,699,qs),
(581,699,ls),
(561,699,o),
(553,679,qs)
);
}
);
width = 659;
}
);
note = V;
unicode = 86;
},
{
glyphname = W;
layers = (
{
layerId = m01;
shapes = (
{
closed = 1;
nodes = (
(214,20,ls),
(220,-1,o),
(242,-1,qs),
(274,0,ls),
(296,0,o),
(302,21,qs),
(460,543,ls),
(465,561,o),
(487,561,o),
(492,543,qs),
(646,21,ls),
(652,0,o),
(674,0,qs),
(708,0,ls),
(730,0,o),
(736,21,qs),
(926,693,ls),
(928,699,o),
(922,699,qs),
(875,699,ls),
(853,699,o),
(847,678,qs),
(707,143,ls),
(703,125,o),
(681,125,o),
(676,143,qs),
(524,668,ls),
(518,689,o),
(496,689,qs),
(462,689,ls),
(440,689,o),
(434,668,qs),
(278,142,ls),
(273,125,o),
(250,125,o),
(246,143,qs),
(107,678,ls),
(101,699,o),
(79,699,qs),
(32,699,ls),
(27,699,o),
(28,693,q)
);
}
);
width = 955;
}
);
note = W;
unicode = 87;
},
{
glyphname = X;
layers = (
{
layerId = m01;
shapes = (
{
closed = 1;
nodes = (
(464,3,ls),
(466,0,o),
(470,0,qs),
(537,0,ls),
(543,0,o),
(540,6,qs),
(342,332,ls),
(333,348,o),
(343,366,qs),
(541,693,ls),
(544,699,o),
(538,699,qs),
(471,699,ls),
(467,699,o),
(465,696,qs),
(313,437,ls),
(306,424,o),
(286,425,o),
(278,437,qs),
(121,696,l),
(120,699,o),
(115,699,qs),
(48,699,ls),
(42,699,o),
(45,693,qs),
(242,369,ls),
(252,352,o),
(242,335,qs),
(45,6,ls),
(42,0,o),
(48,0,qs),
(115,0,ls),
(120,0,o),
(121,3,q),
(271,263,ls),
(278,276,o),
(298,275,o),
(306,263,qs)
);
}
);
width = 585;
}
);
note = X;
unicode = 88;
},
{
glyphname = Y;
layers = (
{
layerId = m01;
shapes = (
{
closed = 1;
nodes = (
(248,272,l),
(248,5,ls),
(248,0,o),
(253,0,qs),
(313,0,ls),
(318,0,o),
(318,5,qs),
(318,272,l),
(539,693,ls),
(542,699,o),
(535,699,qs),
(468,699,ls),
(464,699,o),
(462,695,qs),
(300,370,ls),
(293,356,o),
(273,356,o),
(266,370,qs),
(103,695,ls),
(101,699,o),
(97,699,qs),
(29,699,ls),
(22,699,o),
(25,693,qs)
);
}
);
width = 564;
}
);
note = Y;
unicode = 89;
},
{
glyphname = Z;
layers = (
{
layerId = m01;
shapes = (
{
closed = 1;
nodes = (
(477,643,l),
(477,694,ls),
(477,699,o),
(472,699,qs),
(54,699,ls),
(49,699,o),
(49,694,qs),
(49,662,ls),
(49,637,o),
(74,637,qs),
(388,637,ls),
(394,637,o),
(391,631,qs),
(43,56,l),
(43,5,ls),
(43,0,o),
(48,0,qs),
(477,0,ls),
(482,0,o),
(482,5,qs),
(482,37,ls),
(482,62,o),
(457,62,qs),
(132,62,ls),
(126,62,o),
(129,68,qs)
);
}
);
width = 525;
}
);
note = Z;
unicode = 90;
},
{
glyphname = bracketleft;
layers = (
{
layerId = m01;
shapes = (
{
closed = 1;
nodes = (
(119,-186,l),
(273,-186,l),
(273,-127,l),
(185,-127,l),
(185,876,l),
(273,876,l),
(273,934,l),
(119,934,l)
);
}
);
width = 367;
}
);
note = bracketleft;
unicode = 91;
},
{
glyphname = backslash;
layers = (
{
layerId = m01;
shapes = (
{
closed = 1;
nodes = (
(172,940,l),
(101,940,l),
(427,-166,l),
(496,-166,l)
);
}
);
width = 603;
}
);
note = backslash;
unicode = 92;
},
{
glyphname = bracketright;
layers = (
{
layerId = m01;
shapes = (
{
closed = 1;
nodes = (
(248,-186,l),
(94,-186,l),
(94,-127,l),
(182,-127,l),
(182,876,l),
(94,876,l),
(94,934,l),
(248,934,l)
);
}
);
width = 367;
}
);
note = bracketright;
unicode = 93;
},
{
glyphname = asciicircum;
layers = (
{
layerId = m01;
shapes = (
{
closed = 1;
nodes = (
(496,171,l),
(569,171,l),
(335,690,l),
(272,690,l),
(38,171,l),
(110,171,l),
(304,602,l)
);
}
);
width = 606;
}
);
note = asciicircum;
unicode = 94;
},
{
glyphname = underscore;
layers = (
{
layerId = m01;
shapes = (
{
closed = 1;
nodes = (
(86,-100,l),
(595,-100,l),
(595,-35,l),
(86,-35,l)
);
}
);
width = 674;
}
);
note = underscore;
unicode = 95;
},
{
glyphname = grave;
layers = (
{
layerId = m01;
shapes = (
{
closed = 1;
nodes = (
(24,707,l),
(229,588,l),
(229,642,l),
(24,770,l)
);
}
);
width = 260;
}
);
note = grave;
unicode = 96;
},
{
glyphname = a;
lastChange = "2023-01-11 15:36:40 +0000";
layers = (
{
layerId = m01;
shapes = (
{
closed = 1;
nodes = (
(523,25,ls),
(523,11,o),
(532,0,o),
(543,0,qs),
(579,0,ls),
(584,0,o),
(584,5,qs),
(584,523,ls),
(584,537,o),
(575,548,o),
(564,548,qs),
(528,548,ls),
(523,548,o),
(523,543,qs),
(523,382,l),
(519,423,o),
(466,499,o),
(369,546,o),
(303,546,qs),
(234,546,o),
(122,478,o),
(58,353,o),
(58,271,qs),
(58,189,o),
(122,66,o),
(233,0,o),
(303,0,qs),
(377,0,o),
(479,60,o),
(523,137,q)
);
},
{
closed = 1;
nodes = (
(110,334,o),
(162,428,o),
(251,479,o),
(304,479,qs),
(357,479,o),
(445,429,o),
(498,334,o),
(498,272,qs),
(498,210,o),
(445,117,o),
(356,66,o),
(304,66,qs),
(250,66,o),
(162,115,o),
(110,208,o),
(110,271,qs)
);
}
);
width = 675;
}
);
note = a;
unicode = 97;
},
{
glyphname = b;
layers = (
{
layerId = m01;
shapes = (
{
closed = 1;
nodes = (
(149,735,ls),
(149,740,o),
(144,740,qs),
(105,740,ls),
(80,740,o),
(80,715,qs),
(80,5,ls),
(80,0,o),
(85,0,qs),
(124,0,ls),
(149,0,o),
(149,25,qs),
(149,120,l),
(175,63,o),
(288,-8,o),
(366,-8,qs),
(440,-8,o),
(559,62,o),
(626,190,o),
(626,274,qs),
(626,358,o),
(559,485,o),
(441,554,o),
(366,554,qs),
(289,554,o),
(176,482,o),
(149,425,q)
);
},
{
closed = 1;
nodes = (
(566,207,o),
(513,106,o),
(421,53,o),
(363,53,qs),
(307,53,o),
(214,107,o),
(160,207,o),
(160,273,qs),
(160,339,o),
(214,439,o),
(307,493,o),
(363,493,qs),
(421,493,o),
(513,441,o),
(566,342,o),
(566,274,qs)
);
}
);
width = 675;
}
);
note = b;
unicode = 98;
},
{
glyphname = c;
layers = (
{
layerId = m01;
shapes = (
{
closed = 1;
nodes = (
(48,188,o),
(116,61,o),
(236,-8,o),
(313,-8,qs),
(412,-8,o),
(542,90,o),
(563,172,qs),
(564,175,o),
(560,178,o),
(558,178,qs),
(502,178,ls),
(489,178,o),
(485,165,qs),
(468,111,o),
(378,51,o),
(313,51,qs),
(258,51,o),
(170,101,o),
(119,201,o),
(119,273,qs),
(119,345,o),
(170,444,o),
(258,494,o),
(313,494,qs),
(378,494,o),
(469,434,o),
(486,381,qs),
(489,368,o),
(502,368,qs),
(558,368,ls),
(560,368,o),
(564,371,o),
(563,374,qs),
(542,457,o),
(412,554,o),
(313,554,qs),
(236,554,o),
(116,485,o),
(48,358,o),
(48,273,qs)
);
}
);
width = 613;
}
);
note = c;
unicode = 99;
},
{
glyphname = d;
layers = (
{
layerId = m01;
shapes = (
{
closed = 1;
nodes = (
(48,190,o),
(115,62,o),
(234,-8,o),
(309,-8,qs),
(386,-8,o),
(500,65,o),
(525,122,q),
(525,25,ls),
(525,0,o),
(550,0,qs),
(590,0,ls),
(595,0,o),
(595,5,qs),
(595,715,ls),
(595,740,o),
(570,740,qs),
(530,740,ls),
(525,740,o),
(525,735,qs),
(525,428,l),
(498,484,o),
(382,554,o),
(310,554,qs),
(235,554,o),
(116,485,o),
(48,358,o),
(48,274,qs)
);
},
{
closed = 1;
nodes = (
(514,207,o),
(460,107,o),
(367,53,o),
(311,53,qs),
(253,53,o),
(161,106,o),
(108,207,o),
(108,274,qs),
(108,342,o),
(161,441,o),
(253,493,o),
(311,493,qs),
(367,493,o),
(460,439,o),
(514,339,o),
(514,273,qs)
);
}
);
width = 675;
}
);
note = d;
unicode = 100;
},
{
glyphname = e;
layers = (
{
layerId = m01;
shapes = (
{
closed = 1;
nodes = (
(364,494,o),
(451,452,o),
(503,368,o),
(503,309,qs),
(503,303,o),
(498,303,qs),
(124,303,ls),
(119,303,o),
(119,308,qs),
(126,397,o),
(236,494,o),
(313,494,qs)
);
},
{
closed = 1;
nodes = (
(514,173,ls),
(494,173,o),
(485,153,qs),
(466,106,o),
(378,51,o),
(316,51,qs),
(264,51,o),
(176,96,o),
(122,184,o),
(119,246,q),
(567,246,ls),
(572,246,o),
(572,251,qs),
(574,267,o),
(574,301,qs),
(574,371,o),
(511,486,o),
(394,554,o),
(316,554,qs),
(238,554,o),
(116,486,o),
(48,358,o),
(48,273,qs),
(48,188,o),
(117,61,o),
(239,-8,o),
(316,-8,qs),
(414,-8,o),
(544,89,o),
(565,167,qs),
(566,170,o),
(562,173,o),
(560,173,qs)
);
}
);
width = 622;
}
);
note = e;
unicode = 101;
},
{
glyphname = f;
layers = (
{
layerId = m01;
shapes = (
{
closed = 1;
nodes = (
(98,5,ls),
(98,0,o),
(103,0,qs),
(163,0,ls),
(168,0,o),
(168,5,qs),
(168,482,ls),
(168,487,o),
(173,487,qs),
(290,487,ls),
(295,487,o),
(295,492,qs),
(295,541,ls),
(295,546,o),
(290,546,qs),
(173,546,ls),
(168,546,o),
(168,551,qs),
(168,584,ls),
(168,639,o),
(212,692,o),
(266,696,qs),
(291,698,o),
(291,722,qs),
(291,752,ls),
(291,757,o),
(286,757,qs),
(187,756,o),
(98,672,o),
(98,584,qs),
(98,551,ls),
(98,546,o),
(93,546,qs),
(27,546,ls),
(22,546,o),
(22,541,qs),
(22,492,ls),
(22,487,o),
(27,487,qs),
(73,487,ls),
(98,487,o),
(98,462,qs)
);
}
);
width = 325;
}
);
note = f;
unicode = 102;
},
{
glyphname = g;
layers = (
{
layerId = m01;
shapes = (
{
closed = 1;
nodes = (
(48,190,o),
(115,62,o),
(234,-8,o),
(309,-8,qs),
(386,-8,o),
(499,65,o),
(525,121,q),
(525,-14,ls),
(525,-74,o),
(477,-162,o),
(393,-207,o),
(340,-207,qs),
(268,-207,o),
(168,-141,o),
(149,-86,qs),
(148,-82,o),
(144,-82,qs),
(85,-82,ls),
(83,-82,o),
(79,-85,o),
(80,-87,q),
(98,-171,o),
(236,-268,o),
(340,-268,qs),
(414,-268,o),
(530,-205,o),
(595,-89,o),
(595,-14,qs),
(595,541,ls),
(595,546,o),
(590,546,qs),
(550,546,ls),
(525,546,o),
(525,521,qs),
(525,427,l),
(500,482,o),
(386,554,o),
(309,554,qs),
(234,554,o),
(115,485,o),
(48,358,o),
(48,274,qs)
);
},
{
closed = 1;
nodes = (
(518,207,o),
(464,107,o),
(371,53,o),
(315,53,qs),
(257,53,o),
(165,106,o),
(112,207,o),
(112,274,qs),
(112,342,o),
(165,441,o),
(257,493,o),
(315,493,qs),
(371,493,o),
(464,439,o),
(518,339,o),
(518,273,qs)
);
}
);
width = 675;
}
);
note = g;
unicode = 103;
},
{
glyphname = h;
layers = (
{
layerId = m01;
shapes = (
{
closed = 1;
nodes = (
(80,5,ls),
(80,0,o),
(85,0,qs),
(145,0,ls),
(150,0,o),
(150,5,qs),
(150,298,ls),
(150,395,o),
(244,495,o),
(323,495,qs),
(400,495,o),
(489,401,o),
(489,312,qs),
(489,25,ls),
(489,0,o),
(514,0,qs),
(553,0,ls),
(558,0,o),
(558,5,qs),
(558,320,ls),
(558,397,o),
(501,504,o),
(402,556,o),
(340,556,qs),
(277,556,o),
(176,502,o),
(150,453,q),
(150,715,ls),
(150,740,o),
(125,740,qs),
(85,740,ls),
(80,740,o),
(80,735,qs)
);
}
);
width = 633;
}
);
note = h;
unicode = 104;
},
{
glyphname = i;
layers = (
{
layerId = m01;
shapes = (
{
closed = 1;
nodes = (
(80,25,ls),
(80,0,o),
(105,0,qs),
(145,0,ls),
(150,0,o),
(150,5,qs),
(150,521,ls),
(150,546,o),
(125,546,qs),
(85,546,ls),
(80,546,o),
(80,541,qs)
);
},
{
closed = 1;
nodes = (
(136,649,o),
(166,679,o),
(166,701,qs),
(166,723,o),
(136,752,o),
(115,752,qs),
(94,752,o),
(64,723,o),
(64,701,qs),
(64,679,o),
(94,649,o),
(115,649,qs)
);
}
);
width = 229;
}
);
note = i;
unicode = 105;
},
{
glyphname = j;
layers = (
{
layerId = m01;
shapes = (
{
closed = 1;
nodes = (
(141,649,o),
(170,679,o),
(170,701,qs),
(170,723,o),
(141,752,o),
(120,752,qs),
(99,752,o),
(69,723,o),
(69,701,qs),
(69,679,o),
(99,649,o),
(120,649,qs)
);
},
{
closed = 1;
nodes = (
(89,546,ls),
(84,546,o),
(84,541,qs),
(84,-126,ls),
(84,-165,o),
(50,-198,o),
(11,-198,qs),
(-2,-198,ls),
(-27,-198,o),
(-27,-223,qs),
(-27,-253,ls),
(-27,-258,o),
(-22,-258,qs),
(22,-258,ls),
(88,-258,o),
(154,-195,o),
(154,-129,qs),
(154,521,ls),
(154,546,o),
(129,546,qs)
);
}
);
width = 234;
}
);
note = j;
unicode = 106;
},
{
glyphname = k;
layers = (
{
layerId = m01;
shapes = (
{
closed = 1;
nodes = (
(80,25,ls),
(80,0,o),
(105,0,qs),
(145,0,ls),
(150,0,o),
(150,5,qs),
(150,199,ls),
(150,216,o),
(170,224,o),
(181,211,qs),
(373,3,l),
(375,0,o),
(379,0,qs),
(462,0,ls),
(469,0,o),
(464,6,qs),
(226,256,ls),
(218,264,o),
(218,284,o),
(226,292,qs),
(462,540,ls),
(467,546,o),
(460,546,qs),
(374,546,ls),
(370,546,o),
(368,543,q),
(181,336,ls),
(170,323,o),
(150,331,o),
(150,348,qs),
(150,715,ls),
(150,740,o),
(125,740,qs),
(85,740,ls),
(80,740,o),
(80,735,qs)
);
}
);
width = 480;
}
);
note = k;
unicode = 107;
},
{
glyphname = l;
layers = (
{
layerId = m01;
shapes = (
{
closed = 1;
nodes = (
(80,25,ls),
(80,0,o),
(105,0,qs),
(145,0,ls),
(150,0,o),
(150,5,qs),
(150,735,ls),
(150,740,o),
(145,740,qs),
(85,740,ls),
(80,740,o),
(80,735,qs)
);
}
);
width = 229;
}
);
note = l;
unicode = 108;
},
{
glyphname = m;
layers = (
{
layerId = m01;
shapes = (
{
closed = 1;
nodes = (
(878,25,ls),
(878,0,o),
(903,0,qs),
(942,0,ls),
(947,0,o),
(947,5,qs),
(947,320,ls),
(947,435,o),
(826,556,o),
(730,556,qs),
(661,556,o),
(545,486,o),
(523,422,q),
(499,489,o),
(400,556,o),
(331,556,qs),
(272,556,o),
(176,503,o),
(150,452,q),
(150,521,ls),
(150,546,o),
(125,546,qs),
(85,546,ls),
(80,546,o),
(80,541,qs),
(80,5,ls),
(80,0,o),
(85,0,qs),
(145,0,ls),
(150,0,o),
(150,5,qs),
(150,296,ls),
(150,393,o),
(242,495,o),
(319,495,qs),
(394,495,o),
(480,401,o),
(480,312,qs),
(480,25,ls),
(480,0,o),
(505,0,qs),
(544,0,ls),
(549,0,o),
(549,5,qs),
(549,296,ls),
(549,393,o),
(641,495,o),
(718,495,qs),
(792,495,o),
(878,401,o),
(878,312,qs)
);
}
);
width = 1022;
}
);
note = m;
unicode = 109;
},
{
glyphname = n;
layers = (
{
layerId = m01;
shapes = (
{
closed = 1;
nodes = (
(489,25,ls),
(489,0,o),
(514,0,qs),
(553,0,ls),
(558,0,o),
(558,5,qs),
(558,320,ls),
(558,435,o),
(434,556,o),
(336,556,qs),
(274,556,o),
(176,503,o),
(150,453,q),
(150,521,ls),
(150,546,o),
(125,546,qs),
(85,546,ls),
(80,546,o),
(80,541,qs),
(80,5,ls),
(80,0,o),
(85,0,qs),
(145,0,ls),
(150,0,o),
(150,5,qs),
(150,298,ls),
(150,395,o),
(244,495,o),
(323,495,qs),
(400,495,o),
(489,401,o),
(489,312,qs)
);
}
);
width = 633;
}
);
note = n;
unicode = 110;
},
{
glyphname = o;
layers = (
{
layerId = m01;
shapes = (
{
closed = 1;
nodes = (
(582,358,o),
(514,481,o),
(395,547,o),
(320,547,qs),
(246,547,o),
(126,481,o),
(58,358,o),
(58,275,qs),
(58,191,o),
(125,67,o),
(242,1,o),
(316,1,qs),
(391,1,o),
(512,67,o),
(582,192,o),
(582,275,qs)
);
},
{
closed = 1;
nodes = (
(121,344,o),
(175,440,o),
(265,488,o),
(319,488,qs),
(372,488,o),
(463,440,o),
(519,344,o),
(519,275,qs),
(519,206,o),
(462,109,o),
(370,61,o),
(316,61,qs),
(263,61,o),
(174,109,o),
(121,206,o),
(121,275,qs)
);
}
);
width = 642;
}
);
note = o;
unicode = 111;
},
{
glyphname = p;
layers = (
{
layerId = m01;
shapes = (
{
closed = 1;
nodes = (
(149,521,ls),
(149,546,o),
(124,546,qs),
(85,546,ls),
(80,546,o),
(80,541,qs),
(80,-233,ls),
(80,-258,o),
(105,-258,qs),
(144,-258,ls),
(149,-258,o),
(149,-253,qs),
(149,120,l),
(175,65,o),
(289,-8,o),
(366,-8,qs),
(440,-8,o),
(559,62,o),
(626,190,o),
(626,274,qs),
(626,358,o),
(559,485,o),
(440,554,o),
(366,554,qs),
(288,554,o),
(175,481,o),
(149,426,q)
);
},
{
closed = 1;
nodes = (
(569,207,o),
(516,106,o),
(424,53,o),
(366,53,qs),
(310,53,o),
(217,107,o),
(163,207,o),
(163,273,qs),
(163,339,o),
(217,439,o),
(310,493,o),
(366,493,qs),
(424,493,o),
(516,441,o),
(569,342,o),
(569,274,qs)
);
}
);
width = 675;
}
);
note = p;
unicode = 112;
},
{
glyphname = q;
layers = (
{
layerId = m01;
shapes = (
{
closed = 1;
nodes = (
(48,190,o),
(115,62,o),
(234,-8,o),
(308,-8,qs),
(386,-8,o),
(501,65,o),
(525,120,q),
(525,-253,ls),
(525,-258,o),
(530,-258,qs),
(570,-258,ls),
(595,-258,o),
(595,-233,qs),
(595,541,ls),
(595,546,o),
(590,546,qs),
(550,546,ls),
(525,546,o),
(525,521,qs),
(525,426,l),
(501,481,o),
(387,554,o),
(310,554,qs),
(235,554,o),
(116,485,o),
(48,358,o),
(48,274,qs)
);
},
{
closed = 1;
nodes = (
(517,207,o),
(463,107,o),
(370,53,o),
(314,53,qs),
(256,53,o),
(164,106,o),
(111,207,o),
(111,274,qs),
(111,342,o),
(164,441,o),
(256,493,o),
(314,493,qs),
(370,493,o),
(463,439,o),
(517,339,o),
(517,273,qs)
);
}
);
width = 675;
}
);
note = q;
unicode = 113;
},
{
glyphname = r;
layers = (
{
layerId = m01;
shapes = (
{
closed = 1;
nodes = (
(150,305,ls),
(150,401,o),
(242,483,o),
(318,483,qs),
(337,483,o),
(337,508,qs),
(337,551,ls),
(337,556,o),
(332,556,qs),
(265,555,o),
(172,499,o),
(150,449,q),
(150,521,ls),
(150,546,o),
(125,546,qs),
(85,546,ls),
(80,546,o),
(80,541,qs),
(80,5,ls),
(80,0,o),
(85,0,qs),
(145,0,ls),
(150,0,o),
(150,5,qs)
);
}
);
width = 362;
}
);
note = r;
unicode = 114;
},
{
glyphname = s;
layers = (
{
layerId = m01;
shapes = (
{
closed = 1;
nodes = (
(457,193,o),
(407,251,o),
(337,281,o),
(278,297,qs),
(229,311,o),
(171,334,o),
(132,375,o),
(132,407,qs),
(132,444,o),
(198,494,o),
(251,494,qs),
(303,494,o),
(370,448,o),
(379,410,qs),
(385,387,o),
(406,387,qs),
(448,387,ls),
(453,387,o),
(453,392,qs),
(446,468,o),
(340,554,o),
(253,554,qs),
(197,554,o),
(109,514,o),
(61,446,o),
(61,406,qs),
(61,353,o),
(114,290,o),
(190,258,o),
(251,242,qs),
(298,230,o),
(353,209,o),
(389,173,o),
(389,145,qs),
(389,105,o),
(324,51,o),
(267,51,qs),
(210,51,o),
(137,95,o),
(125,132,qs),
(117,154,o),
(97,154,qs),
(53,154,ls),
(47,154,o),
(49,149,q),
(57,77,o),
(176,-8,o),
(268,-8,qs),
(324,-8,o),
(410,32,o),
(458,101,o),
(458,145,qs)
);
}
);
width = 510;
}
);
note = s;
unicode = 115;
},
{
glyphname = t;
layers = (
{
layerId = m01;
shapes = (
{
closed = 1;
nodes = (
(100,148,ls),
(100,69,o),
(172,0,o),
(246,0,qs),
(316,0,ls),
(321,0,o),
(321,5,qs),
(321,35,ls),
(321,60,o),
(296,60,qs),
(257,60,ls),
(209,60,o),
(171,98,o),
(171,148,qs),
(171,482,ls),
(171,487,o),
(176,487,qs),
(316,487,ls),
(321,487,o),
(321,492,qs),
(321,541,ls),
(321,546,o),
(316,546,qs),
(176,546,ls),
(171,546,o),
(171,551,qs),
(171,678,ls),
(171,683,o),
(166,683,qs),
(105,683,ls),
(100,683,o),
(100,678,qs),
(100,571,ls),
(100,546,o),
(75,546,qs),
(24,546,l),
(24,492,ls),
(24,487,o),
(29,487,qs),
(95,487,ls),
(100,487,o),
(100,482,qs)
);
}
);
width = 356;
}
);
note = t;
unicode = 116;
},
{
glyphname = u;
layers = (
{
layerId = m01;
shapes = (
{
closed = 1;
nodes = (
(553,541,ls),
(553,546,o),
(548,546,qs),
(488,546,ls),
(483,546,o),
(483,541,qs),
(483,249,ls),
(483,152,o),
(389,52,o),
(310,52,qs),
(233,52,o),
(144,146,o),
(144,235,qs),
(144,521,ls),
(144,546,o),
(119,546,qs),
(80,546,ls),
(75,546,o),
(75,541,qs),
(75,227,ls),
(75,112,o),
(199,-9,o),
(297,-9,qs),
(359,-9,o),
(459,45,o),
(483,96,q),
(483,25,ls),
(483,0,o),
(508,0,qs),
(548,0,ls),
(553,0,o),
(553,5,qs)
);
}
);
width = 633;
}
);
note = u;
unicode = 117;
},
{
glyphname = v;
layers = (
{
layerId = m01;
shapes = (
{
closed = 1;
nodes = (
(21,546,ls),
(19,546,o),
(16,542,o),
(17,540,qs),
(226,19,ls),
(233,0,o),
(255,0,qs),
(292,0,ls),
(314,0,o),
(321,19,qs),
(530,540,ls),
(531,542,o),
(528,546,o),
(526,546,qs),
(479,546,ls),
(457,546,o),
(450,526,qs),
(291,111,ls),
(285,95,o),
(264,95,o),
(258,111,qs),
(98,526,ls),
(91,546,o),
(69,546,qs)
);
}
);
width = 547;
}
);
note = v;
unicode = 118;
},
{
glyphname = w;
layers = (
{
layerId = m01;
shapes = (
{
closed = 1;
nodes = (
(180,21,ls),
(186,0,o),
(208,0,qs),
(235,0,ls),
(257,0,o),
(264,20,qs),
(392,409,ls),
(398,426,o),
(418,426,o),
(424,409,qs),
(552,20,ls),
(559,0,o),
(581,0,qs),
(607,0,ls),
(629,0,o),
(635,21,qs),
(798,540,ls),
(800,546,o),
(794,546,qs),
(753,546,ls),
(731,546,o),
(725,525,qs),
(611,123,ls),
(606,106,o),
(584,106,o),
(579,123,qs),
(452,515,ls),
(446,536,o),
(423,536,qs),
(397,536,ls),
(376,536,o),
(368,515,qs),
(239,123,ls),
(233,106,o),
(212,106,o),
(207,124,qs),
(92,525,ls),
(86,546,o),
(64,546,qs),
(21,546,ls),
(16,546,o),
(17,540,q)
);
}
);
width = 815;
}
);
note = w;
unicode = 119;
},
{
glyphname = x;
layers = (
{
layerId = m01;
shapes = (
{
closed = 1;
nodes = (
(364,3,ls),
(366,0,o),
(370,0,qs),
(438,0,ls),
(444,0,o),
(441,6,q),
(280,259,ls),
(270,276,o),
(280,293,qs),
(439,540,l),
(442,546,o),
(436,546,qs),
(374,546,ls),
(370,546,o),
(368,543,qs),
(252,357,ls),
(245,344,o),
(225,344,o),
(217,356,qs),
(98,543,l),
(97,546,o),
(92,546,qs),
(24,546,ls),
(18,546,o),
(21,540,q),
(180,290,ls),
(190,273,o),
(180,256,qs),
(19,6,l),
(16,0,o),
(22,0,qs),
(85,0,ls),
(90,0,o),
(91,3,q),
(208,192,ls),
(215,205,o),
(235,204,o),
(243,192,qs)
);
}
);
width = 460;
}
);
note = x;
unicode = 120;
},
{
glyphname = y;
layers = (
{
layerId = m01;
shapes = (
{
closed = 1;
nodes = (
(294,122,ls),
(288,106,o),
(267,106,o),
(261,122,qs),
(94,542,ls),
(92,546,o),
(88,546,qs),
(21,546,ls),
(19,546,o),
(16,542,o),
(17,540,qs),
(239,3,l),
(135,-251,ls),
(134,-253,o),
(137,-257,o),
(139,-257,qs),
(202,-257,ls),
(206,-257,o),
(208,-253,qs),
(528,540,ls),
(529,542,o),
(526,546,o),
(524,546,qs),
(462,546,ls),
(458,546,o),
(456,542,qs)
);
}
);
width = 545;
}
);
note = y;
unicode = 121;
},
{
glyphname = z;
layers = (
{
layerId = m01;
shapes = (
{
closed = 1;
nodes = (
(398,488,l),
(398,541,ls),
(398,546,o),
(393,546,qs),
(47,546,ls),
(42,546,o),
(42,541,qs),
(42,513,ls),
(42,488,o),
(67,488,qs),
(311,488,ls),
(317,488,o),
(314,482,q),
(37,58,l),
(37,5,ls),
(37,0,o),
(42,0,qs),
(398,0,ls),
(403,0,o),
(403,5,qs),
(403,33,ls),
(403,58,o),
(378,58,qs),
(124,58,ls),
(118,58,o),
(121,64,q)
);
}
);
width = 441;
}
);
note = z;
unicode = 122;
},
{
glyphname = braceleft;
layers = (
{
layerId = m01;
shapes = (
{
closed = 1;
nodes = (
(191,183,o),
(180,100,qs),
(176,64,o),
(169,-13,o),
(169,-42,qs),
(169,-114,o),
(247,-187,o),
(314,-187,qs),
(364,-187,l),
(364,-126,l),
(326,-126,ls),
(282,-126,o),
(237,-84,o),
(237,-37,qs),
(237,-11,o),
(244,63,o),
(248,98,qs),
(259,182,o),
(259,229,qs),
(259,284,o),
(204,359,o),
(147,372,q),
(147,374,l),
(204,387,o),
(259,462,o),
(259,517,qs),
(259,565,o),
(248,649,qs),
(244,684,o),
(237,756,o),
(237,783,qs),
(237,830,o),
(282,872,o),
(326,872,qs),
(364,872,l),
(364,933,l),
(314,933,ls),
(247,933,o),
(169,860,o),
(169,788,qs),
(169,759,o),
(176,683,o),
(180,647,qs),
(191,565,o),
(191,519,qs),
(191,426,o),
(86,402,q),
(86,345,l),
(191,320,o),
(191,227,qs)
);
}
);
width = 413;
}
);
note = braceleft;
unicode = 123;
},
{
glyphname = bar;
layers = (
{
layerId = m01;
shapes = (
{
closed = 1;
nodes = (
(96,790,l),
(96,-100,l),
(166,-100,l),
(166,790,l)
);
}
);
width = 261;
}
);
note = bar;
unicode = 124;
},
{
glyphname = braceright;
layers = (
{
layerId = m01;
shapes = (
{
closed = 1;
nodes = (
(222,183,o),
(233,100,qs),
(237,64,o),
(244,-13,o),
(244,-42,qs),
(244,-114,o),
(166,-187,o),
(99,-187,qs),
(49,-187,l),
(49,-126,l),
(87,-126,ls),
(131,-126,o),
(176,-84,o),
(176,-37,qs),
(176,-11,o),
(169,63,o),
(165,98,qs),
(154,182,o),
(154,229,qs),
(154,284,o),
(209,359,o),
(266,372,q),
(266,374,l),
(209,387,o),
(154,462,o),
(154,517,qs),
(154,565,o),
(165,649,qs),
(169,684,o),
(176,756,o),
(176,783,qs),
(176,830,o),
(131,872,o),
(87,872,qs),
(49,872,l),
(49,933,l),
(99,933,ls),
(166,933,o),
(244,860,o),
(244,788,qs),
(244,759,o),
(237,683,o),
(233,647,qs),
(222,565,o),
(222,519,qs),
(222,426,o),
(327,402,q),
(327,345,l),
(222,320,o),
(222,227,qs)
);
}
);
width = 413;
}
);
note = braceright;
unicode = 125;
},
{
glyphname = asciitilde;
layers = (
{
layerId = m01;
shapes = (
{
closed = 1;
nodes = (
(91,257,l),
(96,286,o),
(132,323,o),
(158,323,qs),
(177,323,o),
(208,308,o),
(232,292,qs),
(261,274,o),
(300,256,o),
(325,256,qs),
(428,256,o),
(449,385,q),
(396,385,l),
(392,355,o),
(357,319,o),
(330,319,qs),
(313,319,o),
(284,333,o),
(258,349,qs),
(231,367,o),
(189,386,o),
(162,386,qs),
(112,386,o),
(49,321,o),
(38,257,q)
);
}
);
width = 487;
}
);
note = asciitilde;
unicode = 126;
},
{
glyphname = exclamdown;
layers = (
{
layerId = m01;
shapes = (
{
closed = 1;
nodes = (
(106,371,l),
(165,371,l),
(174,-143,l),
(98,-143,l)
);
},
{
closed = 1;
nodes = (
(189,487,o),
(160,458,o),
(139,458,qs),
(117,458,o),
(88,487,o),
(88,509,qs),
(88,531,o),
(117,561,o),
(139,561,qs),
(160,561,o),
(189,531,o),
(189,509,qs)
);
}
);
width = 277;
}
);
note = exclamdown;
unicode = 161;
},
{
glyphname = cent;
layers = (
{
layerId = m01;
shapes = (
{
closed = 1;
nodes = (
(482,192,l),
(470,134,o),
(382,68,o),
(315,68,qs),
(234,68,o),
(130,170,o),
(130,264,qs),
(130,358,o),
(234,461,o),
(315,461,qs),
(382,461,o),
(470,395,o),
(482,337,q),
(548,337,l),
(537,414,o),
(423,514,o),
(333,518,q),
(333,614,l),
(289,614,l),
(289,518,l),
(184,510,o),
(63,371,o),
(63,264,qs),
(63,157,o),
(184,19,o),
(289,11,q),
(289,-90,l),
(333,-90,l),
(333,10,l),
(423,15,o),
(537,115,o),
(548,192,q)
);
}
);
width = 642;
}
);
note = cent;
unicode = 162;
},
{
glyphname = sterling;
layers = (
{
layerId = m01;
shapes = (
{
closed = 1;
nodes = (
(111,473,o),
(126,411,o),
(141,366,qs),
(142,364,l),
(46,364,l),
(46,314,l),
(160,314,l),
(174,269,o),
(174,233,qs),
(174,173,o),
(133,90,o),
(90,41,q),
(102,-1,l),
(533,-1,l),
(533,58,l),
(165,58,l),
(203,98,o),
(240,184,o),
(240,235,qs),
(240,266,o),
(227,314,q),
(404,314,l),
(404,364,l),
(210,364,l),
(209,366,ls),
(193,414,o),
(177,475,o),
(177,510,qs),
(177,584,o),
(258,657,o),
(319,657,qs),
(387,657,o),
(464,578,o),
(468,514,q),
(532,514,l),
(526,602,o),
(418,716,o),
(319,716,qs),
(258,716,o),
(163,665,o),
(111,573,o),
(111,513,qs)
);
}
);
width = 596;
}
);
note = sterling;
unicode = 163;
},
{
glyphname = currency;
layers = (
{
layerId = m01;
shapes = (
{
closed = 1;
nodes = (
(372,317,o),
(307,248,o),
(262,248,qs),
(215,248,o),
(154,317,o),
(154,377,qs),
(154,437,o),
(216,507,o),
(262,507,qs),
(308,507,o),
(372,436,o),
(372,377,qs)
);
},
{
closed = 1;
nodes = (
(426,176,l),
(459,209,l),
(399,269,l),
(432,315,o),
(432,377,qs),
(432,439,o),
(398,486,q),
(459,547,l),
(426,580,l),
(366,519,l),
(320,552,o),
(263,552,qs),
(204,552,o),
(160,519,q),
(99,580,l),
(66,547,l),
(127,486,l),
(94,442,o),
(94,377,qs),
(94,312,o),
(126,269,q),
(66,209,l),
(99,176,l),
(158,235,l),
(202,202,o),
(262,202,qs),
(321,202,o),
(366,236,q)
);
}
);
width = 526;
}
);
note = currency;
unicode = 164;
},
{
glyphname = yen;
layers = (
{
layerId = m01;
shapes = (
{
closed = 1;
nodes = (
(260,272,l),
(260,225,l),
(60,225,l),
(60,172,l),
(260,172,l),
(260,0,l),
(330,0,l),
(330,172,l),
(530,172,l),
(530,225,l),
(330,225,l),
(330,272,l),
(355,319,l),
(530,320,l),
(530,372,l),
(382,372,l),
(554,699,l),
(475,699,l),
(294,336,l),
(113,699,l),
(34,699,l),
(207,372,l),
(60,372,l),
(60,320,l),
(235,319,l)
);
}
);
width = 585;
}
);
note = yen;
unicode = 165;
},
{
glyphname = brokenbar;
layers = (
{
layerId = m01;
shapes = (
{
closed = 1;
nodes = (
(96,270,l),
(96,-100,l),
(166,-100,l),
(166,270,l)
);
},
{
closed = 1;
nodes = (
(166,420,l),
(166,790,l),
(96,790,l),
(96,420,l)
);
}
);
width = 261;
}
);
note = brokenbar;
unicode = 166;
},
{
glyphname = section;
layers = (
{
layerId = m01;
shapes = (
{
closed = 1;
nodes = (
(78,522,o),
(147,458,o),
(207,435,q),
(132,420,o),
(50,329,o),
(50,270,qs),
(50,197,o),
(156,114,o),
(261,83,qs),
(324,64,o),
(394,30,o),
(424,-10,o),
(424,-38,qs),
(424,-84,o),
(358,-131,o),
(300,-131,qs),
(232,-131,o),
(163,-66,o),
(157,-16,q),
(87,-16,l),
(92,-94,o),
(209,-182,o),
(300,-182,qs),
(360,-182,o),
(448,-142,o),
(494,-74,o),
(494,-32,qs),
(494,19,o),
(426,84,o),
(367,106,q),
(441,122,o),
(522,212,o),
(522,270,qs),
(522,344,o),
(417,426,o),
(312,457,qs),
(248,476,o),
(178,511,o),
(148,551,o),
(148,580,qs),
(148,625,o),
(215,672,o),
(274,672,qs),
(341,672,o),
(411,605,o),
(415,557,q),
(485,557,l),
(480,635,o),
(365,722,o),
(274,722,qs),
(214,722,o),
(125,683,o),
(78,615,o),
(78,574,qs)
);
},
{
closed = 1;
nodes = (
(451,218,o),
(365,146,o),
(289,146,qs),
(212,146,o),
(121,216,o),
(121,270,qs),
(121,304,o),
(159,360,o),
(233,394,o),
(284,394,qs),
(361,394,o),
(451,325,o),
(451,270,qs)
);
}
);
width = 572;
}
);
note = section;
unicode = 167;
},
{
glyphname = dieresis;
layers = (
{
layerId = m01;
shapes = (
{
closed = 1;
nodes = (
(100,623,o),
(127,650,o),
(127,669,qs),
(127,688,o),
(100,715,o),
(81,715,qs),
(62,715,o),
(35,688,o),
(35,669,qs),
(35,650,o),
(62,623,o),
(81,623,qs)
);
},
{
closed = 1;
nodes = (
(254,623,o),
(280,650,o),
(280,669,qs),
(280,688,o),
(254,715,o),
(235,715,qs),
(216,715,o),
(189,688,o),
(189,669,qs),
(189,650,o),
(216,623,o),
(235,623,qs)
);
}
);
width = 315;
}
);
note = dieresis;
unicode = 168;
},
{
glyphname = copyright;
layers = (
{
layerId = m01;
shapes = (
{
closed = 1;
nodes = (
(53,247,o),
(140,86,o),
(297,-4,o),
(398,-4,qs),
(499,-4,o),
(656,86,o),
(743,247,o),
(743,350,qs),
(743,453,o),
(656,613,o),
(499,703,o),
(398,703,qs),
(297,703,o),
(140,613,o),
(53,453,o),
(53,350,qs)
);
},
{
closed = 1;
nodes = (
(707,256,o),
(631,111,o),
(491,30,o),
(398,30,qs),
(305,30,o),
(165,111,o),
(89,256,o),
(89,350,qs),
(89,444,o),
(165,589,o),
(304,670,o),
(398,670,qs),
(492,670,o),
(631,589,o),
(707,444,o),
(707,350,qs)
);
},
{
closed = 1;
nodes = (
(537,433,l),
(522,481,o),
(447,532,o),
(398,532,qs),
(332,532,o),
(245,436,o),
(245,350,qs),
(245,264,o),
(332,169,o),
(398,169,qs),
(449,169,o),
(521,219,o),
(537,267,q),
(602,267,l),
(583,198,o),
(472,117,o),
(398,117,qs),
(338,117,o),
(240,173,o),
(182,279,o),
(182,351,qs),
(182,422,o),
(240,528,o),
(338,584,o),
(398,584,qs),
(473,584,o),
(583,505,o),
(602,433,q)
);
}
);
width = 796;
}
);
note = copyright;
unicode = 169;
},
{
glyphname = ordfeminine;
layers = (
{
layerId = m01;
shapes = (
{
closed = 1;
nodes = (
(252,347,o),
(322,390,o),
(337,426,q),
(337,353,l),
(394,353,l),
(394,703,l),
(337,703,l),
(337,629,l),
(321,665,o),
(251,709,o),
(200,709,qs),
(153,709,o),
(78,664,o),
(35,582,o),
(35,529,qs),
(35,477,o),
(78,394,o),
(154,347,o),
(202,347,qs)
);
},
{
closed = 1;
nodes = (
(267,664,o),
(337,590,o),
(337,528,qs),
(337,466,o),
(267,392,o),
(214,392,qs),
(163,392,o),
(94,466,o),
(94,529,qs),
(94,591,o),
(163,664,o),
(214,664,qs)
);
}
);
width = 445;
}
);
note = ordfeminine;
unicode = 170;
},
{
glyphname = guillemotleft;
layers = (
{
layerId = m01;
shapes = (
{
closed = 1;
nodes = (
(113,295,l),
(215,470,l),
(144,470,l),
(45,295,l),
(144,120,l),
(215,120,l)
);
},
{
closed = 1;
nodes = (
(283,295,l),
(385,470,l),
(314,470,l),
(215,295,l),
(314,120,l),
(385,120,l)
);
}
);
width = 435;
}
);
note = guillemotleft;
unicode = 171;
},
{
glyphname = logicalnot;
layers = (
{
layerId = m01;
shapes = (
{
closed = 1;
nodes = (
(45,373,l),
(538,373,l),
(538,230,l),
(607,230,l),
(607,430,l),
(45,430,l)
);
}
);
width = 651;
}
);
note = logicalnot;
unicode = 172;
},
{
glyphname = uni00AD;
layers = (
{
layerId = m01;
shapes = (
{
closed = 1;
nodes = (
(30,341,l),
(419,341,l),
(419,400,l),
(30,400,l)
);
}
);
width = 519;
}
);
note = uni00AD;
unicode = 173;
},
{
glyphname = registered;
layers = (
{
layerId = m01;
shapes = (
{
closed = 1;
nodes = (
(324,674,o),
(413,580,o),
(413,507,qs),
(413,434,o),
(324,340,o),
(252,340,qs),
(179,340,o),
(90,434,o),
(90,507,qs),
(90,580,o),
(179,674,o),
(252,674,qs)
);
},
{
closed = 1;
nodes = (
(309,307,o),
(398,359,o),
(449,450,o),
(449,507,qs),
(449,564,o),
(398,656,o),
(309,708,o),
(252,708,qs),
(195,708,o),
(105,656,o),
(54,564,o),
(54,507,qs),
(54,450,o),
(105,359,o),
(195,307,o),
(252,307,qs)
);
},
{
closed = 1;
nodes = (
(339,581,o),
(300,616,o),
(267,616,qs),
(174,616,l),
(174,401,l),
(217,401,l),
(217,486,l),
(240,486,l),
(295,401,l),
(346,402,l),
(286,488,l),
(311,493,o),
(339,526,o),
(339,551,qs)
);
},
{
closed = 1;
nodes = (
(264,577,ls),
(278,577,o),
(296,564,o),
(296,550,qs),
(296,536,o),
(278,522,o),
(264,522,qs),
(217,522,l),
(217,577,l)
);
}
);
width = 502;
}
);
note = registered;
unicode = 174;
},
{
glyphname = macron;
layers = (
{
layerId = m01;
shapes = (
{
closed = 1;
nodes = (
(24,646,l),
(363,646,l),
(363,700,l),
(24,700,l)
);
}
);
width = 387;
}
);
note = macron;
unicode = 175;
},
{
glyphname = degree;
layers = (
{
layerId = m01;
shapes = (
{
closed = 1;
nodes = (
(29,443,o),
(121,347,o),
(196,347,qs),
(245,347,o),
(322,391,o),
(365,470,o),
(365,522,qs),
(365,601,o),
(271,697,o),
(197,697,qs),
(123,697,o),
(29,601,o),
(29,522,qs)
);
},
{
closed = 1;
nodes = (
(307,460,o),
(244,391,o),
(196,391,qs),
(147,391,o),
(86,460,o),
(86,522,qs),
(86,584,o),
(148,654,o),
(196,654,qs),
(245,654,o),
(307,584,o),
(307,522,qs)
);
}
);
width = 394;
}
);
note = degree;
unicode = 176;
},
{
glyphname = plusminus;
layers = (
{
layerId = m01;
shapes = (
{
closed = 1;
nodes = (
(296,628,l),
(296,440,l),
(74,440,l),
(74,381,l),
(296,381,l),
(296,170,l),
(74,170,l),
(74,110,l),
(583,110,l),
(583,170,l),
(361,170,l),
(361,381,l),
(583,381,l),
(583,440,l),
(361,440,l),
(361,628,l)
);
}
);
width = 657;
}
);
note = plusminus;
unicode = 177;
},
{
glyphname = uni00B2;
layers = (
{
layerId = m01;
shapes = (
{
closed = 1;
nodes = (
(90,602,l),
(94,632,o),
(127,665,o),
(155,665,qs),
(181,665,o),
(215,632,o),
(215,601,qs),
(215,568,o),
(179,517,o),
(145,487,qs),
(34,392,l),
(34,352,l),
(281,352,l),
(281,399,l),
(100,399,l),
(183,463,ls),
(231,501,o),
(275,563,o),
(275,603,qs),
(275,649,o),
(210,709,o),
(157,709,qs),
(100,709,o),
(36,649,o),
(33,602,q)
);
}
);
width = 322;
}
);
note = uni00B2;
unicode = 178;
},
{
glyphname = uni00B3;
layers = (
{
layerId = m01;
shapes = (
{
closed = 1;
nodes = (
(85,614,l),
(98,664,o),
(157,664,qs),
(188,664,o),
(225,632,o),
(225,606,qs),
(225,578,o),
(186,547,o),
(154,547,qs),
(106,547,l),
(106,508,l),
(154,508,ls),
(186,508,o),
(227,477,o),
(227,449,qs),
(227,422,o),
(189,391,o),
(157,391,qs),
(92,391,o),
(84,451,q),
(28,451,l),
(32,401,o),
(100,347,o),
(157,347,qs),
(216,347,o),
(287,403,o),
(287,443,qs),
(287,475,o),
(250,517,o),
(221,526,q),
(221,528,l),
(251,536,o),
(285,578,o),
(285,608,qs),
(285,651,o),
(213,709,o),
(161,709,qs),
(105,709,o),
(36,656,o),
(31,614,q)
);
}
);
width = 323;
}
);
note = uni00B3;
unicode = 179;
},
{
glyphname = acute;
layers = (
{
layerId = m01;
shapes = (
{
closed = 1;
nodes = (
(24,642,l),
(24,588,l),
(229,707,l),
(229,770,l)
);
}
);
width = 253;
}
);
note = acute;
unicode = 180;
},
{
glyphname = uni00B5;
layers = (
{
layerId = m01;
shapes = (
{
closed = 1;
nodes = (
(558,546,l),
(488,546,l),
(488,248,ls),
(488,151,o),
(397,51,o),
(320,51,qs),
(241,51,o),
(149,153,o),
(149,252,qs),
(149,546,l),
(80,546,l),
(80,-258,l),
(149,-258,l),
(149,80,l),
(171,32,o),
(251,-10,o),
(301,-10,qs),
(364,-10,o),
(464,53,o),
(488,113,q),
(488,0,l),
(558,0,l)
);
}
);
width = 638;
}
);
note = uni00B5;
unicode = 181;
},
{
glyphname = paragraph;
layers = (
{
layerId = m01;
shapes = (
{
closed = 1;
nodes = (
(264,690,ls),
(148,690,o),
(28,579,o),
(28,489,qs),
(28,399,o),
(147,289,o),
(264,289,qs),
(272,289,l),
(272,0,l),
(335,0,l),
(335,634,l),
(421,634,l),
(421,0,l),
(484,0,l),
(484,690,l)
);
}
);
width = 564;
}
);
note = paragraph;
unicode = 182;
},
{
glyphname = periodcentered;
layers = (
{
layerId = m01;
shapes = (
{
closed = 1;
nodes = (
(144,369,o),
(115,398,o),
(94,398,qs),
(72,398,o),
(43,369,o),
(43,347,qs),
(43,325,o),
(72,295,o),
(94,295,qs),
(115,295,o),
(144,325,o),
(144,347,qs)
);
}
);
width = 183;
}
);
note = periodcentered;
unicode = 183;
},
{
glyphname = cedilla;
layers = (
{
layerId = m01;
shapes = (
{
closed = 1;
nodes = (
(113,7,l),
(64,7,l),
(64,-112,l),
(110,-112,ls),
(182,-112,o),
(182,-160,qs),
(182,-186,o),
(147,-211,o),
(110,-211,qs),
(24,-211,l),
(24,-258,l),
(124,-258,ls),
(177,-258,o),
(241,-205,o),
(241,-160,qs),
(241,-114,o),
(172,-65,o),
(113,-67,q)
);
}
);
width = 265;
}
);
note = cedilla;
unicode = 184;
},
{
glyphname = uni00B9;
layers = (
{
layerId = m01;
shapes = (
{
closed = 1;
nodes = (
(83,352,l),
(140,352,l),
(140,704,l),
(29,704,l),
(29,659,l),
(83,659,l)
);
}
);
width = 183;
}
);
note = uni00B9;
unicode = 185;
},
{
glyphname = ordmasculine;
layers = (
{
layerId = m01;
shapes = (
{
closed = 1;
nodes = (
(35,473,o),
(81,391,o),
(163,345,o),
(214,345,qs),
(265,345,o),
(347,391,o),
(395,474,o),
(395,527,qs),
(395,581,o),
(348,664,o),
(266,709,o),
(215,709,qs),
(164,709,o),
(82,664,o),
(35,581,o),
(35,527,qs)
);
},
{
closed = 1;
nodes = (
(336,464,o),
(265,392,o),
(214,392,qs),
(162,392,o),
(94,463,o),
(94,527,qs),
(94,591,o),
(163,663,o),
(214,663,qs),
(266,663,o),
(336,591,o),
(336,527,qs)
);
}
);
width = 429;
}
);
note = ordmasculine;
unicode = 186;
},
{
glyphname = guillemotright;
layers = (
{
layerId = m01;
shapes = (
{
closed = 1;
nodes = (
(291,120,l),
(390,295,l),
(291,470,l),
(220,470,l),
(322,295,l),
(220,120,l)
);
},
{
closed = 1;
nodes = (
(121,120,l),
(220,295,l),
(121,470,l),
(50,470,l),
(152,295,l),
(50,120,l)
);
}
);
width = 435;
}
);
note = guillemotright;
unicode = 187;
},
{
glyphname = onequarter;
layers = (
{
layerId = m01;
shapes = (
{
closed = 1;
nodes = (
(60,0,l),
(127,0,l),
(493,700,l),
(427,700,l)
);
},
{
closed = 1;
nodes = (
(518,110,l),
(518,354,l),
(445,354,l),
(282,106,l),
(282,71,l),
(461,71,l),
(461,0,l),
(518,0,l),
(518,71,l),
(568,71,l),
(568,110,l)
);
},
{
closed = 1;
nodes = (
(340,110,l),
(462,296,l),
(462,110,l)
);
},
{
closed = 1;
nodes = (
(95,352,l),
(152,352,l),
(152,704,l),
(41,704,l),
(41,659,l),
(95,659,l)
);
}
);
width = 602;
}
);
note = onequarter;
unicode = 188;
},
{
glyphname = onehalf;
layers = (
{
layerId = m01;
shapes = (
{
closed = 1;
nodes = (
(52,0,l),
(119,0,l),
(479,700,l),
(412,700,l)
);
},
{
closed = 1;
nodes = (
(92,352,l),
(149,352,l),
(149,704,l),
(38,704,l),
(38,659,l),
(92,659,l)
);
},
{
closed = 1;
nodes = (
(408,249,l),
(412,279,o),
(445,312,o),
(473,312,qs),
(499,312,o),
(533,279,o),
(533,248,qs),
(533,215,o),
(497,164,o),
(463,134,qs),
(352,39,l),
(352,-1,l),
(599,-1,l),
(599,46,l),
(418,46,l),
(501,110,ls),
(549,148,o),
(593,210,o),
(593,250,qs),
(593,296,o),
(528,356,o),
(475,356,qs),
(418,356,o),
(354,296,o),
(351,249,q)
);
}
);
width = 650;
}
);
note = onehalf;
unicode = 189;
},
{
glyphname = threequarters;
layers = (
{
layerId = m01;
shapes = (
{
closed = 1;
nodes = (
(146,0,l),
(212,0,l),
(589,700,l),
(523,700,l)
);
},
{
closed = 1;
nodes = (
(602,110,l),
(602,354,l),
(529,354,l),
(366,106,l),
(366,71,l),
(545,71,l),
(545,0,l),
(602,0,l),
(602,71,l),
(652,71,l),
(652,110,l)
);
},
{
closed = 1;
nodes = (
(425,110,l),
(547,296,l),
(547,110,l)
);
},
{
closed = 1;
nodes = (
(95,614,l),
(108,664,o),
(167,664,qs),
(198,664,o),
(235,632,o),
(235,606,qs),
(235,578,o),
(196,547,o),
(164,547,qs),
(116,547,l),
(116,508,l),
(164,508,ls),
(196,508,o),
(237,477,o),
(237,449,qs),
(237,422,o),
(199,391,o),
(167,391,qs),
(102,391,o),
(94,451,q),
(38,451,l),
(42,401,o),
(110,347,o),
(167,347,qs),
(226,347,o),
(297,403,o),
(297,443,qs),
(297,475,o),
(260,517,o),
(231,526,q),
(231,528,l),
(261,536,o),
(295,578,o),
(295,608,qs),
(295,651,o),
(223,709,o),
(171,709,qs),
(115,709,o),
(46,656,o),
(41,614,q)
);
}
);
width = 680;
}
);
note = threequarters;
unicode = 190;
},
{
glyphname = questiondown;
layers = (
{
layerId = m01;
shapes = (
{
closed = 1;
nodes = (
(406,36,l),
(406,-28,o),
(326,-102,o),
(258,-102,qs),
(190,-102,o),
(107,-24,o),
(107,42,qs),
(107,136,o),
(226,201,o),
(329,201,qs),
(355,201,l),
(351,361,l),
(291,361,l),
(288,251,l),
(173,251,o),
(40,150,o),
(40,42,qs),
(40,-19,o),
(95,-112,o),
(194,-162,o),
(258,-162,qs),
(321,-162,o),
(418,-113,o),
(473,-24,o),
(473,36,q)
);
},
{
closed = 1;
nodes = (
(271,477,o),
(300,448,o),
(321,448,qs),
(343,448,o),
(372,477,o),
(372,499,qs),
(372,521,o),
(343,551,o),
(321,551,qs),
(300,551,o),
(271,521,o),
(271,499,qs)
);
}
);
width = 502;
}
);
note = questiondown;
unicode = 191;
},
{
glyphname = Agrave;
layers = (
{
layerId = m01;
shapes = (
{
closed = 1;
nodes = (
(546,0,l),
(620,0,l),
(366,690,l),
(287,690,l),
(32,0,l),
(106,0,l),
(167,166,l),
(485,166,l)
);
},
{
closed = 1;
nodes = (
(214,851,l),
(419,732,l),
(419,786,l),
(214,914,l)
);
},
{
closed = 1;
nodes = (
(464,224,l),
(188,224,l),
(326,602,l)
);
}
);
width = 652;
}
);
note = Agrave;
unicode = 192;
},
{
glyphname = Aacute;
layers = (
{
layerId = m01;
shapes = (
{
closed = 1;
nodes = (
(546,0,l),
(620,0,l),
(366,690,l),
(287,690,l),
(32,0,l),
(106,0,l),
(167,166,l),
(485,166,l)
);
},
{
closed = 1;
nodes = (
(214,786,l),
(214,732,l),
(419,851,l),
(419,914,l)
);
},
{
closed = 1;
nodes = (
(464,224,l),
(188,224,l),
(326,602,l)
);
}
);
width = 652;
}
);
note = Aacute;
unicode = 193;
},
{
glyphname = Acircumflex;
layers = (
{
layerId = m01;
shapes = (
{
closed = 1;
nodes = (
(546,0,l),
(620,0,l),
(366,690,l),
(287,690,l),
(32,0,l),
(106,0,l),
(167,166,l),
(485,166,l)
);
},
{
closed = 1;
nodes = (
(460,805,l),
(326,887,l),
(192,805,l),
(192,748,l),
(326,832,l),
(460,748,l)
);
},
{
closed = 1;
nodes = (
(464,224,l),
(188,224,l),
(326,602,l)
);
}
);
width = 652;
}
);
note = Acircumflex;
unicode = 194;
},
{
glyphname = Atilde;
layers = (
{
layerId = m01;
shapes = (
{
closed = 1;
nodes = (
(546,0,l),
(620,0,l),
(366,690,l),
(287,690,l),
(32,0,l),
(106,0,l),
(167,166,l),
(485,166,l)
);
},
{
closed = 1;
nodes = (
(238,750,l),
(244,795,o),
(280,795,qs),
(293,795,o),
(314,785,o),
(328,774,qs),
(346,761,o),
(373,748,o),
(392,748,qs),
(428,748,o),
(477,797,o),
(481,841,q),
(439,841,l),
(436,819,o),
(412,796,o),
(395,796,qs),
(382,796,o),
(360,807,o),
(345,818,qs),
(327,830,o),
(301,843,o),
(283,843,qs),
(247,843,o),
(201,795,o),
(195,750,q)
);
},
{
closed = 1;
nodes = (
(464,224,l),
(188,224,l),
(326,602,l)
);
}
);
width = 652;
}
);
note = Atilde;
unicode = 195;
},
{
glyphname = Adieresis;
layers = (
{
layerId = m01;
shapes = (
{
closed = 1;
nodes = (
(546,0,l),
(620,0,l),
(366,690,l),
(287,690,l),
(32,0,l),
(106,0,l),
(167,166,l),
(485,166,l)
);
},
{
closed = 1;
nodes = (
(269,767,o),
(296,794,o),
(296,813,qs),
(296,832,o),
(269,859,o),
(250,859,qs),
(231,859,o),
(204,832,o),
(204,813,qs),
(204,794,o),
(231,767,o),
(250,767,qs)
);
},
{
closed = 1;
nodes = (
(423,767,o),
(449,794,o),
(449,813,qs),
(449,832,o),
(423,859,o),
(404,859,qs),
(385,859,o),
(358,832,o),
(358,813,qs),
(358,794,o),
(385,767,o),
(404,767,qs)
);
},
{
closed = 1;
nodes = (
(464,224,l),
(188,224,l),
(326,602,l)
);
}
);
width = 652;
}
);
note = Adieresis;
unicode = 196;
},
{
glyphname = Aring;
layers = (
{
layerId = m01;
shapes = (
{
closed = 1;
nodes = (
(546,0,l),
(620,0,l),
(366,690,l),
(287,690,l),
(32,0,l),
(106,0,l),
(167,166,l),
(485,166,l)
);
},
{
closed = 1;
nodes = (
(301,793,o),
(268,827,o),
(268,854,qs),
(268,882,o),
(301,915,o),
(326,915,qs),
(351,915,o),
(385,882,o),
(385,854,qs),
(385,827,o),
(351,793,o),
(326,793,qs)
);
},
{
closed = 1;
nodes = (
(283,954,o),
(224,899,o),
(224,854,qs),
(224,809,o),
(283,754,o),
(326,754,qs),
(370,754,o),
(428,809,o),
(428,854,qs),
(428,899,o),
(370,954,o),
(326,954,qs)
);
},
{
closed = 1;
nodes = (
(464,224,l),
(188,224,l),
(326,602,l)
);
}
);
width = 652;
}
);
note = Aring;
unicode = 197;
},
{
glyphname = AE;
layers = (
{
layerId = m01;
shapes = (
{
closed = 1;
nodes = (
(458,640,l),
(458,222,l),
(216,222,l)
);
},
{
closed = 1;
nodes = (
(823,644,l),
(823,700,l),
(417,700,l),
(11,0,l),
(88,0,l),
(184,166,l),
(458,166,l),
(458,0,l),
(823,0,l),
(823,56,l),
(528,56,l),
(528,324,l),
(793,324,l),
(793,380,l),
(528,380,l),
(528,644,l)
);
}
);
width = 882;
}
);
note = AE;
unicode = 198;
},
{
glyphname = Ccedilla;
layers = (
{
layerId = m01;
shapes = (
{
closed = 1;
nodes = (
(48,249,o),
(133,90,o),
(283,-3,o),
(376,-6,q),
(376,-112,l),
(422,-112,ls),
(494,-112,o),
(494,-160,qs),
(494,-186,o),
(459,-211,o),
(422,-211,qs),
(336,-211,l),
(336,-258,l),
(436,-258,ls),
(489,-258,o),
(553,-205,o),
(553,-160,qs),
(553,-114,o),
(484,-65,o),
(425,-67,q),
(425,-5,l),
(528,3,o),
(677,112,o),
(712,204,q),
(630,204,l),
(600,134,o),
(477,55,o),
(390,55,qs),
(313,55,o),
(190,127,o),
(120,261,o),
(120,350,qs),
(120,439,o),
(190,574,o),
(313,646,o),
(390,646,qs),
(477,646,o),
(600,566,o),
(630,495,q),
(712,495,l),
(674,596,o),
(507,707,o),
(390,707,qs),
(294,707,o),
(138,616,o),
(48,453,o),
(48,350,qs)
);
}
);
width = 771;
}
);
note = Ccedilla;
unicode = 199;
},
{
glyphname = Egrave;
layers = (
{
layerId = m01;
shapes = (
{
closed = 1;
nodes = (
(445,700,l),
(80,700,l),
(80,0,l),
(445,0,l),
(445,58,l),
(150,58,l),
(150,323,l),
(415,323,l),
(415,381,l),
(150,381,l),
(150,642,l),
(445,642,l)
);
},
{
closed = 1;
nodes = (
(136,851,l),
(341,732,l),
(341,786,l),
(136,914,l)
);
}
);
width = 503;
}
);
note = Egrave;
unicode = 200;
},
{
glyphname = Eacute;
layers = (
{
layerId = m01;
shapes = (
{
closed = 1;
nodes = (
(445,700,l),
(80,700,l),
(80,0,l),
(445,0,l),
(445,58,l),
(150,58,l),
(150,323,l),
(415,323,l),
(415,381,l),
(150,381,l),
(150,642,l),
(445,642,l)
);
},
{
closed = 1;
nodes = (
(136,786,l),
(136,732,l),
(341,851,l),
(341,914,l)
);
}
);
width = 503;
}
);
note = Eacute;
unicode = 201;
},
{
glyphname = Ecircumflex;
layers = (
{
layerId = m01;
shapes = (
{
closed = 1;
nodes = (
(445,700,l),
(80,700,l),
(80,0,l),
(445,0,l),
(445,58,l),
(150,58,l),
(150,323,l),
(415,323,l),
(415,381,l),
(150,381,l),
(150,642,l),
(445,642,l)
);
},
{
closed = 1;
nodes = (
(382,805,l),
(248,887,l),
(114,805,l),
(114,748,l),
(248,832,l),
(382,748,l)
);
}
);
width = 503;
}
);
note = Ecircumflex;
unicode = 202;
},
{
glyphname = Edieresis;
layers = (
{
layerId = m01;
shapes = (
{
closed = 1;
nodes = (
(445,700,l),
(80,700,l),
(80,0,l),
(445,0,l),
(445,58,l),
(150,58,l),
(150,323,l),
(415,323,l),
(415,381,l),
(150,381,l),
(150,642,l),
(445,642,l)
);
},
{
closed = 1;
nodes = (
(191,767,o),
(218,794,o),
(218,813,qs),
(218,832,o),
(191,859,o),
(172,859,qs),
(153,859,o),
(126,832,o),
(126,813,qs),
(126,794,o),
(153,767,o),
(172,767,qs)
);
},
{
closed = 1;
nodes = (
(345,767,o),
(371,794,o),
(371,813,qs),
(371,832,o),
(345,859,o),
(326,859,qs),
(307,859,o),
(280,832,o),
(280,813,qs),
(280,794,o),
(307,767,o),
(326,767,qs)
);
}
);
width = 503;
}
);
note = Edieresis;
unicode = 203;
},
{
glyphname = Igrave;
layers = (
{
layerId = m01;
shapes = (
{
closed = 1;
nodes = (
(80,0,l),
(150,0,l),
(150,699,l),
(80,699,l)
);
},
{
closed = 1;
nodes = (
(2,851,l),
(207,732,l),
(207,786,l),
(2,914,l)
);
}
);
width = 229;
}
);
note = Igrave;
unicode = 204;
},
{
glyphname = Iacute;
layers = (
{
layerId = m01;
shapes = (
{
closed = 1;
nodes = (
(80,0,l),
(150,0,l),
(150,699,l),
(80,699,l)
);
},
{
closed = 1;
nodes = (
(2,786,l),
(2,732,l),
(207,851,l),
(207,914,l)
);
}
);
width = 229;
}
);
note = Iacute;
unicode = 205;
},
{
glyphname = Icircumflex;
layers = (
{
layerId = m01;
shapes = (
{
closed = 1;
nodes = (
(80,0,l),
(150,0,l),
(150,699,l),
(80,699,l)
);
},
{
closed = 1;
nodes = (
(249,805,l),
(115,887,l),
(-19,805,l),
(-19,748,l),
(115,832,l),
(249,748,l)
);
}
);
width = 229;
}
);
note = Icircumflex;
unicode = 206;
},
{
glyphname = Idieresis;
layers = (
{
layerId = m01;
shapes = (
{
closed = 1;
nodes = (
(80,0,l),
(150,0,l),
(150,699,l),
(80,699,l)
);
},
{
closed = 1;
nodes = (
(57,767,o),
(84,794,o),
(84,813,qs),
(84,832,o),
(57,859,o),
(38,859,qs),
(19,859,o),
(-8,832,o),
(-8,813,qs),
(-8,794,o),
(19,767,o),
(38,767,qs)
);
},
{
closed = 1;
nodes = (
(211,767,o),
(237,794,o),
(237,813,qs),
(237,832,o),
(211,859,o),
(192,859,qs),
(173,859,o),
(146,832,o),
(146,813,qs),
(146,794,o),
(173,767,o),
(192,767,qs)
);
}
);
width = 229;
}
);
note = Idieresis;
unicode = 207;
},
{
glyphname = Eth;
layers = (
{
layerId = m01;
shapes = (
{
closed = 1;
nodes = (
(104,699,l),
(104,381,l),
(9,381,l),
(9,316,l),
(104,316,l),
(104,0,l),
(312,0,ls),
(428,0,o),
(594,83,o),
(682,240,o),
(682,348,qs),
(682,457,o),
(594,615,o),
(428,699,o),
(312,699,qs)
);
},
{
closed = 1;
nodes = (
(175,55,l),
(175,316,l),
(379,316,l),
(379,381,l),
(175,381,l),
(175,642,l),
(312,642,ls),
(457,642,o),
(610,486,o),
(610,348,qs),
(610,210,o),
(457,55,o),
(312,55,qs)
);
}
);
width = 730;
}
);
note = Eth;
unicode = 208;
},
{
glyphname = Ntilde;
layers = (
{
layerId = m01;
shapes = (
{
closed = 1;
nodes = (
(537,699,l),
(537,112,l),
(150,699,l),
(80,699,l),
(80,0,l),
(150,0,l),
(150,588,l),
(537,0,l),
(607,0,l),
(607,699,l)
);
},
{
closed = 1;
nodes = (
(255,750,l),
(261,795,o),
(297,795,qs),
(310,795,o),
(331,785,o),
(345,774,qs),
(363,761,o),
(390,748,o),
(409,748,qs),
(445,748,o),
(494,797,o),
(498,841,q),
(456,841,l),
(453,819,o),
(429,796,o),
(412,796,qs),
(399,796,o),
(377,807,o),
(362,818,qs),
(344,830,o),
(318,843,o),
(300,843,qs),
(264,843,o),
(218,795,o),
(212,750,q)
);
}
);
width = 686;
}
);
note = Ntilde;
unicode = 209;
},
{
glyphname = Ograve;
layers = (
{
layerId = m01;
shapes = (
{
closed = 1;
nodes = (
(740,453,o),
(650,616,o),
(492,707,o),
(394,707,qs),
(297,707,o),
(139,616,o),
(48,453,o),
(48,350,qs),
(48,247,o),
(139,84,o),
(297,-7,o),
(394,-7,qs),
(492,-7,o),
(650,84,o),
(740,247,o),
(740,350,qs)
);
},
{
closed = 1;
nodes = (
(120,439,o),
(192,573,o),
(316,645,o),
(394,645,qs),
(472,645,o),
(596,573,o),
(668,439,o),
(668,350,qs),
(668,261,o),
(596,126,o),
(472,54,o),
(394,54,qs),
(316,54,o),
(192,126,o),
(120,261,o),
(120,350,qs)
);
},
{
closed = 1;
nodes = (
(286,851,l),
(491,732,l),
(491,786,l),
(286,914,l)
);
}
);
width = 788;
}
);
note = Ograve;
unicode = 210;
},
{
glyphname = Oacute;
layers = (
{
layerId = m01;
shapes = (
{
closed = 1;
nodes = (
(740,453,o),
(650,616,o),
(492,707,o),
(394,707,qs),
(297,707,o),
(139,616,o),
(48,453,o),
(48,350,qs),
(48,247,o),
(139,84,o),
(297,-7,o),
(394,-7,qs),
(492,-7,o),
(650,84,o),
(740,247,o),
(740,350,qs)
);
},
{
closed = 1;
nodes = (
(120,439,o),
(192,573,o),
(316,645,o),
(394,645,qs),
(472,645,o),
(596,573,o),
(668,439,o),
(668,350,qs),
(668,261,o),
(596,126,o),
(472,54,o),
(394,54,qs),
(316,54,o),
(192,126,o),
(120,261,o),
(120,350,qs)
);
},
{
closed = 1;
nodes = (
(286,786,l),
(286,732,l),
(491,851,l),
(491,914,l)
);
}
);
width = 788;
}
);
note = Oacute;
unicode = 211;
},
{
glyphname = Ocircumflex;
layers = (
{
layerId = m01;
shapes = (
{
closed = 1;
nodes = (
(740,453,o),
(650,616,o),
(492,707,o),
(394,707,qs),
(297,707,o),
(139,616,o),
(48,453,o),
(48,350,qs),
(48,247,o),
(139,84,o),
(297,-7,o),
(394,-7,qs),
(492,-7,o),
(650,84,o),
(740,247,o),
(740,350,qs)
);
},
{
closed = 1;
nodes = (
(120,439,o),
(192,573,o),
(316,645,o),
(394,645,qs),
(472,645,o),
(596,573,o),
(668,439,o),
(668,350,qs),
(668,261,o),
(596,126,o),
(472,54,o),
(394,54,qs),
(316,54,o),
(192,126,o),
(120,261,o),
(120,350,qs)
);
},
{
closed = 1;
nodes = (
(533,805,l),
(399,887,l),
(265,805,l),
(265,748,l),
(399,832,l),
(533,748,l)
);
}
);
width = 788;
}
);
note = Ocircumflex;
unicode = 212;
},
{
glyphname = Otilde;
layers = (
{
layerId = m01;
shapes = (
{
closed = 1;
nodes = (
(740,453,o),
(650,616,o),
(492,707,o),
(394,707,qs),
(297,707,o),
(139,616,o),
(48,453,o),
(48,350,qs),
(48,247,o),
(139,84,o),
(297,-7,o),
(394,-7,qs),
(492,-7,o),
(650,84,o),
(740,247,o),
(740,350,qs)
);
},
{
closed = 1;
nodes = (
(120,439,o),
(192,573,o),
(316,645,o),
(394,645,qs),
(472,645,o),
(596,573,o),
(668,439,o),
(668,350,qs),
(668,261,o),
(596,126,o),
(472,54,o),
(394,54,qs),
(316,54,o),
(192,126,o),
(120,261,o),
(120,350,qs)
);
},
{
closed = 1;
nodes = (
(310,750,l),
(316,795,o),
(352,795,qs),
(365,795,o),
(386,785,o),
(400,774,qs),
(418,761,o),
(445,748,o),
(464,748,qs),
(500,748,o),
(549,797,o),
(553,841,q),
(511,841,l),
(508,819,o),
(484,796,o),
(467,796,qs),
(454,796,o),
(432,807,o),
(417,818,qs),
(399,830,o),
(373,843,o),
(355,843,qs),
(319,843,o),
(273,795,o),
(267,750,q)
);
}
);
width = 788;
}
);
note = Otilde;
unicode = 213;
},
{
glyphname = Odieresis;
layers = (
{
layerId = m01;
shapes = (
{
closed = 1;
nodes = (
(740,453,o),
(650,616,o),
(492,707,o),
(394,707,qs),
(297,707,o),
(139,616,o),
(48,453,o),
(48,350,qs),
(48,247,o),
(139,84,o),
(297,-7,o),
(394,-7,qs),
(492,-7,o),
(650,84,o),
(740,247,o),
(740,350,qs)
);
},
{
closed = 1;
nodes = (
(120,439,o),
(192,573,o),
(316,645,o),
(394,645,qs),
(472,645,o),
(596,573,o),
(668,439,o),
(668,350,qs),
(668,261,o),
(596,126,o),
(472,54,o),
(394,54,qs),
(316,54,o),
(192,126,o),
(120,261,o),
(120,350,qs)
);
},
{
closed = 1;
nodes = (
(342,767,o),
(369,794,o),
(369,813,qs),
(369,832,o),
(342,859,o),
(323,859,qs),
(304,859,o),
(277,832,o),
(277,813,qs),
(277,794,o),
(304,767,o),
(323,767,qs)
);
},
{
closed = 1;
nodes = (
(496,767,o),
(522,794,o),
(522,813,qs),
(522,832,o),
(496,859,o),
(477,859,qs),
(458,859,o),
(431,832,o),
(431,813,qs),
(431,794,o),
(458,767,o),
(477,767,qs)
);
}
);
width = 788;
}
);
note = Odieresis;
unicode = 214;
},
{
glyphname = multiply;
layers = (
{
layerId = m01;
shapes = (
{
closed = 1;
nodes = (
(86,536,l),
(250,371,l),
(85,206,l),
(131,160,l),
(296,325,l),
(461,160,l),
(507,205,l),
(342,371,l),
(505,534,l),
(459,580,l),
(296,417,l),
(132,581,l)
);
}
);
width = 591;
}
);
note = multiply;
unicode = 215;
},
{
glyphname = Oslash;
layers = (
{
layerId = m01;
shapes = (
{
closed = 1;
nodes = (
(740,423,o),
(693,549,o),
(650,597,q),
(745,700,l),
(686,700,l),
(619,627,l),
(574,666,o),
(459,707,o),
(394,707,qs),
(297,707,o),
(139,616,o),
(48,453,o),
(48,350,qs),
(48,277,o),
(94,151,o),
(137,104,q),
(42,0,l),
(102,0,l),
(169,73,l),
(214,34,o),
(329,-7,o),
(394,-7,qs),
(492,-7,o),
(650,84,o),
(740,247,o),
(740,350,qs)
);
},
{
closed = 1;
nodes = (
(120,439,o),
(192,573,o),
(316,645,o),
(394,645,qs),
(446,645,o),
(539,612,o),
(575,580,q),
(182,152,l),
(120,231,o),
(120,350,qs)
);
},
{
closed = 1;
nodes = (
(341,54,o),
(248,88,o),
(212,120,q),
(605,548,l),
(668,469,o),
(668,350,qs),
(668,261,o),
(596,126,o),
(472,54,o),
(394,54,qs)
);
}
);
width = 788;
}
);
note = Oslash;
unicode = 216;
},
{
glyphname = Ugrave;
layers = (
{
layerId = m01;
shapes = (
{
closed = 1;
nodes = (
(77,260,ls),
(77,127,o),
(218,-7,o),
(331,-7,qs),
(444,-7,o),
(585,127,o),
(585,260,qs),
(585,699,l),
(515,699,l),
(515,259,ls),
(515,154,o),
(418,55,o),
(332,55,qs),
(246,55,o),
(147,155,o),
(147,259,qs),
(147,699,l),
(77,699,l)
);
},
{
closed = 1;
nodes = (
(218,851,l),
(423,732,l),
(423,786,l),
(218,914,l)
);
}
);
width = 661;
}
);
note = Ugrave;
unicode = 217;
},
{
glyphname = Uacute;
layers = (
{
layerId = m01;
shapes = (
{
closed = 1;
nodes = (
(77,260,ls),
(77,127,o),
(218,-7,o),
(331,-7,qs),
(444,-7,o),
(585,127,o),
(585,260,qs),
(585,699,l),
(515,699,l),
(515,259,ls),
(515,154,o),
(418,55,o),
(332,55,qs),
(246,55,o),
(147,155,o),
(147,259,qs),
(147,699,l),
(77,699,l)
);
},
{
closed = 1;
nodes = (
(218,786,l),
(218,732,l),
(423,851,l),
(423,914,l)
);
}
);
width = 661;
}
);
note = Uacute;
unicode = 218;
},
{
glyphname = Ucircumflex;
layers = (
{
layerId = m01;
shapes = (
{
closed = 1;
nodes = (
(77,260,ls),
(77,127,o),
(218,-7,o),
(331,-7,qs),
(444,-7,o),
(585,127,o),
(585,260,qs),
(585,699,l),
(515,699,l),
(515,259,ls),
(515,154,o),
(418,55,o),
(332,55,qs),
(246,55,o),
(147,155,o),
(147,259,qs),
(147,699,l),
(77,699,l)
);
},
{
closed = 1;
nodes = (
(464,805,l),
(330,887,l),
(196,805,l),
(196,748,l),
(330,832,l),
(464,748,l)
);
}
);
width = 661;
}
);
note = Ucircumflex;
unicode = 219;
},
{
glyphname = Udieresis;
layers = (
{
layerId = m01;
shapes = (
{
closed = 1;
nodes = (
(77,260,ls),
(77,127,o),
(218,-7,o),
(331,-7,qs),
(444,-7,o),
(585,127,o),
(585,260,qs),
(585,699,l),
(515,699,l),
(515,259,ls),
(515,154,o),
(418,55,o),
(332,55,qs),
(246,55,o),
(147,155,o),
(147,259,qs),
(147,699,l),
(77,699,l)
);
},
{
closed = 1;
nodes = (
(273,767,o),
(300,794,o),
(300,813,qs),
(300,832,o),
(273,859,o),
(254,859,qs),
(235,859,o),
(208,832,o),
(208,813,qs),
(208,794,o),
(235,767,o),
(254,767,qs)
);
},
{
closed = 1;
nodes = (
(427,767,o),
(453,794,o),
(453,813,qs),
(453,832,o),
(427,859,o),
(408,859,qs),
(389,859,o),
(362,832,o),
(362,813,qs),
(362,794,o),
(389,767,o),
(408,767,qs)
);
}
);
width = 661;
}
);
note = Udieresis;
unicode = 220;
},
{
glyphname = Yacute;
layers = (
{
layerId = m01;
shapes = (
{
closed = 1;
nodes = (
(248,272,l),
(248,0,l),
(318,0,l),
(318,272,l),
(542,699,l),
(464,699,l),
(283,336,l),
(101,699,l),
(22,699,l)
);
},
{
closed = 1;
nodes = (
(170,786,l),
(170,732,l),
(375,851,l),
(375,914,l)
);
}
);
width = 564;
}
);
note = Yacute;
unicode = 221;
},
{
glyphname = Thorn;
layers = (
{
layerId = m01;
shapes = (
{
closed = 1;
nodes = (
(150,207,l),
(150,494,l),
(291,494,ls),
(455,494,o),
(455,350,qs),
(455,282,o),
(376,207,o),
(291,207,qs)
);
},
{
closed = 1;
nodes = (
(527,441,o),
(408,551,o),
(291,551,qs),
(149,551,l),
(149,700,l),
(80,700,l),
(80,0,l),
(150,0,l),
(150,150,l),
(291,150,ls),
(409,150,o),
(527,260,o),
(527,350,qs)
);
}
);
width = 564;
}
);
note = Thorn;
unicode = 222;
},
{
glyphname = germandbls;
layers = (
{
layerId = m01;
shapes = (
{
closed = 1;
nodes = (
(66,0,l),
(136,0,l),
(136,552,ls),
(136,627,o),
(212,709,o),
(288,709,qs),
(352,709,o),
(427,652,o),
(427,604,qs),
(427,573,o),
(392,527,o),
(356,495,qs),
(318,462,o),
(280,411,o),
(280,376,qs),
(280,332,o),
(346,276,o),
(426,249,qs),
(484,230,o),
(532,182,o),
(532,142,qs),
(532,98,o),
(475,47,o),
(424,47,qs),
(369,47,o),
(302,112,o),
(297,167,q),
(226,167,l),
(233,85,o),
(340,-10,o),
(424,-10,qs),
(508,-10,o),
(604,76,o),
(604,147,qs),
(604,204,o),
(539,279,o),
(468,302,qs),
(400,324,o),
(351,360,o),
(351,385,qs),
(351,404,o),
(378,437,o),
(408,463,qs),
(451,500,o),
(497,562,o),
(497,609,qs),
(497,653,o),
(448,725,o),
(354,768,o),
(289,768,qs),
(181,768,o),
(66,653,o),
(66,560,qs)
);
}
);
width = 665;
}
);
note = germandbls;
unicode = 223;
},
{
glyphname = agrave;
layers = (
{
layerId = m01;
shapes = (
{
closed = 1;
nodes = (
(48,190,o),
(115,62,o),
(234,-8,o),
(308,-8,qs),
(386,-8,o),
(499,65,o),
(525,121,q),
(525,0,l),
(595,0,l),
(595,546,l),
(525,546,l),
(525,426,l),
(500,482,o),
(387,554,o),
(309,554,qs),
(234,554,o),
(115,485,o),
(48,358,o),
(48,274,qs)
);
},
{
closed = 1;
nodes = (
(525,207,o),
(471,107,o),
(378,53,o),
(322,53,qs),
(264,53,o),
(172,106,o),
(119,207,o),
(119,274,qs),
(119,342,o),
(172,441,o),
(264,493,o),
(322,493,qs),
(378,493,o),
(471,439,o),
(525,339,o),
(525,273,qs)
);
},
{
closed = 1;
nodes = (
(226,707,l),
(431,588,l),
(431,642,l),
(226,770,l)
);
}
);
width = 675;
}
);
note = agrave;
unicode = 224;
},
{
glyphname = aacute;
layers = (
{
layerId = m01;
shapes = (
{
closed = 1;
nodes = (
(48,190,o),
(115,62,o),
(234,-8,o),
(308,-8,qs),
(386,-8,o),
(499,65,o),
(525,121,q),
(525,0,l),
(595,0,l),
(595,546,l),
(525,546,l),
(525,426,l),
(500,482,o),
(387,554,o),
(309,554,qs),
(234,554,o),
(115,485,o),
(48,358,o),
(48,274,qs)
);
},
{
closed = 1;
nodes = (
(525,207,o),
(471,107,o),
(378,53,o),
(322,53,qs),
(264,53,o),
(172,106,o),
(119,207,o),
(119,274,qs),
(119,342,o),
(172,441,o),
(264,493,o),
(322,493,qs),
(378,493,o),
(471,439,o),
(525,339,o),
(525,273,qs)
);
},
{
closed = 1;
nodes = (
(226,642,l),
(226,588,l),
(431,707,l),
(431,770,l)
);
}
);
width = 675;
}
);
note = aacute;
unicode = 225;
},
{
glyphname = acircumflex;
layers = (
{
layerId = m01;
shapes = (
{
closed = 1;
nodes = (
(48,190,o),
(115,62,o),
(234,-8,o),
(308,-8,qs),
(386,-8,o),
(499,65,o),
(525,121,q),
(525,0,l),
(595,0,l),
(595,546,l),
(525,546,l),
(525,426,l),
(500,482,o),
(387,554,o),
(309,554,qs),
(234,554,o),
(115,485,o),
(48,358,o),
(48,274,qs)
);
},
{
closed = 1;
nodes = (
(525,207,o),
(471,107,o),
(378,53,o),
(322,53,qs),
(264,53,o),
(172,106,o),
(119,207,o),
(119,274,qs),
(119,342,o),
(172,441,o),
(264,493,o),
(322,493,qs),
(378,493,o),
(471,439,o),
(525,339,o),
(525,273,qs)
);
},
{
closed = 1;
nodes = (
(473,661,l),
(339,743,l),
(205,661,l),
(205,604,l),
(339,688,l),
(473,604,l)
);
}
);
width = 675;
}
);
note = acircumflex;
unicode = 226;
},
{
glyphname = atilde;
layers = (
{
layerId = m01;
shapes = (
{
closed = 1;
nodes = (
(48,190,o),
(115,62,o),
(234,-8,o),
(308,-8,qs),
(386,-8,o),
(499,65,o),
(525,121,q),
(525,0,l),
(595,0,l),
(595,546,l),
(525,546,l),
(525,426,l),
(500,482,o),
(387,554,o),
(309,554,qs),
(234,554,o),
(115,485,o),
(48,358,o),
(48,274,qs)
);
},
{
closed = 1;
nodes = (
(525,207,o),
(471,107,o),
(378,53,o),
(322,53,qs),
(264,53,o),
(172,106,o),
(119,207,o),
(119,274,qs),
(119,342,o),
(172,441,o),
(264,493,o),
(322,493,qs),
(378,493,o),
(471,439,o),
(525,339,o),
(525,273,qs)
);
},
{
closed = 1;
nodes = (
(250,606,l),
(256,651,o),
(292,651,qs),
(305,651,o),
(326,641,o),
(340,630,qs),
(358,617,o),
(385,604,o),
(404,604,qs),
(440,604,o),
(489,653,o),
(493,697,q),
(451,697,l),
(448,675,o),
(424,652,o),
(407,652,qs),
(394,652,o),
(372,663,o),
(357,674,qs),
(339,686,o),
(313,699,o),
(295,699,qs),
(259,699,o),
(213,651,o),
(207,606,q)
);
}
);
width = 675;
}
);
note = atilde;
unicode = 227;
},
{
glyphname = adieresis;
layers = (
{
layerId = m01;
shapes = (
{
closed = 1;
nodes = (
(48,190,o),
(115,62,o),
(234,-8,o),
(308,-8,qs),
(386,-8,o),
(499,65,o),
(525,121,q),
(525,0,l),
(595,0,l),
(595,546,l),
(525,546,l),
(525,426,l),
(500,482,o),
(387,554,o),
(309,554,qs),
(234,554,o),
(115,485,o),
(48,358,o),
(48,274,qs)
);
},
{
closed = 1;
nodes = (
(525,207,o),
(471,107,o),
(378,53,o),
(322,53,qs),
(264,53,o),
(172,106,o),
(119,207,o),
(119,274,qs),
(119,342,o),
(172,441,o),
(264,493,o),
(322,493,qs),
(378,493,o),
(471,439,o),
(525,339,o),
(525,273,qs)
);
},
{
closed = 1;
nodes = (
(282,623,o),
(309,650,o),
(309,669,qs),
(309,688,o),
(282,715,o),
(263,715,qs),
(244,715,o),
(217,688,o),
(217,669,qs),
(217,650,o),
(244,623,o),
(263,623,qs)
);
},
{
closed = 1;
nodes = (
(436,623,o),
(462,650,o),
(462,669,qs),
(462,688,o),
(436,715,o),
(417,715,qs),
(398,715,o),
(371,688,o),
(371,669,qs),
(371,650,o),
(398,623,o),
(417,623,qs)
);
}
);
width = 675;
}
);
note = adieresis;
unicode = 228;
},
{
glyphname = aring;
layers = (
{
layerId = m01;
shapes = (
{
closed = 1;
nodes = (
(48,190,o),
(115,62,o),
(234,-8,o),
(308,-8,qs),
(386,-8,o),
(499,65,o),
(525,121,q),
(525,0,l),
(595,0,l),
(595,546,l),
(525,546,l),
(525,426,l),
(500,482,o),
(387,554,o),
(309,554,qs),
(234,554,o),
(115,485,o),
(48,358,o),
(48,274,qs)
);
},
{
closed = 1;
nodes = (
(525,207,o),
(471,107,o),
(378,53,o),
(322,53,qs),
(264,53,o),
(172,106,o),
(119,207,o),
(119,274,qs),
(119,342,o),
(172,441,o),
(264,493,o),
(322,493,qs),
(378,493,o),
(471,439,o),
(525,339,o),
(525,273,qs)
);
},
{
closed = 1;
nodes = (
(296,810,o),
(237,755,o),
(237,710,qs),
(237,665,o),
(296,610,o),
(339,610,qs),
(383,610,o),
(441,665,o),
(441,710,qs),
(441,755,o),
(383,810,o),
(339,810,qs)
);
},
{
closed = 1;
nodes = (
(314,649,o),
(281,683,o),
(281,710,qs),
(281,738,o),
(314,771,o),
(339,771,qs),
(364,771,o),
(398,738,o),
(398,710,qs),
(398,683,o),
(364,649,o),
(339,649,qs)
);
}
);
width = 675;
}
);
note = aring;
unicode = 229;
},
{
glyphname = ae;
layers = (
{
layerId = m01;
shapes = (
{
closed = 1;
nodes = (
(851,494,o),
(939,450,o),
(991,362,o),
(989,300,q),
(597,300,l),
(600,361,o),
(657,449,o),
(745,494,o),
(797,494,qs)
);
},
{
closed = 1;
nodes = (
(977,173,l),
(964,117,o),
(868,51,o),
(796,51,qs),
(747,51,o),
(658,95,o),
(600,184,o),
(596,248,q),
(1057,248,l),
(1061,273,o),
(1061,302,qs),
(1061,371,o),
(999,486,o),
(884,554,o),
(807,554,qs),
(734,554,o),
(620,488,o),
(588,422,q),
(588,546,l),
(529,546,l),
(529,423,l),
(499,484,o),
(387,554,o),
(312,554,qs),
(236,554,o),
(116,485,o),
(48,358,o),
(48,274,qs),
(48,190,o),
(115,62,o),
(234,-8,o),
(309,-8,qs),
(385,-8,o),
(500,66,o),
(527,126,q),
(527,0,l),
(588,0,l),
(588,126,l),
(615,63,o),
(733,-8,o),
(807,-8,qs),
(904,-8,o),
(1034,93,o),
(1053,173,q)
);
},
{
closed = 1;
nodes = (
(119,342,o),
(172,441,o),
(264,493,o),
(322,493,qs),
(378,493,o),
(471,439,o),
(525,339,o),
(525,273,qs),
(525,207,o),
(471,107,o),
(378,53,o),
(322,53,qs),
(264,53,o),
(172,106,o),
(119,207,o),
(119,274,qs)
);
}
);
width = 1108;
}
);
note = ae;
unicode = 230;
},
{
glyphname = ccedilla;
layers = (
{
layerId = m01;
shapes = (
{
closed = 1;
nodes = (
(48,193,o),
(109,70,o),
(217,-1,o),
(287,-7,q),
(287,-112,l),
(333,-112,ls),
(405,-112,o),
(405,-160,qs),
(405,-186,o),
(370,-211,o),
(333,-211,qs),
(247,-211,l),
(247,-258,l),
(347,-258,ls),
(400,-258,o),
(464,-205,o),
(464,-160,qs),
(464,-114,o),
(395,-65,o),
(336,-67,q),
(336,-7,l),
(427,-1,o),
(546,99,o),
(564,178,q),
(489,178,l),
(475,118,o),
(382,51,o),
(313,51,qs),
(258,51,o),
(170,101,o),
(119,201,o),
(119,273,qs),
(119,345,o),
(170,444,o),
(258,494,o),
(313,494,qs),
(382,494,o),
(475,427,o),
(489,368,q),
(564,368,l),
(545,454,o),
(414,554,o),
(313,554,qs),
(236,554,o),
(116,485,o),
(48,358,o),
(48,273,qs)
);
}
);
width = 613;
}
);
note = ccedilla;
unicode = 231;
},
{
glyphname = egrave;
layers = (
{
layerId = m01;
shapes = (
{
closed = 1;
nodes = (
(365,494,o),
(453,450,o),
(504,364,o),
(503,303,q),
(119,303,l),
(125,394,o),
(235,494,o),
(313,494,qs)
);
},
{
closed = 1;
nodes = (
(492,173,l),
(477,117,o),
(384,51,o),
(316,51,qs),
(264,51,o),
(176,96,o),
(122,184,o),
(119,246,q),
(572,246,l),
(574,265,o),
(574,301,qs),
(574,371,o),
(511,486,o),
(394,554,o),
(316,554,qs),
(238,554,o),
(116,486,o),
(48,358,o),
(48,273,qs),
(48,188,o),
(117,61,o),
(239,-8,o),
(316,-8,qs),
(415,-8,o),
(546,93,o),
(566,173,q)
);
},
{
closed = 1;
nodes = (
(198,707,l),
(403,588,l),
(403,642,l),
(198,770,l)
);
}
);
width = 622;
}
);
note = egrave;
unicode = 232;
},
{
glyphname = eacute;
layers = (
{
layerId = m01;
shapes = (
{
closed = 1;
nodes = (
(365,494,o),
(453,450,o),
(504,364,o),
(503,303,q),
(119,303,l),
(125,394,o),
(235,494,o),
(313,494,qs)
);
},
{
closed = 1;
nodes = (
(492,173,l),
(477,117,o),
(384,51,o),
(316,51,qs),
(264,51,o),
(176,96,o),
(122,184,o),
(119,246,q),
(572,246,l),
(574,265,o),
(574,301,qs),
(574,371,o),
(511,486,o),
(394,554,o),
(316,554,qs),
(238,554,o),
(116,486,o),
(48,358,o),
(48,273,qs),
(48,188,o),
(117,61,o),
(239,-8,o),
(316,-8,qs),
(415,-8,o),
(546,93,o),
(566,173,q)
);
},
{
closed = 1;
nodes = (
(198,642,l),
(198,588,l),
(403,707,l),
(403,770,l)
);
}
);
width = 622;
}
);
note = eacute;
unicode = 233;
},
{
glyphname = ecircumflex;
layers = (
{
layerId = m01;
shapes = (
{
closed = 1;
nodes = (
(365,494,o),
(453,450,o),
(504,364,o),
(503,303,q),
(119,303,l),
(125,394,o),
(235,494,o),
(313,494,qs)
);
},
{
closed = 1;
nodes = (
(492,173,l),
(477,117,o),
(384,51,o),
(316,51,qs),
(264,51,o),
(176,96,o),
(122,184,o),
(119,246,q),
(572,246,l),
(574,265,o),
(574,301,qs),
(574,371,o),
(511,486,o),
(394,554,o),
(316,554,qs),
(238,554,o),
(116,486,o),
(48,358,o),
(48,273,qs),
(48,188,o),
(117,61,o),
(239,-8,o),
(316,-8,qs),
(415,-8,o),
(546,93,o),
(566,173,q)
);
},
{
closed = 1;
nodes = (
(445,661,l),
(311,743,l),
(177,661,l),
(177,604,l),
(311,688,l),
(445,604,l)
);
}
);
width = 622;
}
);
note = ecircumflex;
unicode = 234;
},
{
glyphname = edieresis;
layers = (
{
layerId = m01;
shapes = (
{
closed = 1;
nodes = (
(365,494,o),
(453,450,o),
(504,364,o),
(503,303,q),
(119,303,l),
(125,394,o),
(235,494,o),
(313,494,qs)
);
},
{
closed = 1;
nodes = (
(492,173,l),
(477,117,o),
(384,51,o),
(316,51,qs),
(264,51,o),
(176,96,o),
(122,184,o),
(119,246,q),
(572,246,l),
(574,265,o),
(574,301,qs),
(574,371,o),
(511,486,o),
(394,554,o),
(316,554,qs),
(238,554,o),
(116,486,o),
(48,358,o),
(48,273,qs),
(48,188,o),
(117,61,o),
(239,-8,o),
(316,-8,qs),
(415,-8,o),
(546,93,o),
(566,173,q)
);
},
{
closed = 1;
nodes = (
(254,623,o),
(281,650,o),
(281,669,qs),
(281,688,o),
(254,715,o),
(235,715,qs),
(216,715,o),
(189,688,o),
(189,669,qs),
(189,650,o),
(216,623,o),
(235,623,qs)
);
},
{
closed = 1;
nodes = (
(408,623,o),
(434,650,o),
(434,669,qs),
(434,688,o),
(408,715,o),
(389,715,qs),
(370,715,o),
(343,688,o),
(343,669,qs),
(343,650,o),
(370,623,o),
(389,623,qs)
);
}
);
width = 622;
}
);
note = edieresis;
unicode = 235;
},
{
glyphname = igrave;
layers = (
{
layerId = m01;
shapes = (
{
closed = 1;
nodes = (
(80,0,l),
(150,0,l),
(150,546,l),
(80,546,l)
);
},
{
closed = 1;
nodes = (
(2,707,l),
(207,588,l),
(207,642,l),
(2,770,l)
);
}
);
width = 229;
}
);
note = igrave;
unicode = 236;
},
{
glyphname = iacute;
layers = (
{
layerId = m01;
shapes = (
{
closed = 1;
nodes = (
(80,0,l),
(150,0,l),
(150,546,l),
(80,546,l)
);
},
{
closed = 1;
nodes = (
(2,642,l),
(2,588,l),
(207,707,l),
(207,770,l)
);
}
);
width = 229;
}
);
note = iacute;
unicode = 237;
},
{
glyphname = icircumflex;
layers = (
{
layerId = m01;
shapes = (
{
closed = 1;
nodes = (
(80,0,l),
(150,0,l),
(150,546,l),
(80,546,l)
);
},
{
closed = 1;
nodes = (
(249,661,l),
(115,743,l),
(-19,661,l),
(-19,604,l),
(115,688,l),
(249,604,l)
);
}
);
width = 229;
}
);
note = icircumflex;
unicode = 238;
},
{
glyphname = idieresis;
layers = (
{
layerId = m01;
shapes = (
{
closed = 1;
nodes = (
(80,0,l),
(150,0,l),
(150,546,l),
(80,546,l)
);
},
{
closed = 1;
nodes = (
(57,623,o),
(84,650,o),
(84,669,qs),
(84,688,o),
(57,715,o),
(38,715,qs),
(19,715,o),
(-8,688,o),
(-8,669,qs),
(-8,650,o),
(19,623,o),
(38,623,qs)
);
},
{
closed = 1;
nodes = (
(211,623,o),
(237,650,o),
(237,669,qs),
(237,688,o),
(211,715,o),
(192,715,qs),
(173,715,o),
(146,688,o),
(146,669,qs),
(146,650,o),
(173,623,o),
(192,623,qs)
);
}
);
width = 229;
}
);
note = idieresis;
unicode = 239;
},
{
glyphname = eth;
layers = (
{
layerId = m01;
shapes = (
{
closed = 1;
nodes = (
(258,640,l),
(258,599,l),
(397,647,l),
(443,597,o),
(500,493,o),
(515,432,q),
(486,494,o),
(382,556,o),
(314,556,qs),
(237,556,o),
(116,488,o),
(48,363,o),
(48,281,qs),
(48,195,o),
(116,64,o),
(238,-8,o),
(318,-8,qs),
(399,-8,o),
(522,64,o),
(592,208,o),
(592,312,qs),
(592,413,o),
(521,587,o),
(448,664,q),
(554,701,l),
(554,742,l),
(418,695,l),
(366,740,l),
(294,740,l),
(343,700,o),
(366,677,q)
);
},
{
closed = 1;
nodes = (
(119,349,o),
(172,447,o),
(263,497,o),
(319,497,qs),
(374,497,o),
(466,445,o),
(521,343,o),
(521,273,qs),
(521,204,o),
(466,103,o),
(373,51,o),
(318,51,qs),
(261,51,o),
(171,105,o),
(119,209,o),
(119,281,qs)
);
}
);
width = 640;
}
);
note = eth;
unicode = 240;
},
{
glyphname = ntilde;
layers = (
{
layerId = m01;
shapes = (
{
closed = 1;
nodes = (
(150,298,ls),
(150,395,o),
(244,495,o),
(323,495,qs),
(400,495,o),
(489,401,o),
(489,312,qs),
(489,0,l),
(558,0,l),
(558,320,ls),
(558,435,o),
(434,556,o),
(336,556,qs),
(274,556,o),
(176,503,o),
(150,453,q),
(150,546,l),
(80,546,l),
(80,0,l),
(150,0,l)
);
},
{
closed = 1;
nodes = (
(221,606,l),
(227,651,o),
(263,651,qs),
(276,651,o),
(297,641,o),
(311,630,qs),
(329,617,o),
(356,604,o),
(375,604,qs),
(411,604,o),
(460,653,o),
(464,697,q),
(422,697,l),
(419,675,o),
(395,652,o),
(378,652,qs),
(365,652,o),
(343,663,o),
(328,674,qs),
(310,686,o),
(284,699,o),
(266,699,qs),
(230,699,o),
(184,651,o),
(178,606,q)
);
}
);
width = 633;
}
);
note = ntilde;
unicode = 241;
},
{
glyphname = ograve;
layers = (
{
layerId = m01;
shapes = (
{
closed = 1;
nodes = (
(594,358,o),
(523,485,o),
(398,554,o),
(321,554,qs),
(244,554,o),
(120,485,o),
(48,358,o),
(48,273,qs),
(48,188,o),
(119,61,o),
(242,-8,o),
(319,-8,qs),
(396,-8,o),
(522,61,o),
(594,189,o),
(594,273,qs)
);
},
{
closed = 1;
nodes = (
(119,345,o),
(174,444,o),
(266,493,o),
(320,493,qs),
(374,493,o),
(466,444,o),
(522,345,o),
(522,273,qs),
(522,201,o),
(465,102,o),
(373,53,o),
(319,53,qs),
(265,53,o),
(174,102,o),
(119,201,o),
(119,273,qs)
);
},
{
closed = 1;
nodes = (
(210,712,l),
(415,593,l),
(415,647,l),
(210,775,l)
);
}
);
width = 642;
}
);
note = ograve;
unicode = 242;
},
{
glyphname = oacute;
layers = (
{
layerId = m01;
shapes = (
{
closed = 1;
nodes = (
(594,358,o),
(523,485,o),
(398,554,o),
(321,554,qs),
(244,554,o),
(120,485,o),
(48,358,o),
(48,273,qs),
(48,188,o),
(119,61,o),
(242,-8,o),
(319,-8,qs),
(396,-8,o),
(522,61,o),
(594,189,o),
(594,273,qs)
);
},
{
closed = 1;
nodes = (
(119,345,o),
(174,444,o),
(266,493,o),
(320,493,qs),
(374,493,o),
(466,444,o),
(522,345,o),
(522,273,qs),
(522,201,o),
(465,102,o),
(373,53,o),
(319,53,qs),
(265,53,o),
(174,102,o),
(119,201,o),
(119,273,qs)
);
},
{
closed = 1;
nodes = (
(210,647,l),
(210,593,l),
(415,712,l),
(415,775,l)
);
}
);
width = 642;
}
);
note = oacute;
unicode = 243;
},
{
glyphname = ocircumflex;
layers = (
{
layerId = m01;
shapes = (
{
closed = 1;
nodes = (
(594,358,o),
(523,485,o),
(398,554,o),
(321,554,qs),
(244,554,o),
(120,485,o),
(48,358,o),
(48,273,qs),
(48,188,o),
(119,61,o),
(242,-8,o),
(319,-8,qs),
(396,-8,o),
(522,61,o),
(594,189,o),
(594,273,qs)
);
},
{
closed = 1;
nodes = (
(119,345,o),
(174,444,o),
(266,493,o),
(320,493,qs),
(374,493,o),
(466,444,o),
(522,345,o),
(522,273,qs),
(522,201,o),
(465,102,o),
(373,53,o),
(319,53,qs),
(265,53,o),
(174,102,o),
(119,201,o),
(119,273,qs)
);
},
{
closed = 1;
nodes = (
(457,666,l),
(323,748,l),
(189,666,l),
(189,609,l),
(323,693,l),
(457,609,l)
);
}
);
width = 642;
}
);
note = ocircumflex;
unicode = 244;
},
{
glyphname = otilde;
layers = (
{
layerId = m01;
shapes = (
{
closed = 1;
nodes = (
(594,358,o),
(523,485,o),
(398,554,o),
(321,554,qs),
(244,554,o),
(120,485,o),
(48,358,o),
(48,273,qs),
(48,188,o),
(119,61,o),
(242,-8,o),
(319,-8,qs),
(396,-8,o),
(522,61,o),
(594,189,o),
(594,273,qs)
);
},
{
closed = 1;
nodes = (
(119,345,o),
(174,444,o),
(266,493,o),
(320,493,qs),
(374,493,o),
(466,444,o),
(522,345,o),
(522,273,qs),
(522,201,o),
(465,102,o),
(373,53,o),
(319,53,qs),
(265,53,o),
(174,102,o),
(119,201,o),
(119,273,qs)
);
},
{
closed = 1;
nodes = (
(234,611,l),
(240,656,o),
(276,656,qs),
(289,656,o),
(310,646,o),
(324,635,qs),
(342,622,o),
(369,609,o),
(388,609,qs),
(424,609,o),
(473,658,o),
(477,702,q),
(435,702,l),
(432,680,o),
(408,657,o),
(391,657,qs),
(378,657,o),
(356,668,o),
(341,679,qs),
(323,691,o),
(297,704,o),
(279,704,qs),
(243,704,o),
(197,656,o),
(191,611,q)
);
}
);
width = 642;
}
);
note = otilde;
unicode = 245;
},
{
glyphname = odieresis;
layers = (
{
layerId = m01;
shapes = (
{
closed = 1;
nodes = (
(594,358,o),
(523,485,o),
(398,554,o),
(321,554,qs),
(244,554,o),
(120,485,o),
(48,358,o),
(48,273,qs),
(48,188,o),
(119,61,o),
(242,-8,o),
(319,-8,qs),
(396,-8,o),
(522,61,o),
(594,189,o),
(594,273,qs)
);
},
{
closed = 1;
nodes = (
(119,345,o),
(174,444,o),
(266,493,o),
(320,493,qs),
(374,493,o),
(466,444,o),
(522,345,o),
(522,273,qs),
(522,201,o),
(465,102,o),
(373,53,o),
(319,53,qs),
(265,53,o),
(174,102,o),
(119,201,o),
(119,273,qs)
);
},
{
closed = 1;
nodes = (
(265,628,o),
(292,655,o),
(292,674,qs),
(292,693,o),
(265,720,o),
(246,720,qs),
(227,720,o),
(200,693,o),
(200,674,qs),
(200,655,o),
(227,628,o),
(246,628,qs)
);
},
{
closed = 1;
nodes = (
(419,628,o),
(445,655,o),
(445,674,qs),
(445,693,o),
(419,720,o),
(400,720,qs),
(381,720,o),
(354,693,o),
(354,674,qs),
(354,655,o),
(381,628,o),
(400,628,qs)
);
}
);
width = 642;
}
);
note = odieresis;
unicode = 246;
},
{
glyphname = divide;
layers = (
{
layerId = m01;
shapes = (
{
closed = 1;
nodes = (
(67,341,l),
(576,341,l),
(576,400,l),
(67,400,l)
);
},
{
closed = 1;
nodes = (
(374,179,o),
(345,208,o),
(324,208,qs),
(302,208,o),
(273,179,o),
(273,157,qs),
(273,135,o),
(302,105,o),
(324,105,qs),
(345,105,o),
(374,135,o),
(374,157,qs)
);
},
{
closed = 1;
nodes = (
(374,608,o),
(345,637,o),
(324,637,qs),
(302,637,o),
(273,608,o),
(273,586,qs),
(273,564,o),
(302,534,o),
(324,534,qs),
(345,534,o),
(374,564,o),
(374,586,qs)
);
}
);
width = 637;
}
);
note = divide;
unicode = 247;
},
{
glyphname = oslash;
layers = (
{
layerId = m01;
shapes = (
{
closed = 1;
nodes = (
(594,391,o),
(525,468,q),
(596,546,l),
(544,546,l),
(497,495,l),
(424,554,o),
(321,554,qs),
(244,554,o),
(120,485,o),
(48,358,o),
(48,273,qs),
(48,213,o),
(84,114,o),
(117,77,q),
(47,0,l),
(100,0,l),
(145,50,l),
(219,-8,o),
(319,-8,qs),
(396,-8,o),
(522,61,o),
(594,189,o),
(594,273,qs)
);
},
{
closed = 1;
nodes = (
(119,345,o),
(174,444,o),
(266,493,o),
(320,493,qs),
(399,493,o),
(453,446,q),
(162,127,l),
(119,185,o),
(119,273,qs)
);
},
{
closed = 1;
nodes = (
(243,53,o),
(189,98,q),
(479,417,l),
(522,361,o),
(522,273,qs),
(522,201,o),
(465,102,o),
(373,53,o),
(319,53,qs)
);
}
);
width = 642;
}
);
note = oslash;
unicode = 248;
},
{
glyphname = ugrave;
layers = (
{
layerId = m01;
shapes = (
{
closed = 1;
nodes = (
(553,546,l),
(483,546,l),
(483,249,ls),
(483,152,o),
(389,52,o),
(310,52,qs),
(233,52,o),
(144,146,o),
(144,235,qs),
(144,546,l),
(75,546,l),
(75,227,ls),
(75,112,o),
(199,-9,o),
(297,-9,qs),
(359,-9,o),
(459,45,o),
(483,96,q),
(483,0,l),
(553,0,l)
);
},
{
closed = 1;
nodes = (
(204,707,l),
(409,588,l),
(409,642,l),
(204,770,l)
);
}
);
width = 633;
}
);
note = ugrave;
unicode = 249;
},
{
glyphname = uacute;
layers = (
{
layerId = m01;
shapes = (
{
closed = 1;
nodes = (
(553,546,l),
(483,546,l),
(483,249,ls),
(483,152,o),
(389,52,o),
(310,52,qs),
(233,52,o),
(144,146,o),
(144,235,qs),
(144,546,l),
(75,546,l),
(75,227,ls),
(75,112,o),
(199,-9,o),
(297,-9,qs),
(359,-9,o),
(459,45,o),
(483,96,q),
(483,0,l),
(553,0,l)
);
},
{
closed = 1;
nodes = (
(204,642,l),
(204,588,l),
(409,707,l),
(409,770,l)
);
}
);
width = 633;
}
);
note = uacute;
unicode = 250;
},
{
glyphname = ucircumflex;
layers = (
{
layerId = m01;
shapes = (
{
closed = 1;
nodes = (
(553,546,l),
(483,546,l),
(483,249,ls),
(483,152,o),
(389,52,o),
(310,52,qs),
(233,52,o),
(144,146,o),
(144,235,qs),
(144,546,l),
(75,546,l),
(75,227,ls),
(75,112,o),
(199,-9,o),
(297,-9,qs),
(359,-9,o),
(459,45,o),
(483,96,q),
(483,0,l),
(553,0,l)
);
},
{
closed = 1;
nodes = (
(451,661,l),
(317,743,l),
(183,661,l),
(183,604,l),
(317,688,l),
(451,604,l)
);
}
);
width = 633;
}
);
note = ucircumflex;
unicode = 251;
},
{
glyphname = udieresis;
layers = (
{
layerId = m01;
shapes = (
{
closed = 1;
nodes = (
(553,546,l),
(483,546,l),
(483,249,ls),
(483,152,o),
(389,52,o),
(310,52,qs),
(233,52,o),
(144,146,o),
(144,235,qs),
(144,546,l),
(75,546,l),
(75,227,ls),
(75,112,o),
(199,-9,o),
(297,-9,qs),
(359,-9,o),
(459,45,o),
(483,96,q),
(483,0,l),
(553,0,l)
);
},
{
closed = 1;
nodes = (
(260,623,o),
(287,650,o),
(287,669,qs),
(287,688,o),
(260,715,o),
(241,715,qs),
(222,715,o),
(195,688,o),
(195,669,qs),
(195,650,o),
(222,623,o),
(241,623,qs)
);
},
{
closed = 1;
nodes = (
(414,623,o),
(440,650,o),
(440,669,qs),
(440,688,o),
(414,715,o),
(395,715,qs),
(376,715,o),
(349,688,o),
(349,669,qs),
(349,650,o),
(376,623,o),
(395,623,qs)
);
}
);
width = 633;
}
);
note = udieresis;
unicode = 252;
},
{
glyphname = yacute;
layers = (
{
layerId = m01;
shapes = (
{
closed = 1;
nodes = (
(278,80,l),
(92,546,l),
(15,546,l),
(239,3,l),
(133,-257,l),
(206,-257,l),
(530,546,l),
(458,546,l)
);
},
{
closed = 1;
nodes = (
(160,642,l),
(160,588,l),
(365,707,l),
(365,770,l)
);
}
);
width = 545;
}
);
note = yacute;
unicode = 253;
},
{
glyphname = thorn;
layers = (
{
layerId = m01;
shapes = (
{
closed = 1;
nodes = (
(149,740,l),
(80,740,l),
(80,-258,l),
(149,-258,l),
(149,136,l),
(174,71,o),
(287,-8,o),
(366,-8,qs),
(440,-8,o),
(559,62,o),
(626,190,o),
(626,274,qs),
(626,358,o),
(559,485,o),
(440,554,o),
(366,554,qs),
(287,554,o),
(174,476,o),
(149,412,q)
);
},
{
closed = 1;
nodes = (
(555,207,o),
(502,106,o),
(410,53,o),
(352,53,qs),
(296,53,o),
(203,107,o),
(149,207,o),
(149,273,qs),
(149,339,o),
(203,439,o),
(296,493,o),
(352,493,qs),
(410,493,o),
(502,441,o),
(555,342,o),
(555,274,qs)
);
}
);
width = 675;
}
);
note = thorn;
unicode = 254;
},
{
glyphname = ydieresis;
layers = (
{
layerId = m01;
shapes = (
{
closed = 1;
nodes = (
(278,80,l),
(92,546,l),
(15,546,l),
(239,3,l),
(133,-257,l),
(206,-257,l),
(530,546,l),
(458,546,l)
);
},
{
closed = 1;
nodes = (
(216,623,o),
(243,650,o),
(243,669,qs),
(243,688,o),
(216,715,o),
(197,715,qs),
(178,715,o),
(151,688,o),
(151,669,qs),
(151,650,o),
(178,623,o),
(197,623,qs)
);
},
{
closed = 1;
nodes = (
(370,623,o),
(396,650,o),
(396,669,qs),
(396,688,o),
(370,715,o),
(351,715,qs),
(332,715,o),
(305,688,o),
(305,669,qs),
(305,650,o),
(332,623,o),
(351,623,qs)
);
}
);
width = 545;
}
);
note = ydieresis;
unicode = 255;
},
{
glyphname = Amacron;
layers = (
{
layerId = m01;
shapes = (
{
closed = 1;
nodes = (
(546,0,l),
(620,0,l),
(366,690,l),
(287,690,l),
(32,0,l),
(106,0,l),
(167,166,l),
(485,166,l)
);
},
{
closed = 1;
nodes = (
(157,790,l),
(496,790,l),
(496,844,l),
(157,844,l)
);
},
{
closed = 1;
nodes = (
(464,224,l),
(188,224,l),
(326,602,l)
);
}
);
width = 652;
}
);
note = Amacron;
unicode = 256;
},
{
glyphname = amacron;
layers = (
{
layerId = m01;
shapes = (
{
closed = 1;
nodes = (
(48,190,o),
(115,62,o),
(234,-8,o),
(308,-8,qs),
(386,-8,o),
(499,65,o),
(525,121,q),
(525,0,l),
(595,0,l),
(595,546,l),
(525,546,l),
(525,426,l),
(500,482,o),
(387,554,o),
(309,554,qs),
(234,554,o),
(115,485,o),
(48,358,o),
(48,274,qs)
);
},
{
closed = 1;
nodes = (
(525,207,o),
(471,107,o),
(378,53,o),
(322,53,qs),
(264,53,o),
(172,106,o),
(119,207,o),
(119,274,qs),
(119,342,o),
(172,441,o),
(264,493,o),
(322,493,qs),
(378,493,o),
(471,439,o),
(525,339,o),
(525,273,qs)
);
},
{
closed = 1;
nodes = (
(169,646,l),
(508,646,l),
(508,700,l),
(169,700,l)
);
}
);
width = 675;
}
);
note = amacron;
unicode = 257;
},
{
glyphname = Abreve;
layers = (
{
layerId = m01;
shapes = (
{
closed = 1;
nodes = (
(546,0,l),
(620,0,l),
(366,690,l),
(287,690,l),
(32,0,l),
(106,0,l),
(167,166,l),
(485,166,l)
);
},
{
closed = 1;
nodes = (
(462,886,l),
(417,886,l),
(417,806,o),
(326,806,qs),
(235,806,o),
(235,886,q),
(191,886,l),
(191,873,ls),
(191,820,o),
(261,750,o),
(326,750,qs),
(391,750,o),
(462,820,o),
(462,873,qs)
);
},
{
closed = 1;
nodes = (
(464,224,l),
(188,224,l),
(326,602,l)
);
}
);
width = 652;
}
);
note = Abreve;
unicode = 258;
},
{
glyphname = abreve;
layers = (
{
layerId = m01;
shapes = (
{
closed = 1;
nodes = (
(48,190,o),
(115,62,o),
(234,-8,o),
(308,-8,qs),
(386,-8,o),
(499,65,o),
(525,121,q),
(525,0,l),
(595,0,l),
(595,546,l),
(525,546,l),
(525,426,l),
(500,482,o),
(387,554,o),
(309,554,qs),
(234,554,o),
(115,485,o),
(48,358,o),
(48,274,qs)
);
},
{
closed = 1;
nodes = (
(525,207,o),
(471,107,o),
(378,53,o),
(322,53,qs),
(264,53,o),
(172,106,o),
(119,207,o),
(119,274,qs),
(119,342,o),
(172,441,o),
(264,493,o),
(322,493,qs),
(378,493,o),
(471,439,o),
(525,339,o),
(525,273,qs)
);
},
{
closed = 1;
nodes = (
(475,742,l),
(430,742,l),
(430,662,o),
(339,662,qs),
(248,662,o),
(248,742,q),
(204,742,l),
(204,729,ls),
(204,676,o),
(274,606,o),
(339,606,qs),
(404,606,o),
(475,676,o),
(475,729,qs)
);
}
);
width = 675;
}
);
note = abreve;
unicode = 259;
},
{
glyphname = Aogonek;
layers = (
{
layerId = m01;
shapes = (
{
closed = 1;
nodes = (
(287,690,l),
(32,0,l),
(106,0,l),
(167,166,l),
(485,166,l),
(542,11,l),
(439,-36,o),
(439,-109,qs),
(439,-156,o),
(504,-201,o),
(552,-201,qs),
(588,-201,o),
(624,-188,q),
(624,-139,l),
(590,-153,o),
(559,-153,qs),
(531,-153,o),
(498,-126,o),
(498,-102,qs),
(498,-81,o),
(527,-45,o),
(561,-29,qs),
(620,0,l),
(366,690,l)
);
},
{
closed = 1;
nodes = (
(464,224,l),
(188,224,l),
(326,602,l)
);
}
);
width = 652;
}
);
note = Aogonek;
unicode = 260;
},
{
glyphname = aogonek;
layers = (
{
layerId = m01;
shapes = (
{
closed = 1;
nodes = (
(48,190,o),
(115,62,o),
(234,-8,o),
(308,-8,qs),
(386,-8,o),
(499,65,o),
(525,121,q),
(525,15,l),
(521,13,ls),
(413,-36,o),
(413,-109,qs),
(413,-156,o),
(478,-201,o),
(526,-201,qs),
(562,-201,o),
(598,-188,q),
(598,-139,l),
(564,-153,o),
(534,-153,qs),
(506,-153,o),
(472,-126,o),
(472,-102,qs),
(472,-60,o),
(535,-29,qs),
(595,0,l),
(595,546,l),
(525,546,l),
(525,426,l),
(500,482,o),
(387,554,o),
(309,554,qs),
(234,554,o),
(115,485,o),
(48,358,o),
(48,274,qs)
);
},
{
closed = 1;
nodes = (
(525,207,o),
(471,107,o),
(378,53,o),
(322,53,qs),
(264,53,o),
(172,106,o),
(119,207,o),
(119,274,qs),
(119,342,o),
(172,441,o),
(264,493,o),
(322,493,qs),
(378,493,o),
(471,439,o),
(525,339,o),
(525,273,qs)
);
}
);
width = 675;
}
);
note = aogonek;
unicode = 261;
},
{
glyphname = Cacute;
layers = (
{
layerId = m01;
shapes = (
{
closed = 1;
nodes = (
(48,247,o),
(138,85,o),
(294,-6,o),
(390,-6,qs),
(506,-6,o),
(674,104,o),
(712,204,q),
(630,204,l),
(600,134,o),
(477,55,o),
(390,55,qs),
(313,55,o),
(190,127,o),
(120,261,o),
(120,350,qs),
(120,439,o),
(190,574,o),
(313,646,o),
(390,646,qs),
(477,646,o),
(600,566,o),
(630,495,q),
(712,495,l),
(674,596,o),
(507,707,o),
(390,707,qs),
(294,707,o),
(138,616,o),
(48,453,o),
(48,350,qs)
);
},
{
closed = 1;
nodes = (
(288,790,l),
(288,736,l),
(493,855,l),
(493,918,l)
);
}
);
width = 771;
}
);
note = Cacute;
unicode = 262;
},
{
glyphname = cacute;
layers = (
{
layerId = m01;
shapes = (
{
closed = 1;
nodes = (
(48,188,o),
(116,61,o),
(236,-8,o),
(313,-8,qs),
(413,-8,o),
(545,94,o),
(564,178,q),
(489,178,l),
(475,118,o),
(382,51,o),
(313,51,qs),
(258,51,o),
(170,101,o),
(119,201,o),
(119,273,qs),
(119,345,o),
(170,444,o),
(258,494,o),
(313,494,qs),
(382,494,o),
(475,427,o),
(489,368,q),
(564,368,l),
(545,454,o),
(414,554,o),
(313,554,qs),
(236,554,o),
(116,485,o),
(48,358,o),
(48,273,qs)
);
},
{
closed = 1;
nodes = (
(195,642,l),
(195,588,l),
(400,707,l),
(400,770,l)
);
}
);
width = 613;
}
);
note = cacute;
unicode = 263;
},
{
glyphname = Cdotaccent;
layers = (
{
layerId = m01;
shapes = (
{
closed = 1;
nodes = (
(48,247,o),
(138,85,o),
(294,-6,o),
(390,-6,qs),
(506,-6,o),
(674,104,o),
(712,204,q),
(630,204,l),
(600,134,o),
(477,55,o),
(390,55,qs),
(313,55,o),
(190,127,o),
(120,261,o),
(120,350,qs),
(120,439,o),
(190,574,o),
(313,646,o),
(390,646,qs),
(477,646,o),
(600,566,o),
(630,495,q),
(712,495,l),
(674,596,o),
(507,707,o),
(390,707,qs),
(294,707,o),
(138,616,o),
(48,453,o),
(48,350,qs)
);
},
{
closed = 1;
nodes = (
(420,761,o),
(447,788,o),
(447,807,qs),
(447,826,o),
(420,853,o),
(401,853,qs),
(382,853,o),
(355,826,o),
(355,807,qs),
(355,788,o),
(382,761,o),
(401,761,qs)
);
}
);
width = 771;
}
);
note = Cdotaccent;
unicode = 266;
},
{
glyphname = cdotaccent;
layers = (
{
layerId = m01;
shapes = (
{
closed = 1;
nodes = (
(48,188,o),
(116,61,o),
(236,-8,o),
(313,-8,qs),
(413,-8,o),
(545,94,o),
(564,178,q),
(489,178,l),
(475,118,o),
(382,51,o),
(313,51,qs),
(258,51,o),
(170,101,o),
(119,201,o),
(119,273,qs),
(119,345,o),
(170,444,o),
(258,494,o),
(313,494,qs),
(382,494,o),
(475,427,o),
(489,368,q),
(564,368,l),
(545,454,o),
(414,554,o),
(313,554,qs),
(236,554,o),
(116,485,o),
(48,358,o),
(48,273,qs)
);
},
{
closed = 1;
nodes = (
(327,613,o),
(354,640,o),
(354,659,qs),
(354,678,o),
(327,705,o),
(308,705,qs),
(289,705,o),
(262,678,o),
(262,659,qs),
(262,640,o),
(289,613,o),
(308,613,qs)
);
}
);
width = 613;
}
);
note = cdotaccent;
unicode = 267;
},
{
glyphname = Ccaron;
layers = (
{
layerId = m01;
shapes = (
{
closed = 1;
nodes = (
(48,247,o),
(138,85,o),
(294,-6,o),
(390,-6,qs),
(506,-6,o),
(674,104,o),
(712,204,q),
(630,204,l),
(600,134,o),
(477,55,o),
(390,55,qs),
(313,55,o),
(190,127,o),
(120,261,o),
(120,350,qs),
(120,439,o),
(190,574,o),
(313,646,o),
(390,646,qs),
(477,646,o),
(600,566,o),
(630,495,q),
(712,495,l),
(674,596,o),
(507,707,o),
(390,707,qs),
(294,707,o),
(138,616,o),
(48,453,o),
(48,350,qs)
);
},
{
closed = 1;
nodes = (
(401,806,l),
(267,889,l),
(267,833,l),
(401,751,l),
(535,833,l),
(535,889,l)
);
}
);
width = 771;
}
);
note = Ccaron;
unicode = 268;
},
{
glyphname = ccaron;
layers = (
{
layerId = m01;
shapes = (
{
closed = 1;
nodes = (
(48,188,o),
(116,61,o),
(236,-8,o),
(313,-8,qs),
(413,-8,o),
(545,94,o),
(564,178,q),
(489,178,l),
(475,118,o),
(382,51,o),
(313,51,qs),
(258,51,o),
(170,101,o),
(119,201,o),
(119,273,qs),
(119,345,o),
(170,444,o),
(258,494,o),
(313,494,qs),
(382,494,o),
(475,427,o),
(489,368,q),
(564,368,l),
(545,454,o),
(414,554,o),
(313,554,qs),
(236,554,o),
(116,485,o),
(48,358,o),
(48,273,qs)
);
},
{
closed = 1;
nodes = (
(308,658,l),
(174,741,l),
(174,685,l),
(308,603,l),
(442,685,l),
(442,741,l)
);
}
);
width = 613;
}
);
note = ccaron;
unicode = 269;
},
{
glyphname = Dcaron;
layers = (
{
layerId = m01;
shapes = (
{
closed = 1;
nodes = (
(80,699,l),
(80,0,l),
(287,0,ls),
(403,0,o),
(569,83,o),
(657,240,o),
(657,348,qs),
(657,457,o),
(569,615,o),
(403,699,o),
(287,699,qs)
);
},
{
closed = 1;
nodes = (
(150,58,l),
(150,641,l),
(287,641,ls),
(433,641,o),
(586,486,o),
(586,348,qs),
(586,211,o),
(433,58,o),
(287,58,qs)
);
},
{
closed = 1;
nodes = (
(348,802,l),
(214,885,l),
(214,829,l),
(348,747,l),
(482,829,l),
(482,885,l)
);
}
);
width = 706;
}
);
note = Dcaron;
unicode = 270;
},
{
glyphname = dcaron;
layers = (
{
layerId = m01;
shapes = (
{
closed = 1;
nodes = (
(648,740,l),
(648,664,l),
(694,664,l),
(694,639,ls),
(694,613,o),
(672,588,o),
(647,588,q),
(647,552,l),
(693,552,o),
(739,601,o),
(739,655,qs),
(739,693,o),
(729,740,q)
);
},
{
closed = 1;
nodes = (
(48,190,o),
(115,62,o),
(234,-8,o),
(309,-8,qs),
(386,-8,o),
(500,65,o),
(525,122,q),
(525,0,l),
(595,0,l),
(595,740,l),
(525,740,l),
(525,428,l),
(498,484,o),
(382,554,o),
(310,554,qs),
(235,554,o),
(116,485,o),
(48,358,o),
(48,274,qs)
);
},
{
closed = 1;
nodes = (
(525,207,o),
(471,107,o),
(378,53,o),
(322,53,qs),
(264,53,o),
(172,106,o),
(119,207,o),
(119,274,qs),
(119,342,o),
(172,441,o),
(264,493,o),
(322,493,qs),
(378,493,o),
(471,439,o),
(525,339,o),
(525,273,qs)
);
}
);
width = 730;
}
);
note = dcaron;
unicode = 271;
},
{
glyphname = Dcroat;
layers = (
{
layerId = m01;
shapes = (
{
closed = 1;
nodes = (
(104,699,l),
(104,381,l),
(9,381,l),
(9,316,l),
(104,316,l),
(104,0,l),
(312,0,ls),
(428,0,o),
(594,83,o),
(682,240,o),
(682,348,qs),
(682,457,o),
(594,615,o),
(428,699,o),
(312,699,qs)
);
},
{
closed = 1;
nodes = (
(175,55,l),
(175,316,l),
(379,316,l),
(379,381,l),
(175,381,l),
(175,642,l),
(312,642,ls),
(457,642,o),
(610,486,o),
(610,348,qs),
(610,210,o),
(457,55,o),
(312,55,qs)
);
}
);
width = 730;
}
);
note = Dcroat;
unicode = 272;
},
{
glyphname = dcroat;
layers = (
{
layerId = m01;
shapes = (
{
closed = 1;
nodes = (
(48,190,o),
(115,62,o),
(234,-8,o),
(309,-8,qs),
(386,-8,o),
(500,65,o),
(525,122,q),
(525,0,l),
(595,0,l),
(595,618,l),
(658,618,l),
(658,662,l),
(595,662,l),
(595,740,l),
(525,740,l),
(525,662,l),
(385,662,l),
(385,618,l),
(525,618,l),
(525,428,l),
(498,484,o),
(382,554,o),
(310,554,qs),
(235,554,o),
(116,485,o),
(48,358,o),
(48,274,qs)
);
},
{
closed = 1;
nodes = (
(525,207,o),
(471,107,o),
(378,53,o),
(322,53,qs),
(264,53,o),
(172,106,o),
(119,207,o),
(119,274,qs),
(119,342,o),
(172,441,o),
(264,493,o),
(322,493,qs),
(378,493,o),
(471,439,o),
(525,339,o),
(525,273,qs)
);
}
);
width = 671;
}
);
note = dcroat;
unicode = 273;
},
{
glyphname = Emacron;
layers = (
{
layerId = m01;
shapes = (
{
closed = 1;
nodes = (
(445,700,l),
(80,700,l),
(80,0,l),
(445,0,l),
(445,58,l),
(150,58,l),
(150,323,l),
(415,323,l),
(415,381,l),
(150,381,l),
(150,642,l),
(445,642,l)
);
},
{
closed = 1;
nodes = (
(78,790,l),
(417,790,l),
(417,844,l),
(78,844,l)
);
}
);
width = 503;
}
);
note = Emacron;
unicode = 274;
},
{
glyphname = emacron;
layers = (
{
layerId = m01;
shapes = (
{
closed = 1;
nodes = (
(365,494,o),
(453,450,o),
(504,364,o),
(503,303,q),
(119,303,l),
(125,394,o),
(235,494,o),
(313,494,qs)
);
},
{
closed = 1;
nodes = (
(492,173,l),
(477,117,o),
(384,51,o),
(316,51,qs),
(264,51,o),
(176,96,o),
(122,184,o),
(119,246,q),
(572,246,l),
(574,265,o),
(574,301,qs),
(574,371,o),
(511,486,o),
(394,554,o),
(316,554,qs),
(238,554,o),
(116,486,o),
(48,358,o),
(48,273,qs),
(48,188,o),
(117,61,o),
(239,-8,o),
(316,-8,qs),
(415,-8,o),
(546,93,o),
(566,173,q)
);
},
{
closed = 1;
nodes = (
(141,646,l),
(480,646,l),
(480,700,l),
(141,700,l)
);
}
);
width = 622;
}
);
note = emacron;
unicode = 275;
},
{
glyphname = Ebreve;
layers = (
{
layerId = m01;
shapes = (
{
closed = 1;
nodes = (
(445,700,l),
(80,700,l),
(80,0,l),
(445,0,l),
(445,58,l),
(150,58,l),
(150,323,l),
(415,323,l),
(415,381,l),
(150,381,l),
(150,642,l),
(445,642,l)
);
},
{
closed = 1;
nodes = (
(384,886,l),
(339,886,l),
(339,806,o),
(248,806,qs),
(157,806,o),
(157,886,q),
(113,886,l),
(113,873,ls),
(113,820,o),
(183,750,o),
(248,750,qs),
(313,750,o),
(384,820,o),
(384,873,qs)
);
}
);
width = 503;
}
);
note = Ebreve;
unicode = 276;
},
{
glyphname = ebreve;
layers = (
{
layerId = m01;
shapes = (
{
closed = 1;
nodes = (
(365,494,o),
(453,450,o),
(504,364,o),
(503,303,q),
(119,303,l),
(125,394,o),
(235,494,o),
(313,494,qs)
);
},
{
closed = 1;
nodes = (
(492,173,l),
(477,117,o),
(384,51,o),
(316,51,qs),
(264,51,o),
(176,96,o),
(122,184,o),
(119,246,q),
(572,246,l),
(574,265,o),
(574,301,qs),
(574,371,o),
(511,486,o),
(394,554,o),
(316,554,qs),
(238,554,o),
(116,486,o),
(48,358,o),
(48,273,qs),
(48,188,o),
(117,61,o),
(239,-8,o),
(316,-8,qs),
(415,-8,o),
(546,93,o),
(566,173,q)
);
},
{
closed = 1;
nodes = (
(447,742,l),
(402,742,l),
(402,662,o),
(311,662,qs),
(220,662,o),
(220,742,q),
(176,742,l),
(176,729,ls),
(176,676,o),
(246,606,o),
(311,606,qs),
(376,606,o),
(447,676,o),
(447,729,qs)
);
}
);
width = 622;
}
);
note = ebreve;
unicode = 277;
},
{
glyphname = Edotaccent;
layers = (
{
layerId = m01;
shapes = (
{
closed = 1;
nodes = (
(445,700,l),
(80,700,l),
(80,0,l),
(445,0,l),
(445,58,l),
(150,58,l),
(150,323,l),
(415,323,l),
(415,381,l),
(150,381,l),
(150,642,l),
(445,642,l)
);
},
{
closed = 1;
nodes = (
(267,757,o),
(294,784,o),
(294,803,qs),
(294,822,o),
(267,849,o),
(248,849,qs),
(229,849,o),
(202,822,o),
(202,803,qs),
(202,784,o),
(229,757,o),
(248,757,qs)
);
}
);
width = 503;
}
);
note = Edotaccent;
unicode = 278;
},
{
glyphname = edotaccent;
layers = (
{
layerId = m01;
shapes = (
{
closed = 1;
nodes = (
(365,494,o),
(453,450,o),
(504,364,o),
(503,303,q),
(119,303,l),
(125,394,o),
(235,494,o),
(313,494,qs)
);
},
{
closed = 1;
nodes = (
(492,173,l),
(477,117,o),
(384,51,o),
(316,51,qs),
(264,51,o),
(176,96,o),
(122,184,o),
(119,246,q),
(572,246,l),
(574,265,o),
(574,301,qs),
(574,371,o),
(511,486,o),
(394,554,o),
(316,554,qs),
(238,554,o),
(116,486,o),
(48,358,o),
(48,273,qs),
(48,188,o),
(117,61,o),
(239,-8,o),
(316,-8,qs),
(415,-8,o),
(546,93,o),
(566,173,q)
);
},
{
closed = 1;
nodes = (
(330,613,o),
(357,640,o),
(357,659,qs),
(357,678,o),
(330,705,o),
(311,705,qs),
(292,705,o),
(265,678,o),
(265,659,qs),
(265,640,o),
(292,613,o),
(311,613,qs)
);
}
);
width = 622;
}
);
note = edotaccent;
unicode = 279;
},
{
glyphname = Eogonek;
layers = (
{
layerId = m01;
shapes = (
{
closed = 1;
nodes = (
(445,700,l),
(80,700,l),
(80,0,l),
(345,0,l),
(263,-46,o),
(263,-109,qs),
(263,-156,o),
(328,-201,o),
(376,-201,qs),
(412,-201,o),
(448,-188,q),
(448,-139,l),
(414,-153,o),
(384,-153,qs),
(356,-153,o),
(322,-126,o),
(322,-102,qs),
(322,-60,o),
(385,-29,qs),
(445,0,l),
(445,58,l),
(150,58,l),
(150,323,l),
(415,323,l),
(415,381,l),
(150,381,l),
(150,642,l),
(445,642,l)
);
}
);
width = 503;
}
);
note = Eogonek;
unicode = 280;
},
{
glyphname = eogonek;
layers = (
{
layerId = m01;
shapes = (
{
closed = 1;
nodes = (
(365,494,o),
(453,450,o),
(504,364,o),
(503,303,q),
(119,303,l),
(125,394,o),
(235,494,o),
(313,494,qs)
);
},
{
closed = 1;
nodes = (
(426,-126,l),
(392,-140,o),
(362,-140,qs),
(334,-140,o),
(300,-113,o),
(300,-89,qs),
(300,-47,o),
(363,-16,qs),
(406,5,l),
(469,24,o),
(551,113,o),
(566,173,q),
(492,173,l),
(477,117,o),
(384,51,o),
(316,51,qs),
(264,51,o),
(176,96,o),
(122,184,o),
(119,246,q),
(572,246,l),
(574,265,o),
(574,301,qs),
(574,371,o),
(511,486,o),
(394,554,o),
(316,554,qs),
(238,554,o),
(116,486,o),
(48,358,o),
(48,273,qs),
(48,193,o),
(110,70,o),
(220,-1,o),
(292,-7,q),
(241,-44,o),
(241,-96,qs),
(241,-143,o),
(306,-188,o),
(354,-188,qs),
(390,-188,o),
(426,-175,q)
);
}
);
width = 622;
}
);
note = eogonek;
unicode = 281;
},
{
glyphname = Ecaron;
layers = (
{
layerId = m01;
shapes = (
{
closed = 1;
nodes = (
(445,700,l),
(80,700,l),
(80,0,l),
(445,0,l),
(445,58,l),
(150,58,l),
(150,323,l),
(415,323,l),
(415,381,l),
(150,381,l),
(150,642,l),
(445,642,l)
);
},
{
closed = 1;
nodes = (
(248,802,l),
(114,885,l),
(114,829,l),
(248,747,l),
(382,829,l),
(382,885,l)
);
}
);
width = 503;
}
);
note = Ecaron;
unicode = 282;
},
{
glyphname = ecaron;
layers = (
{
layerId = m01;
shapes = (
{
closed = 1;
nodes = (
(365,494,o),
(453,450,o),
(504,364,o),
(503,303,q),
(119,303,l),
(125,394,o),
(235,494,o),
(313,494,qs)
);
},
{
closed = 1;
nodes = (
(492,173,l),
(477,117,o),
(384,51,o),
(316,51,qs),
(264,51,o),
(176,96,o),
(122,184,o),
(119,246,q),
(572,246,l),
(574,265,o),
(574,301,qs),
(574,371,o),
(511,486,o),
(394,554,o),
(316,554,qs),
(238,554,o),
(116,486,o),
(48,358,o),
(48,273,qs),
(48,188,o),
(117,61,o),
(239,-8,o),
(316,-8,qs),
(415,-8,o),
(546,93,o),
(566,173,q)
);
},
{
closed = 1;
nodes = (
(311,658,l),
(177,741,l),
(177,685,l),
(311,603,l),
(445,685,l),
(445,741,l)
);
}
);
width = 622;
}
);
note = ecaron;
unicode = 283;
},
{
glyphname = Gbreve;
layers = (
{
layerId = m01;
shapes = (
{
closed = 1;
nodes = (
(297,707,o),
(139,616,o),
(48,453,o),
(48,350,qs),
(48,247,o),
(139,84,o),
(297,-7,o),
(394,-7,qs),
(488,-7,o),
(639,79,o),
(729,228,o),
(734,320,qs),
(734,371,l),
(366,371,l),
(366,314,l),
(660,314,l),
(655,236,o),
(584,119,o),
(467,56,o),
(394,56,qs),
(316,56,o),
(192,128,o),
(120,262,o),
(120,350,qs),
(120,438,o),
(192,571,o),
(316,643,o),
(394,643,qs),
(477,643,o),
(600,564,o),
(630,495,q),
(712,495,l),
(674,595,o),
(506,707,o),
(394,707,qs)
);
},
{
closed = 1;
nodes = (
(534,886,l),
(489,886,l),
(489,806,o),
(398,806,qs),
(307,806,o),
(307,886,q),
(263,886,l),
(263,873,ls),
(263,820,o),
(333,750,o),
(398,750,qs),
(463,750,o),
(534,820,o),
(534,873,qs)
);
}
);
width = 782;
}
);
note = Gbreve;
unicode = 286;
},
{
glyphname = gbreve;
layers = (
{
layerId = m01;
shapes = (
{
closed = 1;
nodes = (
(48,190,o),
(115,62,o),
(234,-8,o),
(309,-8,qs),
(386,-8,o),
(499,65,o),
(525,121,q),
(525,-14,ls),
(525,-74,o),
(477,-162,o),
(393,-207,o),
(340,-207,qs),
(267,-207,o),
(166,-139,o),
(148,-82,q),
(79,-82,l),
(96,-168,o),
(235,-268,o),
(340,-268,qs),
(414,-268,o),
(530,-205,o),
(595,-89,o),
(595,-14,qs),
(595,546,l),
(525,546,l),
(525,427,l),
(500,482,o),
(386,554,o),
(309,554,qs),
(234,554,o),
(115,485,o),
(48,358,o),
(48,274,qs)
);
},
{
closed = 1;
nodes = (
(525,207,o),
(471,107,o),
(378,53,o),
(322,53,qs),
(264,53,o),
(172,106,o),
(119,207,o),
(119,274,qs),
(119,342,o),
(172,441,o),
(264,493,o),
(322,493,qs),
(378,493,o),
(471,439,o),
(525,339,o),
(525,273,qs)
);
},
{
closed = 1;
nodes = (
(475,742,l),
(430,742,l),
(430,662,o),
(339,662,qs),
(248,662,o),
(248,742,q),
(204,742,l),
(204,729,ls),
(204,676,o),
(274,606,o),
(339,606,qs),
(404,606,o),
(475,676,o),
(475,729,qs)
);
}
);
width = 675;
}
);
note = gbreve;
unicode = 287;
},
{
glyphname = Gdotaccent;
layers = (
{
layerId = m01;
shapes = (
{
closed = 1;
nodes = (
(297,707,o),
(139,616,o),
(48,453,o),
(48,350,qs),
(48,247,o),
(139,84,o),
(297,-7,o),
(394,-7,qs),
(488,-7,o),
(639,79,o),
(729,228,o),
(734,320,qs),
(734,371,l),
(366,371,l),
(366,314,l),
(660,314,l),
(655,236,o),
(584,119,o),
(467,56,o),
(394,56,qs),
(316,56,o),
(192,128,o),
(120,262,o),
(120,350,qs),
(120,438,o),
(192,571,o),
(316,643,o),
(394,643,qs),
(477,643,o),
(600,564,o),
(630,495,q),
(712,495,l),
(674,595,o),
(506,707,o),
(394,707,qs)
);
},
{
closed = 1;
nodes = (
(416,757,o),
(443,784,o),
(443,803,qs),
(443,822,o),
(416,849,o),
(397,849,qs),
(378,849,o),
(351,822,o),
(351,803,qs),
(351,784,o),
(378,757,o),
(397,757,qs)
);
}
);
width = 782;
}
);
note = Gdotaccent;
unicode = 288;
},
{
glyphname = gdotaccent;
layers = (
{
layerId = m01;
shapes = (
{
closed = 1;
nodes = (
(48,190,o),
(115,62,o),
(234,-8,o),
(309,-8,qs),
(386,-8,o),
(499,65,o),
(525,121,q),
(525,-14,ls),
(525,-74,o),
(477,-162,o),
(393,-207,o),
(340,-207,qs),
(267,-207,o),
(166,-139,o),
(148,-82,q),
(79,-82,l),
(96,-168,o),
(235,-268,o),
(340,-268,qs),
(414,-268,o),
(530,-205,o),
(595,-89,o),
(595,-14,qs),
(595,546,l),
(525,546,l),
(525,427,l),
(500,482,o),
(386,554,o),
(309,554,qs),
(234,554,o),
(115,485,o),
(48,358,o),
(48,274,qs)
);
},
{
closed = 1;
nodes = (
(525,207,o),
(471,107,o),
(378,53,o),
(322,53,qs),
(264,53,o),
(172,106,o),
(119,207,o),
(119,274,qs),
(119,342,o),
(172,441,o),
(264,493,o),
(322,493,qs),
(378,493,o),
(471,439,o),
(525,339,o),
(525,273,qs)
);
},
{
closed = 1;
nodes = (
(358,613,o),
(385,640,o),
(385,659,qs),
(385,678,o),
(358,705,o),
(339,705,qs),
(320,705,o),
(293,678,o),
(293,659,qs),
(293,640,o),
(320,613,o),
(339,613,qs)
);
}
);
width = 675;
}
);
note = gdotaccent;
unicode = 289;
},
{
glyphname = uni0122;
layers = (
{
layerId = m01;
shapes = (
{
closed = 1;
nodes = (
(353,-52,l),
(353,-121,l),
(396,-121,l),
(396,-135,ls),
(396,-191,o),
(350,-191,q),
(350,-226,l),
(394,-226,o),
(440,-175,o),
(440,-119,qs),
(440,-90,o),
(432,-52,q)
);
},
{
closed = 1;
nodes = (
(297,707,o),
(139,616,o),
(48,453,o),
(48,350,qs),
(48,247,o),
(139,84,o),
(297,-7,o),
(394,-7,qs),
(488,-7,o),
(639,79,o),
(729,228,o),
(734,320,qs),
(734,371,l),
(366,371,l),
(366,314,l),
(660,314,l),
(655,236,o),
(584,119,o),
(467,56,o),
(394,56,qs),
(316,56,o),
(192,128,o),
(120,262,o),
(120,350,qs),
(120,438,o),
(192,571,o),
(316,643,o),
(394,643,qs),
(477,643,o),
(600,564,o),
(630,495,q),
(712,495,l),
(674,595,o),
(506,707,o),
(394,707,qs)
);
}
);
width = 782;
}
);
note = uni0122;
unicode = 290;
},
{
glyphname = uni0123;
layers = (
{
layerId = m01;
shapes = (
{
closed = 1;
nodes = (
(373,595,l),
(373,672,l),
(327,672,l),
(327,696,ls),
(327,722,o),
(349,747,o),
(374,747,q),
(374,783,l),
(329,783,o),
(283,734,o),
(283,680,qs),
(283,645,o),
(292,595,q)
);
},
{
closed = 1;
nodes = (
(48,190,o),
(115,62,o),
(234,-8,o),
(309,-8,qs),
(386,-8,o),
(499,65,o),
(525,121,q),
(525,-14,ls),
(525,-74,o),
(477,-162,o),
(393,-207,o),
(340,-207,qs),
(267,-207,o),
(166,-139,o),
(148,-82,q),
(79,-82,l),
(96,-168,o),
(235,-268,o),
(340,-268,qs),
(414,-268,o),
(530,-205,o),
(595,-89,o),
(595,-14,qs),
(595,546,l),
(525,546,l),
(525,427,l),
(500,482,o),
(386,554,o),
(309,554,qs),
(234,554,o),
(115,485,o),
(48,358,o),
(48,274,qs)
);
},
{
closed = 1;
nodes = (
(525,207,o),
(471,107,o),
(378,53,o),
(322,53,qs),
(264,53,o),
(172,106,o),
(119,207,o),
(119,274,qs),
(119,342,o),
(172,441,o),
(264,493,o),
(322,493,qs),
(378,493,o),
(471,439,o),
(525,339,o),
(525,273,qs)
);
}
);
width = 675;
}
);
note = uni0123;
unicode = 291;
},
{
glyphname = Itilde;
layers = (
{
layerId = m01;
shapes = (
{
closed = 1;
nodes = (
(80,0,l),
(150,0,l),
(150,699,l),
(80,699,l)
);
},
{
closed = 1;
nodes = (
(26,750,l),
(32,795,o),
(68,795,qs),
(81,795,o),
(102,785,o),
(116,774,qs),
(134,761,o),
(161,748,o),
(180,748,qs),
(216,748,o),
(265,797,o),
(269,841,q),
(227,841,l),
(224,819,o),
(200,796,o),
(183,796,qs),
(170,796,o),
(148,807,o),
(133,818,qs),
(115,830,o),
(89,843,o),
(71,843,qs),
(35,843,o),
(-11,795,o),
(-17,750,q)
);
}
);
width = 229;
}
);
note = Itilde;
unicode = 296;
},
{
glyphname = itilde;
layers = (
{
layerId = m01;
shapes = (
{
closed = 1;
nodes = (
(80,0,l),
(150,0,l),
(150,546,l),
(80,546,l)
);
},
{
closed = 1;
nodes = (
(26,606,l),
(32,651,o),
(68,651,qs),
(81,651,o),
(102,641,o),
(116,630,qs),
(134,617,o),
(161,604,o),
(180,604,qs),
(216,604,o),
(265,653,o),
(269,697,q),
(227,697,l),
(224,675,o),
(200,652,o),
(183,652,qs),
(170,652,o),
(148,663,o),
(133,674,qs),
(115,686,o),
(89,699,o),
(71,699,qs),
(35,699,o),
(-11,651,o),
(-17,606,q)
);
}
);
width = 229;
}
);
note = itilde;
unicode = 297;
},
{
glyphname = Imacron;
layers = (
{
layerId = m01;
shapes = (
{
closed = 1;
nodes = (
(80,0,l),
(150,0,l),
(150,699,l),
(80,699,l)
);
},
{
closed = 1;
nodes = (
(-55,790,l),
(284,790,l),
(284,844,l),
(-55,844,l)
);
}
);
width = 229;
}
);
note = Imacron;
unicode = 298;
},
{
glyphname = imacron;
layers = (
{
layerId = m01;
shapes = (
{
closed = 1;
nodes = (
(80,0,l),
(150,0,l),
(150,546,l),
(80,546,l)
);
},
{
closed = 1;
nodes = (
(-55,646,l),
(284,646,l),
(284,700,l),
(-55,700,l)
);
}
);
width = 229;
}
);
note = imacron;
unicode = 299;
},
{
glyphname = uni012C;
layers = (
{
layerId = m01;
shapes = (
{
closed = 1;
nodes = (
(80,0,l),
(150,0,l),
(150,699,l),
(80,699,l)
);
},
{
closed = 1;
nodes = (
(251,886,l),
(206,886,l),
(206,806,o),
(115,806,qs),
(24,806,o),
(24,886,q),
(-20,886,l),
(-20,873,ls),
(-20,820,o),
(50,750,o),
(115,750,qs),
(180,750,o),
(251,820,o),
(251,873,qs)
);
}
);
width = 229;
}
);
note = uni012C;
unicode = 300;
},
{
glyphname = uni012D;
layers = (
{
layerId = m01;
shapes = (
{
closed = 1;
nodes = (
(80,0,l),
(150,0,l),
(150,546,l),
(80,546,l)
);
},
{
closed = 1;
nodes = (
(251,742,l),
(206,742,l),
(206,662,o),
(115,662,qs),
(24,662,o),
(24,742,q),
(-20,742,l),
(-20,729,ls),
(-20,676,o),
(50,606,o),
(115,606,qs),
(180,606,o),
(251,676,o),
(251,729,qs)
);
}
);
width = 229;
}
);
note = uni012D;
unicode = 301;
},
{
glyphname = Iogonek;
layers = (
{
layerId = m01;
shapes = (
{
closed = 1;
nodes = (
(153,-138,l),
(119,-152,o),
(89,-152,qs),
(61,-152,o),
(27,-125,o),
(27,-101,qs),
(27,-59,o),
(90,-28,qs),
(148,0,l),
(150,0,l),
(150,699,l),
(80,699,l),
(80,16,l),
(76,14,ls),
(-32,-35,o),
(-32,-108,qs),
(-32,-155,o),
(33,-200,o),
(81,-200,qs),
(117,-200,o),
(153,-187,q)
);
}
);
width = 229;
}
);
note = Iogonek;
unicode = 302;
},
{
glyphname = iogonek;
layers = (
{
layerId = m01;
shapes = (
{
closed = 1;
nodes = (
(153,-138,l),
(119,-152,o),
(89,-152,qs),
(61,-152,o),
(27,-125,o),
(27,-101,qs),
(27,-59,o),
(90,-28,qs),
(148,0,l),
(150,0,l),
(150,546,l),
(80,546,l),
(80,16,l),
(76,14,ls),
(-32,-35,o),
(-32,-108,qs),
(-32,-155,o),
(33,-200,o),
(81,-200,qs),
(117,-200,o),
(153,-187,q)
);
},
{
closed = 1;
nodes = (
(136,649,o),
(166,679,o),
(166,701,qs),
(166,723,o),
(136,752,o),
(115,752,qs),
(94,752,o),
(64,723,o),
(64,701,qs),
(64,679,o),
(94,649,o),
(115,649,qs)
);
}
);
width = 229;
}
);
note = iogonek;
unicode = 303;
},
{
glyphname = Idotaccent;
layers = (
{
layerId = m01;
shapes = (
{
closed = 1;
nodes = (
(80,0,l),
(150,0,l),
(150,699,l),
(80,699,l)
);
},
{
closed = 1;
nodes = (
(133,757,o),
(160,784,o),
(160,803,qs),
(160,822,o),
(133,849,o),
(114,849,qs),
(95,849,o),
(68,822,o),
(68,803,qs),
(68,784,o),
(95,757,o),
(114,757,qs)
);
}
);
width = 229;
}
);
note = Idotaccent;
unicode = 304;
},
{
glyphname = dotlessi;
layers = (
{
layerId = m01;
shapes = (
{
closed = 1;
nodes = (
(80,0,l),
(150,0,l),
(150,546,l),
(80,546,l)
);
}
);
width = 229;
}
);
note = dotlessi;
unicode = 305;
},
{
glyphname = uni0136;
layers = (
{
layerId = m01;
shapes = (
{
closed = 1;
nodes = (
(241,-52,l),
(241,-121,l),
(284,-121,l),
(284,-135,ls),
(284,-191,o),
(238,-191,q),
(238,-226,l),
(282,-226,o),
(328,-175,o),
(328,-119,qs),
(328,-90,o),
(320,-52,q)
);
},
{
closed = 1;
nodes = (
(453,0,l),
(545,0,l),
(215,350,l),
(542,699,l),
(453,699,l),
(150,372,l),
(150,699,l),
(80,699,l),
(80,0,l),
(150,0,l),
(150,323,l)
);
}
);
width = 568;
}
);
note = uni0136;
unicode = 310;
},
{
glyphname = uni0137;
layers = (
{
layerId = m01;
shapes = (
{
closed = 1;
nodes = (
(201,-52,l),
(201,-121,l),
(244,-121,l),
(244,-135,ls),
(244,-191,o),
(198,-191,q),
(198,-226,l),
(242,-226,o),
(288,-175,o),
(288,-119,qs),
(288,-90,o),
(280,-52,q)
);
},
{
closed = 1;
nodes = (
(80,0,l),
(150,0,l),
(150,245,l),
(375,0,l),
(470,0,l),
(209,274,l),
(468,546,l),
(370,546,l),
(150,302,l),
(150,740,l),
(80,740,l)
);
}
);
width = 480;
}
);
note = uni0137;
unicode = 311;
},
{
glyphname = Lacute;
layers = (
{
layerId = m01;
shapes = (
{
closed = 1;
nodes = (
(80,699,l),
(80,0,l),
(401,0,l),
(401,57,l),
(150,57,l),
(150,699,l)
);
},
{
closed = 1;
nodes = (
(100,786,l),
(100,732,l),
(305,851,l),
(305,914,l)
);
}
);
width = 421;
}
);
note = Lacute;
unicode = 313;
},
{
glyphname = lacute;
layers = (
{
layerId = m01;
shapes = (
{
closed = 1;
nodes = (
(80,0,l),
(150,0,l),
(150,740,l),
(80,740,l)
);
},
{
closed = 1;
nodes = (
(2,836,l),
(2,782,l),
(207,901,l),
(207,964,l)
);
}
);
width = 229;
}
);
note = lacute;
unicode = 314;
},
{
glyphname = uni013B;
layers = (
{
layerId = m01;
shapes = (
{
closed = 1;
nodes = (
(200,-52,l),
(200,-121,l),
(242,-121,l),
(242,-135,ls),
(242,-191,o),
(196,-191,q),
(196,-226,l),
(241,-226,o),
(287,-176,o),
(287,-119,qs),
(287,-88,o),
(278,-52,q)
);
},
{
closed = 1;
nodes = (
(80,699,l),
(80,0,l),
(401,0,l),
(401,57,l),
(150,57,l),
(150,699,l)
);
}
);
width = 421;
}
);
note = uni013B;
unicode = 315;
},
{
glyphname = uni013C;
layers = (
{
layerId = m01;
shapes = (
{
closed = 1;
nodes = (
(73,-52,l),
(73,-121,l),
(116,-121,l),
(116,-135,ls),
(116,-191,o),
(69,-191,q),
(69,-226,l),
(114,-226,o),
(160,-176,o),
(160,-119,qs),
(160,-90,o),
(152,-52,q)
);
},
{
closed = 1;
nodes = (
(80,0,l),
(150,0,l),
(150,740,l),
(80,740,l)
);
}
);
width = 229;
}
);
note = uni013C;
unicode = 316;
},
{
glyphname = Lcaron;
layers = (
{
layerId = m01;
shapes = (
{
closed = 1;
nodes = (
(267,699,l),
(267,623,l),
(313,623,l),
(313,599,ls),
(313,573,o),
(291,547,o),
(266,547,q),
(266,511,l),
(357,511,o),
(357,614,qs),
(357,650,o),
(348,699,q)
);
},
{
closed = 1;
nodes = (
(80,699,l),
(80,0,l),
(401,0,l),
(401,57,l),
(150,57,l),
(150,699,l)
);
}
);
width = 431;
}
);
note = Lcaron;
unicode = 317;
},
{
glyphname = lcaron;
layers = (
{
layerId = m01;
shapes = (
{
closed = 1;
nodes = (
(218,740,l),
(218,664,l),
(264,664,l),
(264,639,ls),
(264,613,o),
(242,588,o),
(217,588,q),
(217,552,l),
(262,552,o),
(308,601,o),
(308,655,qs),
(308,698,o),
(299,740,q)
);
},
{
closed = 1;
nodes = (
(80,0,l),
(150,0,l),
(150,740,l),
(80,740,l)
);
}
);
width = 316;
}
);
note = lcaron;
unicode = 318;
},
{
glyphname = Ldot;
layers = (
{
layerId = m01;
shapes = (
{
closed = 1;
nodes = (
(80,699,l),
(80,0,l),
(401,0,l),
(401,57,l),
(150,57,l),
(150,699,l)
);
},
{
closed = 1;
nodes = (
(231,757,o),
(258,784,o),
(258,803,qs),
(258,822,o),
(231,849,o),
(212,849,qs),
(193,849,o),
(166,822,o),
(166,803,qs),
(166,784,o),
(193,757,o),
(212,757,qs)
);
}
);
width = 421;
}
);
note = Ldot;
unicode = 319;
},
{
glyphname = ldot;
layers = (
{
layerId = m01;
shapes = (
{
closed = 1;
nodes = (
(134,784,o),
(161,811,o),
(161,830,qs),
(161,849,o),
(134,876,o),
(115,876,qs),
(96,876,o),
(69,849,o),
(69,830,qs),
(69,811,o),
(96,784,o),
(115,784,qs)
);
},
{
closed = 1;
nodes = (
(80,0,l),
(150,0,l),
(150,740,l),
(80,740,l)
);
}
);
width = 229;
}
);
note = ldot;
unicode = 320;
},
{
glyphname = Lslash;
layers = (
{
layerId = m01;
shapes = (
{
closed = 1;
nodes = (
(95,699,l),
(95,378,l),
(9,344,l),
(9,289,l),
(95,323,l),
(95,0,l),
(416,0,l),
(416,55,l),
(165,55,l),
(165,350,l),
(290,399,l),
(290,454,l),
(165,405,l),
(165,699,l)
);
}
);
width = 430;
}
);
note = Lslash;
unicode = 321;
},
{
glyphname = lslash;
layers = (
{
layerId = m01;
shapes = (
{
closed = 1;
nodes = (
(84,0,l),
(154,0,l),
(154,406,l),
(230,439,l),
(230,494,l),
(154,461,l),
(154,740,l),
(84,740,l),
(84,431,l),
(9,398,l),
(9,343,l),
(84,376,l)
);
}
);
width = 239;
}
);
note = lslash;
unicode = 322;
},
{
glyphname = Nacute;
layers = (
{
layerId = m01;
shapes = (
{
closed = 1;
nodes = (
(537,699,l),
(537,112,l),
(150,699,l),
(80,699,l),
(80,0,l),
(150,0,l),
(150,588,l),
(537,0,l),
(607,0,l),
(607,699,l)
);
},
{
closed = 1;
nodes = (
(231,786,l),
(231,732,l),
(436,851,l),
(436,914,l)
);
}
);
width = 686;
}
);
note = Nacute;
unicode = 323;
},
{
glyphname = nacute;
layers = (
{
layerId = m01;
shapes = (
{
closed = 1;
nodes = (
(197,642,l),
(197,588,l),
(402,707,l),
(402,770,l)
);
},
{
closed = 1;
nodes = (
(489,0,l),
(558,0,l),
(558,320,ls),
(558,435,o),
(434,556,o),
(336,556,qs),
(274,556,o),
(176,503,o),
(150,453,q),
(150,546,l),
(80,546,l),
(80,0,l),
(150,0,l),
(150,298,ls),
(150,395,o),
(244,495,o),
(323,495,qs),
(400,495,o),
(489,401,o),
(489,312,qs)
);
}
);
width = 633;
}
);
note = nacute;
unicode = 324;
},
{
glyphname = uni0145;
layers = (
{
layerId = m01;
shapes = (
{
closed = 1;
nodes = (
(302,-52,l),
(302,-121,l),
(344,-121,l),
(344,-135,ls),
(344,-191,o),
(299,-191,q),
(299,-226,l),
(343,-226,o),
(389,-175,o),
(389,-119,qs),
(389,-88,o),
(380,-52,q)
);
},
{
closed = 1;
nodes = (
(537,699,l),
(537,112,l),
(150,699,l),
(80,699,l),
(80,0,l),
(150,0,l),
(150,588,l),
(537,0,l),
(607,0,l),
(607,699,l)
);
}
);
width = 686;
}
);
note = uni0145;
unicode = 325;
},
{
glyphname = uni0146;
layers = (
{
layerId = m01;
shapes = (
{
closed = 1;
nodes = (
(278,-52,l),
(278,-121,l),
(321,-121,l),
(321,-135,ls),
(321,-191,o),
(275,-191,q),
(275,-226,l),
(319,-226,o),
(365,-175,o),
(365,-119,qs),
(365,-90,o),
(357,-52,q)
);
},
{
closed = 1;
nodes = (
(489,0,l),
(558,0,l),
(558,320,ls),
(558,435,o),
(434,556,o),
(336,556,qs),
(274,556,o),
(176,503,o),
(150,453,q),
(150,546,l),
(80,546,l),
(80,0,l),
(150,0,l),
(150,298,ls),
(150,395,o),
(244,495,o),
(323,495,qs),
(400,495,o),
(489,401,o),
(489,312,qs)
);
}
);
width = 633;
}
);
note = uni0146;
unicode = 326;
},
{
glyphname = Ncaron;
layers = (
{
layerId = m01;
shapes = (
{
closed = 1;
nodes = (
(537,699,l),
(537,112,l),
(150,699,l),
(80,699,l),
(80,0,l),
(150,0,l),
(150,588,l),
(537,0,l),
(607,0,l),
(607,699,l)
);
},
{
closed = 1;
nodes = (
(344,802,l),
(210,885,l),
(210,829,l),
(344,747,l),
(478,829,l),
(478,885,l)
);
}
);
width = 686;
}
);
note = Ncaron;
unicode = 327;
},
{
glyphname = ncaron;
layers = (
{
layerId = m01;
shapes = (
{
closed = 1;
nodes = (
(489,0,l),
(558,0,l),
(558,320,ls),
(558,435,o),
(434,556,o),
(336,556,qs),
(274,556,o),
(176,503,o),
(150,453,q),
(150,546,l),
(80,546,l),
(80,0,l),
(150,0,l),
(150,298,ls),
(150,395,o),
(244,495,o),
(323,495,qs),
(400,495,o),
(489,401,o),
(489,312,qs)
);
},
{
closed = 1;
nodes = (
(310,658,l),
(176,741,l),
(176,685,l),
(310,603,l),
(444,685,l),
(444,741,l)
);
}
);
width = 633;
}
);
note = ncaron;
unicode = 328;
},
{
glyphname = Omacron;
layers = (
{
layerId = m01;
shapes = (
{
closed = 1;
nodes = (
(740,453,o),
(650,616,o),
(492,707,o),
(394,707,qs),
(297,707,o),
(139,616,o),
(48,453,o),
(48,350,qs),
(48,247,o),
(139,84,o),
(297,-7,o),
(394,-7,qs),
(492,-7,o),
(650,84,o),
(740,247,o),
(740,350,qs)
);
},
{
closed = 1;
nodes = (
(120,439,o),
(192,573,o),
(316,645,o),
(394,645,qs),
(472,645,o),
(596,573,o),
(668,439,o),
(668,350,qs),
(668,261,o),
(596,126,o),
(472,54,o),
(394,54,qs),
(316,54,o),
(192,126,o),
(120,261,o),
(120,350,qs)
);
},
{
closed = 1;
nodes = (
(229,790,l),
(568,790,l),
(568,844,l),
(229,844,l)
);
}
);
width = 788;
}
);
note = Omacron;
unicode = 332;
},
{
glyphname = omacron;
layers = (
{
layerId = m01;
shapes = (
{
closed = 1;
nodes = (
(594,358,o),
(523,485,o),
(398,554,o),
(321,554,qs),
(244,554,o),
(120,485,o),
(48,358,o),
(48,273,qs),
(48,188,o),
(119,61,o),
(242,-8,o),
(319,-8,qs),
(396,-8,o),
(522,61,o),
(594,189,o),
(594,273,qs)
);
},
{
closed = 1;
nodes = (
(119,345,o),
(174,444,o),
(266,493,o),
(320,493,qs),
(374,493,o),
(466,444,o),
(522,345,o),
(522,273,qs),
(522,201,o),
(465,102,o),
(373,53,o),
(319,53,qs),
(265,53,o),
(174,102,o),
(119,201,o),
(119,273,qs)
);
},
{
closed = 1;
nodes = (
(153,651,l),
(492,651,l),
(492,705,l),
(153,705,l)
);
}
);
width = 642;
}
);
note = omacron;
unicode = 333;
},
{
glyphname = uni014E;
layers = (
{
layerId = m01;
shapes = (
{
closed = 1;
nodes = (
(740,453,o),
(650,616,o),
(492,707,o),
(394,707,qs),
(297,707,o),
(139,616,o),
(48,453,o),
(48,350,qs),
(48,247,o),
(139,84,o),
(297,-7,o),
(394,-7,qs),
(492,-7,o),
(650,84,o),
(740,247,o),
(740,350,qs)
);
},
{
closed = 1;
nodes = (
(120,439,o),
(192,573,o),
(316,645,o),
(394,645,qs),
(472,645,o),
(596,573,o),
(668,439,o),
(668,350,qs),
(668,261,o),
(596,126,o),
(472,54,o),
(394,54,qs),
(316,54,o),
(192,126,o),
(120,261,o),
(120,350,qs)
);
},
{
closed = 1;
nodes = (
(535,886,l),
(490,886,l),
(490,806,o),
(399,806,qs),
(308,806,o),
(308,886,q),
(264,886,l),
(264,873,ls),
(264,820,o),
(334,750,o),
(399,750,qs),
(464,750,o),
(535,820,o),
(535,873,qs)
);
}
);
width = 788;
}
);
note = uni014E;
unicode = 334;
},
{
glyphname = uni014F;
layers = (
{
layerId = m01;
shapes = (
{
closed = 1;
nodes = (
(594,358,o),
(523,485,o),
(398,554,o),
(321,554,qs),
(244,554,o),
(120,485,o),
(48,358,o),
(48,273,qs),
(48,188,o),
(119,61,o),
(242,-8,o),
(319,-8,qs),
(396,-8,o),
(522,61,o),
(594,189,o),
(594,273,qs)
);
},
{
closed = 1;
nodes = (
(119,345,o),
(174,444,o),
(266,493,o),
(320,493,qs),
(374,493,o),
(466,444,o),
(522,345,o),
(522,273,qs),
(522,201,o),
(465,102,o),
(373,53,o),
(319,53,qs),
(265,53,o),
(174,102,o),
(119,201,o),
(119,273,qs)
);
},
{
closed = 1;
nodes = (
(459,747,l),
(414,747,l),
(414,667,o),
(323,667,qs),
(232,667,o),
(232,747,q),
(188,747,l),
(188,734,ls),
(188,681,o),
(258,611,o),
(323,611,qs),
(388,611,o),
(459,681,o),
(459,734,qs)
);
}
);
width = 642;
}
);
note = uni014F;
unicode = 335;
},
{
glyphname = Ohungarumlaut;
layers = (
{
layerId = m01;
shapes = (
{
closed = 1;
nodes = (
(740,453,o),
(650,616,o),
(492,707,o),
(394,707,qs),
(297,707,o),
(139,616,o),
(48,453,o),
(48,350,qs),
(48,247,o),
(139,84,o),
(297,-7,o),
(394,-7,qs),
(492,-7,o),
(650,84,o),
(740,247,o),
(740,350,qs)
);
},
{
closed = 1;
nodes = (
(120,439,o),
(192,573,o),
(316,645,o),
(394,645,qs),
(472,645,o),
(596,573,o),
(668,439,o),
(668,350,qs),
(668,261,o),
(596,126,o),
(472,54,o),
(394,54,qs),
(316,54,o),
(192,126,o),
(120,261,o),
(120,350,qs)
);
},
{
closed = 1;
nodes = (
(362,884,l),
(297,745,l),
(346,745,l),
(425,884,l)
);
},
{
closed = 1;
nodes = (
(504,884,l),
(435,745,l),
(483,745,l),
(567,884,l)
);
}
);
width = 788;
}
);
note = Ohungarumlaut;
unicode = 336;
},
